{"asset": {"generator": "Khronos glTF Blender I/O v1.7.33", "version": "2.0"}, "scene": 0, "scenes": [{"name": "Scene", "nodes": [30]}], "nodes": [{"name": "handslot.l", "rotation": [1.6806123159796016e-09, 1.6806122049572991e-09, -0.7071068286895752, 0.7071067094802856], "scale": [0.9999999403953552, 1, 0.9999999403953552], "translation": [5.138920400327152e-10, 0.09612506628036499, -0.05750012397766113]}, {"children": [0], "name": "hand.l", "rotation": [1.2001638571845774e-09, 1.358929182515567e-07, -5.455195605463814e-06, 1], "scale": [1, 0.9999999403953552, 0.9999999403953552], "translation": [9.054978988842777e-13, 0.07382583618164062, -2.220446049250313e-16]}, {"children": [1], "name": "wrist.l", "rotation": [5.118455659314236e-11, -3.0774255366239345e-10, 0.02665809914469719, 0.9996446967124939], "scale": [0.9999999403953552, 0.9999999403953552, 0.9999999403953552], "translation": [7.426281811717672e-09, 0.26004382967948914, 6.127964108371131e-11]}, {"children": [2], "name": "lowerarm.l", "rotation": [1.4942596049394297e-09, -6.228115267958856e-08, -0.05528552085161209, 0.9984706044197083], "scale": [1.000000238418579, 0.9999998807907104, 0.9999999403953552], "translation": [-3.219664312936743e-09, 0.24189729988574982, -1.1940561250867177e-07]}, {"children": [3], "name": "upperarm.l", "rotation": [-0.5141214728355408, -0.485467791557312, -0.4854677617549896, 0.5141218900680542], "scale": [0.9999993443489075, 0.9999993443489075, 0.9999997615814209], "translation": [0.21200737357139587, 0.13413214683532715, 8.40246201505579e-08]}, {"name": "head", "rotation": [0, 4.235164736271502e-22, 0, 1], "translation": [0, 0.26879656314849854, 0]}, {"name": "handslot.r", "rotation": [1.6805922209428559e-09, -1.6805921099205534e-09, 0.7071068286895752, 0.7071067094802856], "scale": [0.9999999403953552, 1, 0.9999999403953552], "translation": [-5.138920400327152e-10, 0.09612506628036499, -0.05750012397766113]}, {"children": [6], "name": "hand.r", "rotation": [1.199916277450086e-09, -9.210968698880606e-08, 5.455195605463814e-06, 1], "scale": [1, 0.9999999403953552, 0.9999999403953552], "translation": [3.9968028886505635e-15, 0.07382583618164062, -2.220446049250313e-16]}, {"children": [7], "name": "wrist.r", "rotation": [5.11842720984923e-11, 3.0773722459187525e-10, -0.02665809914469719, 0.9996446967124939], "scale": [0.9999999403953552, 0.9999999403953552, 0.9999999403953552], "translation": [-7.426281811717672e-09, 0.26004382967948914, 6.127964108371131e-11]}, {"children": [8], "name": "lowerarm.r", "rotation": [1.4942596049394297e-09, 6.228115267958856e-08, 0.05528552085161209, 0.9984706044197083], "scale": [1.000000238418579, 0.9999998807907104, 0.9999999403953552], "translation": [-7.12192249618937e-11, 0.2418973296880722, -1.1940561250867177e-07]}, {"children": [9], "name": "upperarm.r", "rotation": [-0.514121413230896, 0.48546773195266724, 0.4854677617549896, 0.514121949672699], "scale": [0.9999993443489075, 0.9999993443489075, 0.9999997615814209], "translation": [-0.21200737357139587, 0.13413214683532715, 8.40246201505579e-08]}, {"children": [4, 5, 10], "name": "chest", "rotation": [0, -8.470329472543003e-22, 0, 1], "scale": [1, 0.9999999403953552, 1], "translation": [0, 0.37498795986175537, 0]}, {"children": [11], "name": "spine", "rotation": [0, 7.105427357601002e-15, 0, 1], "translation": [0, 0.19197750091552734, 0]}, {"name": "toes.l", "rotation": [4.775987960670136e-08, 0.920354962348938, -0.39108410477638245, 5.801560831741881e-08], "scale": [1, 0.9999966025352478, 1.000003695487976], "translation": [-1.5114396845206102e-08, 0.16565002501010895, 5.171392203351388e-09]}, {"children": [13], "name": "foot.l", "rotation": [-0.45523902773857117, 1.6197549967955638e-08, -3.4356396838575165e-08, 0.8903692960739136], "scale": [1, 1.0000008344650269, 0.9999987483024597], "translation": [1.833934670791848e-10, 0.14943702518939972, 9.65873825364838e-10]}, {"children": [14], "name": "lowerleg.l", "rotation": [0.1062251403927803, 6.865227675234564e-08, -7.377025923460678e-08, 0.9943422079086304], "scale": [1, 1.0000004768371582, 1.0000001192092896], "translation": [3.57975737941274e-09, 0.22707749903202057, -6.140325137238278e-09]}, {"children": [15], "name": "upperleg.l", "rotation": [0.9998490810394287, -7.132765489359372e-08, -1.2042731256656225e-08, 0.017373191192746162], "scale": [1, 0.9999998211860657, 1.0000011920928955], "translation": [0.17094506323337555, 0.11358726024627686, 1.392327231286572e-08]}, {"name": "toes.r", "rotation": [2.1219815238282536e-08, 0.920354962348938, -0.39108410477638245, 6.450591172324494e-08], "scale": [1, 0.9999966025352478, 1.000003695487976], "translation": [2.1323326437894252e-10, 0.16565002501010895, 5.1714001969571655e-09]}, {"children": [17], "name": "foot.r", "rotation": [-0.45523902773857117, 1.659820298982595e-07, 2.250484687493781e-09, 0.8903692960739136], "scale": [1, 1.0000008344650269, 0.9999987483024597], "translation": [-1.833922180782821e-10, 0.14943702518939972, 9.65878599323844e-10]}, {"children": [18], "name": "lowerleg.r", "rotation": [0.1062251403927803, -6.865229096320036e-08, 7.377025923460678e-08, 0.9943422079086304], "scale": [1, 1.0000004768371582, 1.0000001192092896], "translation": [-3.57975737941274e-09, 0.22707749903202057, -6.140325137238278e-09]}, {"children": [19], "name": "upperleg.r", "rotation": [0.9998490810394287, 7.426572778967966e-08, -3.172628026959501e-08, 0.017373191192746162], "scale": [1, 0.9999998211860657, 1.0000011920928955], "translation": [-0.17094506323337555, 0.11358726024627686, 1.392327231286572e-08]}, {"children": [12, 16, 20], "name": "hips", "rotation": [0, -1.1920927533992653e-07, 0, 1], "translation": [0, 0.4056634306907654, 0]}, {"children": [21], "name": "root", "rotation": [0, 1.1920927533992653e-07, 0, 1]}, {"mesh": 0, "name": "Barbarian_ArmLeft", "skin": 0}, {"mesh": 1, "name": "Barbarian_ArmRight", "skin": 0}, {"mesh": 2, "name": "Barbarian_BearHat", "skin": 0}, {"mesh": 3, "name": "Barbarian_Body", "skin": 0}, {"mesh": 4, "name": "Barbarian_Head", "skin": 0}, {"mesh": 5, "name": "Barbarian_LegLeft", "skin": 0}, {"mesh": 6, "name": "Barbarian_LegRight", "skin": 0}, {"children": [23, 24, 25, 26, 27, 28, 29, 22], "name": "Rig_Medium", "scale": [0.7089907116752618, 0.7089907116752618, 0.7089907116752618]}], "materials": [{"doubleSided": true, "name": "barbarian", "pbrMetallicRoughness": {"baseColorTexture": {"index": 0}, "metallicFactor": 0, "roughnessFactor": 0.5}}], "meshes": [{"name": "Barbarian_ArmLeft", "primitives": [{"attributes": {"POSITION": 0, "NORMAL": 1, "TEXCOORD_0": 2, "JOINTS_0": 3, "WEIGHTS_0": 4}, "indices": 5, "material": 0}]}, {"name": "Barbarian_ArmRight", "primitives": [{"attributes": {"POSITION": 7, "NORMAL": 8, "TEXCOORD_0": 9, "JOINTS_0": 10, "WEIGHTS_0": 11}, "indices": 12, "material": 0}]}, {"name": "Barbarian_BearHat", "primitives": [{"attributes": {"POSITION": 13, "NORMAL": 14, "TEXCOORD_0": 15, "JOINTS_0": 16, "WEIGHTS_0": 17}, "indices": 18, "material": 0}]}, {"name": "Barbarian_Body", "primitives": [{"attributes": {"POSITION": 19, "NORMAL": 20, "TEXCOORD_0": 21, "JOINTS_0": 22, "WEIGHTS_0": 23}, "indices": 24, "material": 0}]}, {"name": "Barbarian_Head", "primitives": [{"attributes": {"POSITION": 25, "NORMAL": 26, "TEXCOORD_0": 27, "JOINTS_0": 28, "WEIGHTS_0": 29}, "indices": 30, "material": 0}]}, {"name": "Barbarian_LegLeft", "primitives": [{"attributes": {"POSITION": 31, "NORMAL": 32, "TEXCOORD_0": 33, "JOINTS_0": 34, "WEIGHTS_0": 35}, "indices": 36, "material": 0}]}, {"name": "Barbarian_LegRight", "primitives": [{"attributes": {"POSITION": 37, "NORMAL": 38, "TEXCOORD_0": 39, "JOINTS_0": 40, "WEIGHTS_0": 41}, "indices": 42, "material": 0}]}], "textures": [{"sampler": 1, "source": 0}], "images": [{"uri": "barbarian.png"}], "skins": [{"inverseBindMatrices": 6, "joints": [22, 21, 12, 11, 4, 3, 2, 1, 0, 5, 10, 9, 8, 7, 6, 16, 15, 14, 13, 20, 19, 18, 17], "name": "Rig_Medium"}], "accessors": [{"bufferView": 0, "componentType": 5126, "count": 589, "max": [0.971257746219635, 1.2428525686264038, 0.14315974712371826], "min": [0.08885035663843155, 0.969132661819458, -0.14315961301326752], "type": "VEC3"}, {"bufferView": 1, "componentType": 5126, "count": 589, "type": "VEC3"}, {"bufferView": 2, "componentType": 5126, "count": 589, "type": "VEC2"}, {"bufferView": 3, "componentType": 5121, "count": 589, "type": "VEC4"}, {"bufferView": 4, "componentType": 5126, "count": 589, "type": "VEC4"}, {"bufferView": 5, "componentType": 5123, "count": 2106, "type": "SCALAR"}, {"bufferView": 6, "componentType": 5126, "count": 23, "type": "MAT4"}, {"bufferView": 7, "componentType": 5126, "count": 589, "max": [-0.08885035663843155, 1.2428525686264038, 0.14315974712371826], "min": [-0.971257746219635, 0.969132661819458, -0.14315961301326752], "type": "VEC3"}, {"bufferView": 8, "componentType": 5126, "count": 589, "type": "VEC3"}, {"bufferView": 9, "componentType": 5126, "count": 589, "type": "VEC2"}, {"bufferView": 10, "componentType": 5121, "count": 589, "type": "VEC4"}, {"bufferView": 11, "componentType": 5126, "count": 589, "type": "VEC4"}, {"bufferView": 12, "componentType": 5123, "count": 2106, "type": "SCALAR"}, {"bufferView": 13, "componentType": 5126, "count": 974, "max": [0.5545327663421631, 2.3977746963500977, 0.738594651222229], "min": [-0.5545327663421631, 1.4094864130020142, -0.5253046154975891], "type": "VEC3"}, {"bufferView": 14, "componentType": 5126, "count": 974, "type": "VEC3"}, {"bufferView": 15, "componentType": 5126, "count": 974, "type": "VEC2"}, {"bufferView": 16, "componentType": 5121, "count": 974, "type": "VEC4"}, {"bufferView": 17, "componentType": 5126, "count": 974, "type": "VEC4"}, {"bufferView": 18, "componentType": 5123, "count": 3090, "type": "SCALAR"}, {"bufferView": 19, "componentType": 5126, "count": 1702, "max": [0.4506569504737854, 1.3939282894134521, 0.36519932746887207], "min": [-0.4420210123062134, 0.37640804052352905, -0.37019675970077515], "type": "VEC3"}, {"bufferView": 20, "componentType": 5126, "count": 1702, "type": "VEC3"}, {"bufferView": 21, "componentType": 5126, "count": 1702, "type": "VEC2"}, {"bufferView": 22, "componentType": 5121, "count": 1702, "type": "VEC4"}, {"bufferView": 23, "componentType": 5126, "count": 1702, "type": "VEC4"}, {"bufferView": 24, "componentType": 5123, "count": 5520, "type": "SCALAR"}, {"bufferView": 25, "componentType": 5126, "count": 752, "max": [0.5426634550094604, 2.186316967010498, 0.525001049041748], "min": [-0.5426494479179382, 1.1345034837722778, -0.45999979972839355], "type": "VEC3"}, {"bufferView": 26, "componentType": 5126, "count": 752, "type": "VEC3"}, {"bufferView": 27, "componentType": 5126, "count": 752, "type": "VEC2"}, {"bufferView": 28, "componentType": 5121, "count": 752, "type": "VEC4"}, {"bufferView": 29, "componentType": 5126, "count": 752, "type": "VEC4"}, {"bufferView": 30, "componentType": 5123, "count": 3063, "type": "SCALAR"}, {"bufferView": 31, "componentType": 5126, "count": 722, "max": [0.2911817729473114, 0.5291943550109863, 0.28061366081237793], "min": [0.04575875401496887, 0, -0.1277633011341095], "type": "VEC3"}, {"bufferView": 32, "componentType": 5126, "count": 722, "type": "VEC3"}, {"bufferView": 33, "componentType": 5126, "count": 722, "type": "VEC2"}, {"bufferView": 34, "componentType": 5121, "count": 722, "type": "VEC4"}, {"bufferView": 35, "componentType": 5126, "count": 722, "type": "VEC4"}, {"bufferView": 36, "componentType": 5123, "count": 2742, "type": "SCALAR"}, {"bufferView": 37, "componentType": 5126, "count": 722, "max": [-0.04575875401496887, 0.5291944146156311, 0.2806136906147003], "min": [-0.2911817729473114, -1.635819657508364e-08, -0.1277632862329483], "type": "VEC3"}, {"bufferView": 38, "componentType": 5126, "count": 722, "type": "VEC3"}, {"bufferView": 39, "componentType": 5126, "count": 722, "type": "VEC2"}, {"bufferView": 40, "componentType": 5121, "count": 722, "type": "VEC4"}, {"bufferView": 41, "componentType": 5126, "count": 722, "type": "VEC4"}, {"bufferView": 42, "componentType": 5123, "count": 2742, "type": "SCALAR"}, {"bufferView": 43, "componentType": 5126, "count": 33, "type": "SCALAR", "min": [0], "max": [1.0666666666666667]}, {"bufferView": 44, "componentType": 5126, "count": 33, "type": "VEC3"}, {"bufferView": 45, "componentType": 5126, "count": 33, "type": "SCALAR", "min": [0], "max": [1.0666666666666667]}, {"bufferView": 46, "componentType": 5126, "count": 33, "type": "VEC4"}, {"bufferView": 47, "componentType": 5126, "count": 2, "type": "SCALAR", "min": [0], "max": [1.0666666666666667]}, {"bufferView": 48, "componentType": 5126, "count": 2, "type": "VEC3"}, {"bufferView": 49, "componentType": 5126, "count": 33, "type": "SCALAR", "min": [0], "max": [1.0666666666666667]}, {"bufferView": 50, "componentType": 5126, "count": 33, "type": "VEC4"}, {"bufferView": 51, "componentType": 5126, "count": 2, "type": "SCALAR", "min": [0], "max": [1.0666666666666667]}, {"bufferView": 52, "componentType": 5126, "count": 2, "type": "VEC3"}, {"bufferView": 53, "componentType": 5126, "count": 33, "type": "SCALAR", "min": [0], "max": [1.0666666666666667]}, {"bufferView": 54, "componentType": 5126, "count": 33, "type": "VEC4"}, {"bufferView": 55, "componentType": 5126, "count": 2, "type": "SCALAR", "min": [0], "max": [1.0666666666666667]}, {"bufferView": 56, "componentType": 5126, "count": 2, "type": "VEC3"}, {"bufferView": 57, "componentType": 5126, "count": 33, "type": "SCALAR", "min": [0], "max": [1.0666666666666667]}, {"bufferView": 58, "componentType": 5126, "count": 33, "type": "VEC4"}, {"bufferView": 59, "componentType": 5126, "count": 2, "type": "SCALAR", "min": [0], "max": [1.0666666666666667]}, {"bufferView": 60, "componentType": 5126, "count": 2, "type": "VEC3"}, {"bufferView": 61, "componentType": 5126, "count": 33, "type": "SCALAR", "min": [0], "max": [1.0666666666666667]}, {"bufferView": 62, "componentType": 5126, "count": 33, "type": "VEC4"}, {"bufferView": 63, "componentType": 5126, "count": 2, "type": "SCALAR", "min": [0], "max": [1.0666666666666667]}, {"bufferView": 64, "componentType": 5126, "count": 2, "type": "VEC3"}, {"bufferView": 65, "componentType": 5126, "count": 33, "type": "SCALAR", "min": [0], "max": [1.0666666666666667]}, {"bufferView": 66, "componentType": 5126, "count": 33, "type": "VEC4"}, {"bufferView": 67, "componentType": 5126, "count": 2, "type": "SCALAR", "min": [0], "max": [1.0666666666666667]}, {"bufferView": 68, "componentType": 5126, "count": 2, "type": "VEC3"}, {"bufferView": 69, "componentType": 5126, "count": 2, "type": "SCALAR", "min": [0], "max": [1.0666666666666667]}, {"bufferView": 70, "componentType": 5126, "count": 2, "type": "VEC4"}, {"bufferView": 71, "componentType": 5126, "count": 2, "type": "SCALAR", "min": [0], "max": [1.0666666666666667]}, {"bufferView": 72, "componentType": 5126, "count": 2, "type": "VEC3"}, {"bufferView": 73, "componentType": 5126, "count": 33, "type": "SCALAR", "min": [0], "max": [1.0666666666666667]}, {"bufferView": 74, "componentType": 5126, "count": 33, "type": "VEC4"}, {"bufferView": 75, "componentType": 5126, "count": 2, "type": "SCALAR", "min": [0], "max": [1.0666666666666667]}, {"bufferView": 76, "componentType": 5126, "count": 2, "type": "VEC3"}, {"bufferView": 77, "componentType": 5126, "count": 33, "type": "SCALAR", "min": [0], "max": [1.0666666666666667]}, {"bufferView": 78, "componentType": 5126, "count": 33, "type": "VEC4"}, {"bufferView": 79, "componentType": 5126, "count": 2, "type": "SCALAR", "min": [0], "max": [1.0666666666666667]}, {"bufferView": 80, "componentType": 5126, "count": 2, "type": "VEC3"}, {"bufferView": 81, "componentType": 5126, "count": 33, "type": "SCALAR", "min": [0], "max": [1.0666666666666667]}, {"bufferView": 82, "componentType": 5126, "count": 33, "type": "VEC4"}, {"bufferView": 83, "componentType": 5126, "count": 2, "type": "SCALAR", "min": [0], "max": [1.0666666666666667]}, {"bufferView": 84, "componentType": 5126, "count": 2, "type": "VEC3"}, {"bufferView": 85, "componentType": 5126, "count": 2, "type": "SCALAR", "min": [0], "max": [1.0666666666666667]}, {"bufferView": 86, "componentType": 5126, "count": 2, "type": "VEC4"}, {"bufferView": 87, "componentType": 5126, "count": 2, "type": "SCALAR", "min": [0], "max": [1.0666666666666667]}, {"bufferView": 88, "componentType": 5126, "count": 2, "type": "VEC3"}, {"bufferView": 89, "componentType": 5126, "count": 33, "type": "SCALAR", "min": [0], "max": [1.0666666666666667]}, {"bufferView": 90, "componentType": 5126, "count": 33, "type": "VEC4"}, {"bufferView": 91, "componentType": 5126, "count": 2, "type": "SCALAR", "min": [0], "max": [1.0666666666666667]}, {"bufferView": 92, "componentType": 5126, "count": 2, "type": "VEC3"}, {"bufferView": 93, "componentType": 5126, "count": 33, "type": "SCALAR", "min": [0], "max": [1.0666666666666667]}, {"bufferView": 94, "componentType": 5126, "count": 33, "type": "VEC4"}, {"bufferView": 95, "componentType": 5126, "count": 2, "type": "SCALAR", "min": [0], "max": [1.0666666666666667]}, {"bufferView": 96, "componentType": 5126, "count": 2, "type": "VEC3"}, {"bufferView": 97, "componentType": 5126, "count": 33, "type": "SCALAR", "min": [0], "max": [1.0666666666666667]}, {"bufferView": 98, "componentType": 5126, "count": 33, "type": "VEC4"}, {"bufferView": 99, "componentType": 5126, "count": 2, "type": "SCALAR", "min": [0], "max": [1.0666666666666667]}, {"bufferView": 100, "componentType": 5126, "count": 2, "type": "VEC3"}, {"bufferView": 101, "componentType": 5126, "count": 33, "type": "SCALAR", "min": [0], "max": [1.0666666666666667]}, {"bufferView": 102, "componentType": 5126, "count": 33, "type": "VEC4"}, {"bufferView": 103, "componentType": 5126, "count": 2, "type": "SCALAR", "min": [0], "max": [1.0666666666666667]}, {"bufferView": 104, "componentType": 5126, "count": 2, "type": "VEC3"}, {"bufferView": 105, "componentType": 5126, "count": 2, "type": "SCALAR", "min": [0], "max": [1.0666666666666667]}, {"bufferView": 106, "componentType": 5126, "count": 2, "type": "VEC4"}, {"bufferView": 107, "componentType": 5126, "count": 2, "type": "SCALAR", "min": [0], "max": [1.0666666666666667]}, {"bufferView": 108, "componentType": 5126, "count": 2, "type": "VEC3"}, {"bufferView": 109, "componentType": 5126, "count": 33, "type": "SCALAR", "min": [0], "max": [1.0666666666666667]}, {"bufferView": 110, "componentType": 5126, "count": 33, "type": "VEC4"}, {"bufferView": 111, "componentType": 5126, "count": 2, "type": "SCALAR", "min": [0], "max": [1.0666666666666667]}, {"bufferView": 112, "componentType": 5126, "count": 2, "type": "VEC3"}, {"bufferView": 113, "componentType": 5126, "count": 33, "type": "SCALAR", "min": [0], "max": [1.0666666666666667]}, {"bufferView": 114, "componentType": 5126, "count": 33, "type": "VEC4"}, {"bufferView": 115, "componentType": 5126, "count": 2, "type": "SCALAR", "min": [0], "max": [1.0666666666666667]}, {"bufferView": 116, "componentType": 5126, "count": 2, "type": "VEC3"}, {"bufferView": 117, "componentType": 5126, "count": 33, "type": "SCALAR", "min": [0], "max": [1.0666666666666667]}, {"bufferView": 118, "componentType": 5126, "count": 33, "type": "VEC4"}, {"bufferView": 119, "componentType": 5126, "count": 2, "type": "SCALAR", "min": [0], "max": [1.0666666666666667]}, {"bufferView": 120, "componentType": 5126, "count": 2, "type": "VEC3"}, {"bufferView": 121, "componentType": 5126, "count": 33, "type": "SCALAR", "min": [0], "max": [1.0666666666666667]}, {"bufferView": 122, "componentType": 5126, "count": 33, "type": "VEC4"}, {"bufferView": 123, "componentType": 5126, "count": 2, "type": "SCALAR", "min": [0], "max": [1.0666666666666667]}, {"bufferView": 124, "componentType": 5126, "count": 2, "type": "VEC3"}, {"bufferView": 125, "componentType": 5126, "count": 33, "type": "SCALAR", "min": [0], "max": [1.0666666666666667]}, {"bufferView": 126, "componentType": 5126, "count": 33, "type": "VEC4"}, {"bufferView": 127, "componentType": 5126, "count": 2, "type": "SCALAR", "min": [0], "max": [1.0666666666666667]}, {"bufferView": 128, "componentType": 5126, "count": 2, "type": "VEC3"}, {"bufferView": 129, "componentType": 5126, "count": 33, "type": "SCALAR", "min": [0], "max": [1.0666666666666667]}, {"bufferView": 130, "componentType": 5126, "count": 33, "type": "VEC4"}, {"bufferView": 131, "componentType": 5126, "count": 2, "type": "SCALAR", "min": [0], "max": [1.0666666666666667]}, {"bufferView": 132, "componentType": 5126, "count": 2, "type": "VEC3"}, {"bufferView": 133, "componentType": 5126, "count": 33, "type": "SCALAR", "min": [0], "max": [1.0666666666666667]}, {"bufferView": 134, "componentType": 5126, "count": 33, "type": "VEC4"}, {"bufferView": 135, "componentType": 5126, "count": 2, "type": "SCALAR", "min": [0], "max": [1.0666666666666667]}, {"bufferView": 136, "componentType": 5126, "count": 2, "type": "VEC3"}, {"bufferView": 137, "componentType": 5126, "count": 33, "type": "SCALAR", "min": [0], "max": [1.0666666666666667]}, {"bufferView": 138, "componentType": 5126, "count": 33, "type": "VEC4"}, {"bufferView": 139, "componentType": 5126, "count": 2, "type": "SCALAR", "min": [0], "max": [1.0666666666666667]}, {"bufferView": 140, "componentType": 5126, "count": 2, "type": "VEC3"}, {"bufferView": 141, "componentType": 5126, "count": 33, "type": "SCALAR", "min": [0], "max": [1.0666666666666667]}, {"bufferView": 142, "componentType": 5126, "count": 33, "type": "VEC4"}, {"bufferView": 143, "componentType": 5126, "count": 2, "type": "SCALAR", "min": [0], "max": [1.0666666666666667]}, {"bufferView": 144, "componentType": 5126, "count": 2, "type": "VEC3"}, {"bufferView": 145, "componentType": 5126, "count": 2, "type": "SCALAR", "min": [0], "max": [1.0666666666666667]}, {"bufferView": 146, "componentType": 5126, "count": 2, "type": "VEC4"}, {"bufferView": 147, "componentType": 5126, "count": 2, "type": "SCALAR", "min": [0], "max": [1.0666666666666667]}, {"bufferView": 148, "componentType": 5126, "count": 2, "type": "VEC3"}, {"bufferView": 149, "componentType": 5126, "count": 33, "type": "SCALAR", "min": [0], "max": [1.0666666666666667]}, {"bufferView": 150, "componentType": 5126, "count": 33, "type": "VEC4"}, {"bufferView": 151, "componentType": 5126, "count": 2, "type": "SCALAR", "min": [0], "max": [1.0666666666666667]}, {"bufferView": 152, "componentType": 5126, "count": 2, "type": "VEC3"}, {"bufferView": 153, "componentType": 5126, "count": 33, "type": "SCALAR", "min": [0], "max": [1.0666666666666667]}, {"bufferView": 154, "componentType": 5126, "count": 33, "type": "VEC4"}, {"bufferView": 155, "componentType": 5126, "count": 2, "type": "SCALAR", "min": [0], "max": [1.0666666666666667]}, {"bufferView": 156, "componentType": 5126, "count": 2, "type": "VEC3"}, {"bufferView": 157, "componentType": 5126, "count": 33, "type": "SCALAR", "min": [0], "max": [1.0666666666666667]}, {"bufferView": 158, "componentType": 5126, "count": 33, "type": "VEC4"}, {"bufferView": 159, "componentType": 5126, "count": 2, "type": "SCALAR", "min": [0], "max": [1.0666666666666667]}, {"bufferView": 160, "componentType": 5126, "count": 2, "type": "VEC3"}, {"bufferView": 161, "componentType": 5126, "count": 33, "type": "SCALAR", "min": [0], "max": [1.0666666666666667]}, {"bufferView": 162, "componentType": 5126, "count": 33, "type": "VEC4"}, {"bufferView": 163, "componentType": 5126, "count": 2, "type": "SCALAR", "min": [0], "max": [1.0666666666666667]}, {"bufferView": 164, "componentType": 5126, "count": 2, "type": "VEC3"}, {"bufferView": 165, "componentType": 5126, "count": 33, "type": "SCALAR", "min": [0], "max": [1.0666666666666667]}, {"bufferView": 166, "componentType": 5126, "count": 33, "type": "VEC4"}, {"bufferView": 167, "componentType": 5126, "count": 33, "type": "SCALAR", "min": [0], "max": [1.0666666666666667]}, {"bufferView": 168, "componentType": 5126, "count": 33, "type": "VEC3"}, {"bufferView": 169, "componentType": 5126, "count": 33, "type": "SCALAR", "min": [0], "max": [1.0666666666666667]}, {"bufferView": 170, "componentType": 5126, "count": 33, "type": "VEC4"}, {"bufferView": 171, "componentType": 5126, "count": 2, "type": "SCALAR", "min": [0], "max": [1.0666666666666667]}, {"bufferView": 172, "componentType": 5126, "count": 2, "type": "VEC3"}, {"bufferView": 173, "componentType": 5126, "count": 2, "type": "SCALAR", "min": [0], "max": [1.0666666666666667]}, {"bufferView": 174, "componentType": 5126, "count": 2, "type": "VEC4"}, {"bufferView": 175, "componentType": 5126, "count": 2, "type": "SCALAR", "min": [0], "max": [1.0666666666666667]}, {"bufferView": 176, "componentType": 5126, "count": 2, "type": "VEC3"}, {"bufferView": 177, "componentType": 5126, "count": 2, "type": "SCALAR", "min": [0], "max": [1.0666666666666667]}, {"bufferView": 178, "componentType": 5126, "count": 2, "type": "VEC4"}, {"bufferView": 179, "componentType": 5126, "count": 2, "type": "SCALAR", "min": [0], "max": [1.0666666666666667]}, {"bufferView": 180, "componentType": 5126, "count": 2, "type": "VEC3"}, {"bufferView": 181, "componentType": 5126, "count": 33, "type": "SCALAR", "min": [0], "max": [1.0666666666666667]}, {"bufferView": 182, "componentType": 5126, "count": 33, "type": "VEC4"}, {"bufferView": 183, "componentType": 5126, "count": 2, "type": "SCALAR", "min": [0], "max": [1.0666666666666667]}, {"bufferView": 184, "componentType": 5126, "count": 2, "type": "VEC3"}, {"bufferView": 185, "componentType": 5126, "count": 33, "type": "SCALAR", "min": [0], "max": [1.0666666666666667]}, {"bufferView": 186, "componentType": 5126, "count": 33, "type": "VEC4"}, {"bufferView": 187, "componentType": 5126, "count": 2, "type": "SCALAR", "min": [0], "max": [1.0666666666666667]}, {"bufferView": 188, "componentType": 5126, "count": 2, "type": "VEC3"}, {"bufferView": 189, "componentType": 5126, "count": 33, "type": "SCALAR", "min": [0], "max": [1.0666666666666667]}, {"bufferView": 190, "componentType": 5126, "count": 33, "type": "VEC4"}, {"bufferView": 191, "componentType": 5126, "count": 2, "type": "SCALAR", "min": [0], "max": [1.0666666666666667]}, {"bufferView": 192, "componentType": 5126, "count": 2, "type": "VEC3"}, {"bufferView": 193, "componentType": 5126, "count": 33, "type": "SCALAR", "min": [0], "max": [1.0666666666666667]}, {"bufferView": 194, "componentType": 5126, "count": 33, "type": "VEC4"}, {"bufferView": 195, "componentType": 5126, "count": 2, "type": "SCALAR", "min": [0], "max": [1.0666666666666667]}, {"bufferView": 196, "componentType": 5126, "count": 2, "type": "VEC3"}, {"bufferView": 197, "componentType": 5126, "count": 33, "type": "SCALAR", "min": [0], "max": [1.0666666666666667]}, {"bufferView": 198, "componentType": 5126, "count": 33, "type": "VEC4"}, {"bufferView": 199, "componentType": 5126, "count": 2, "type": "SCALAR", "min": [0], "max": [1.0666666666666667]}, {"bufferView": 200, "componentType": 5126, "count": 2, "type": "VEC3"}, {"bufferView": 201, "componentType": 5126, "count": 33, "type": "SCALAR", "min": [0], "max": [1.0666666666666667]}, {"bufferView": 202, "componentType": 5126, "count": 33, "type": "VEC4"}, {"bufferView": 203, "componentType": 5126, "count": 2, "type": "SCALAR", "min": [0], "max": [1.0666666666666667]}, {"bufferView": 204, "componentType": 5126, "count": 2, "type": "VEC3"}, {"bufferView": 205, "componentType": 5126, "count": 33, "type": "SCALAR", "min": [0], "max": [1.0666666666666667]}, {"bufferView": 206, "componentType": 5126, "count": 33, "type": "VEC4"}, {"bufferView": 207, "componentType": 5126, "count": 33, "type": "SCALAR", "min": [0], "max": [1.0666666666666667]}, {"bufferView": 208, "componentType": 5126, "count": 33, "type": "VEC3"}, {"bufferView": 209, "componentType": 5126, "count": 2, "type": "SCALAR", "min": [0], "max": [1.0666666666666667]}, {"bufferView": 210, "componentType": 5126, "count": 2, "type": "VEC4"}, {"bufferView": 211, "componentType": 5126, "count": 2, "type": "SCALAR", "min": [0], "max": [1.0666666666666667]}, {"bufferView": 212, "componentType": 5126, "count": 2, "type": "VEC3"}, {"bufferView": 213, "componentType": 5126, "count": 2, "type": "SCALAR", "min": [0], "max": [1.0666666666666667]}, {"bufferView": 214, "componentType": 5126, "count": 2, "type": "VEC4"}, {"bufferView": 215, "componentType": 5126, "count": 33, "type": "SCALAR", "min": [0], "max": [1.0666666666666667]}, {"bufferView": 216, "componentType": 5126, "count": 33, "type": "VEC3"}, {"bufferView": 217, "componentType": 5126, "count": 33, "type": "SCALAR", "min": [0], "max": [1.0666666666666667]}, {"bufferView": 218, "componentType": 5126, "count": 33, "type": "VEC4"}, {"bufferView": 219, "componentType": 5126, "count": 2, "type": "SCALAR", "min": [0], "max": [1.0666666666666667]}, {"bufferView": 220, "componentType": 5126, "count": 2, "type": "VEC3"}, {"bufferView": 221, "componentType": 5126, "count": 2, "type": "SCALAR", "min": [0], "max": [1.0666666666666667]}, {"bufferView": 222, "componentType": 5126, "count": 2, "type": "VEC4"}, {"bufferView": 223, "componentType": 5126, "count": 2, "type": "SCALAR", "min": [0], "max": [1.0666666666666667]}, {"bufferView": 224, "componentType": 5126, "count": 2, "type": "VEC3"}, {"bufferView": 225, "componentType": 5126, "count": 2, "type": "SCALAR", "min": [0], "max": [1.0666666666666667]}, {"bufferView": 226, "componentType": 5126, "count": 2, "type": "VEC4"}, {"bufferView": 227, "componentType": 5126, "count": 2, "type": "SCALAR", "min": [0], "max": [0.8]}, {"bufferView": 228, "componentType": 5126, "count": 2, "type": "VEC3"}, {"bufferView": 229, "componentType": 5126, "count": 25, "type": "SCALAR", "min": [0], "max": [0.8]}, {"bufferView": 230, "componentType": 5126, "count": 25, "type": "VEC4"}, {"bufferView": 231, "componentType": 5126, "count": 2, "type": "SCALAR", "min": [0], "max": [0.8]}, {"bufferView": 232, "componentType": 5126, "count": 2, "type": "VEC3"}, {"bufferView": 233, "componentType": 5126, "count": 25, "type": "SCALAR", "min": [0], "max": [0.8]}, {"bufferView": 234, "componentType": 5126, "count": 25, "type": "VEC4"}, {"bufferView": 235, "componentType": 5126, "count": 2, "type": "SCALAR", "min": [0], "max": [0.8]}, {"bufferView": 236, "componentType": 5126, "count": 2, "type": "VEC3"}, {"bufferView": 237, "componentType": 5126, "count": 2, "type": "SCALAR", "min": [0], "max": [0.8]}, {"bufferView": 238, "componentType": 5126, "count": 2, "type": "VEC4"}, {"bufferView": 239, "componentType": 5126, "count": 2, "type": "SCALAR", "min": [0], "max": [0.8]}, {"bufferView": 240, "componentType": 5126, "count": 2, "type": "VEC3"}, {"bufferView": 241, "componentType": 5126, "count": 25, "type": "SCALAR", "min": [0], "max": [0.8]}, {"bufferView": 242, "componentType": 5126, "count": 25, "type": "VEC4"}, {"bufferView": 243, "componentType": 5126, "count": 2, "type": "SCALAR", "min": [0], "max": [0.8]}, {"bufferView": 244, "componentType": 5126, "count": 2, "type": "VEC3"}, {"bufferView": 245, "componentType": 5126, "count": 25, "type": "SCALAR", "min": [0], "max": [0.8]}, {"bufferView": 246, "componentType": 5126, "count": 25, "type": "VEC4"}, {"bufferView": 247, "componentType": 5126, "count": 2, "type": "SCALAR", "min": [0], "max": [0.8]}, {"bufferView": 248, "componentType": 5126, "count": 2, "type": "VEC3"}, {"bufferView": 249, "componentType": 5126, "count": 25, "type": "SCALAR", "min": [0], "max": [0.8]}, {"bufferView": 250, "componentType": 5126, "count": 25, "type": "VEC4"}, {"bufferView": 251, "componentType": 5126, "count": 2, "type": "SCALAR", "min": [0], "max": [0.8]}, {"bufferView": 252, "componentType": 5126, "count": 2, "type": "VEC3"}, {"bufferView": 253, "componentType": 5126, "count": 25, "type": "SCALAR", "min": [0], "max": [0.8]}, {"bufferView": 254, "componentType": 5126, "count": 25, "type": "VEC4"}, {"bufferView": 255, "componentType": 5126, "count": 25, "type": "SCALAR", "min": [0], "max": [0.8]}, {"bufferView": 256, "componentType": 5126, "count": 25, "type": "VEC3"}, {"bufferView": 257, "componentType": 5126, "count": 25, "type": "SCALAR", "min": [0], "max": [0.8]}, {"bufferView": 258, "componentType": 5126, "count": 25, "type": "VEC4"}, {"bufferView": 259, "componentType": 5126, "count": 25, "type": "SCALAR", "min": [0], "max": [0.8]}, {"bufferView": 260, "componentType": 5126, "count": 25, "type": "VEC3"}, {"bufferView": 261, "componentType": 5126, "count": 25, "type": "SCALAR", "min": [0], "max": [0.8]}, {"bufferView": 262, "componentType": 5126, "count": 25, "type": "VEC4"}, {"bufferView": 263, "componentType": 5126, "count": 2, "type": "SCALAR", "min": [0], "max": [0.8]}, {"bufferView": 264, "componentType": 5126, "count": 2, "type": "VEC3"}, {"bufferView": 265, "componentType": 5126, "count": 2, "type": "SCALAR", "min": [0], "max": [0.8]}, {"bufferView": 266, "componentType": 5126, "count": 2, "type": "VEC4"}, {"bufferView": 267, "componentType": 5126, "count": 2, "type": "SCALAR", "min": [0], "max": [0.8]}, {"bufferView": 268, "componentType": 5126, "count": 2, "type": "VEC3"}, {"bufferView": 269, "componentType": 5126, "count": 25, "type": "SCALAR", "min": [0], "max": [0.8]}, {"bufferView": 270, "componentType": 5126, "count": 25, "type": "VEC4"}, {"bufferView": 271, "componentType": 5126, "count": 25, "type": "SCALAR", "min": [0], "max": [0.8]}, {"bufferView": 272, "componentType": 5126, "count": 25, "type": "VEC3"}, {"bufferView": 273, "componentType": 5126, "count": 25, "type": "SCALAR", "min": [0], "max": [0.8]}, {"bufferView": 274, "componentType": 5126, "count": 25, "type": "VEC4"}, {"bufferView": 275, "componentType": 5126, "count": 2, "type": "SCALAR", "min": [0], "max": [0.8]}, {"bufferView": 276, "componentType": 5126, "count": 2, "type": "VEC3"}, {"bufferView": 277, "componentType": 5126, "count": 25, "type": "SCALAR", "min": [0], "max": [0.8]}, {"bufferView": 278, "componentType": 5126, "count": 25, "type": "VEC4"}, {"bufferView": 279, "componentType": 5126, "count": 2, "type": "SCALAR", "min": [0], "max": [0.8]}, {"bufferView": 280, "componentType": 5126, "count": 2, "type": "VEC3"}, {"bufferView": 281, "componentType": 5126, "count": 25, "type": "SCALAR", "min": [0], "max": [0.8]}, {"bufferView": 282, "componentType": 5126, "count": 25, "type": "VEC4"}, {"bufferView": 283, "componentType": 5126, "count": 2, "type": "SCALAR", "min": [0], "max": [0.8]}, {"bufferView": 284, "componentType": 5126, "count": 2, "type": "VEC3"}, {"bufferView": 285, "componentType": 5126, "count": 25, "type": "SCALAR", "min": [0], "max": [0.8]}, {"bufferView": 286, "componentType": 5126, "count": 25, "type": "VEC4"}, {"bufferView": 287, "componentType": 5126, "count": 2, "type": "SCALAR", "min": [0], "max": [0.8]}, {"bufferView": 288, "componentType": 5126, "count": 2, "type": "VEC3"}, {"bufferView": 289, "componentType": 5126, "count": 25, "type": "SCALAR", "min": [0], "max": [0.8]}, {"bufferView": 290, "componentType": 5126, "count": 25, "type": "VEC4"}, {"bufferView": 291, "componentType": 5126, "count": 2, "type": "SCALAR", "min": [0], "max": [0.8]}, {"bufferView": 292, "componentType": 5126, "count": 2, "type": "VEC3"}, {"bufferView": 293, "componentType": 5126, "count": 25, "type": "SCALAR", "min": [0], "max": [0.8]}, {"bufferView": 294, "componentType": 5126, "count": 25, "type": "VEC4"}, {"bufferView": 295, "componentType": 5126, "count": 2, "type": "SCALAR", "min": [0], "max": [0.8]}, {"bufferView": 296, "componentType": 5126, "count": 2, "type": "VEC3"}, {"bufferView": 297, "componentType": 5126, "count": 25, "type": "SCALAR", "min": [0], "max": [0.8]}, {"bufferView": 298, "componentType": 5126, "count": 25, "type": "VEC4"}, {"bufferView": 299, "componentType": 5126, "count": 25, "type": "SCALAR", "min": [0], "max": [0.8]}, {"bufferView": 300, "componentType": 5126, "count": 25, "type": "VEC3"}, {"bufferView": 301, "componentType": 5126, "count": 25, "type": "SCALAR", "min": [0], "max": [0.8]}, {"bufferView": 302, "componentType": 5126, "count": 25, "type": "VEC4"}, {"bufferView": 303, "componentType": 5126, "count": 2, "type": "SCALAR", "min": [0], "max": [0.8]}, {"bufferView": 304, "componentType": 5126, "count": 2, "type": "VEC3"}, {"bufferView": 305, "componentType": 5126, "count": 2, "type": "SCALAR", "min": [0], "max": [0.8]}, {"bufferView": 306, "componentType": 5126, "count": 2, "type": "VEC4"}, {"bufferView": 307, "componentType": 5126, "count": 25, "type": "SCALAR", "min": [0], "max": [0.8]}, {"bufferView": 308, "componentType": 5126, "count": 25, "type": "VEC3"}, {"bufferView": 309, "componentType": 5126, "count": 25, "type": "SCALAR", "min": [0], "max": [0.8]}, {"bufferView": 310, "componentType": 5126, "count": 25, "type": "VEC4"}, {"bufferView": 311, "componentType": 5126, "count": 2, "type": "SCALAR", "min": [0], "max": [0.8]}, {"bufferView": 312, "componentType": 5126, "count": 2, "type": "VEC3"}, {"bufferView": 313, "componentType": 5126, "count": 2, "type": "SCALAR", "min": [0], "max": [0.8]}, {"bufferView": 314, "componentType": 5126, "count": 2, "type": "VEC4"}, {"bufferView": 315, "componentType": 5126, "count": 2, "type": "SCALAR", "min": [0], "max": [0.8]}, {"bufferView": 316, "componentType": 5126, "count": 2, "type": "VEC3"}, {"bufferView": 317, "componentType": 5126, "count": 2, "type": "SCALAR", "min": [0], "max": [0.8]}, {"bufferView": 318, "componentType": 5126, "count": 2, "type": "VEC4"}], "bufferViews": [{"buffer": 0, "byteLength": 7068, "byteOffset": 0}, {"buffer": 0, "byteLength": 7068, "byteOffset": 7068}, {"buffer": 0, "byteLength": 4712, "byteOffset": 14136}, {"buffer": 0, "byteLength": 2356, "byteOffset": 18848}, {"buffer": 0, "byteLength": 9424, "byteOffset": 21204}, {"buffer": 0, "byteLength": 4212, "byteOffset": 30628}, {"buffer": 0, "byteLength": 1472, "byteOffset": 34840}, {"buffer": 0, "byteLength": 7068, "byteOffset": 36312}, {"buffer": 0, "byteLength": 7068, "byteOffset": 43380}, {"buffer": 0, "byteLength": 4712, "byteOffset": 50448}, {"buffer": 0, "byteLength": 2356, "byteOffset": 55160}, {"buffer": 0, "byteLength": 9424, "byteOffset": 57516}, {"buffer": 0, "byteLength": 4212, "byteOffset": 66940}, {"buffer": 0, "byteLength": 11688, "byteOffset": 71152}, {"buffer": 0, "byteLength": 11688, "byteOffset": 82840}, {"buffer": 0, "byteLength": 7792, "byteOffset": 94528}, {"buffer": 0, "byteLength": 3896, "byteOffset": 102320}, {"buffer": 0, "byteLength": 15584, "byteOffset": 106216}, {"buffer": 0, "byteLength": 6180, "byteOffset": 121800}, {"buffer": 0, "byteLength": 20424, "byteOffset": 127980}, {"buffer": 0, "byteLength": 20424, "byteOffset": 148404}, {"buffer": 0, "byteLength": 13616, "byteOffset": 168828}, {"buffer": 0, "byteLength": 6808, "byteOffset": 182444}, {"buffer": 0, "byteLength": 27232, "byteOffset": 189252}, {"buffer": 0, "byteLength": 11040, "byteOffset": 216484}, {"buffer": 0, "byteLength": 9024, "byteOffset": 227524}, {"buffer": 0, "byteLength": 9024, "byteOffset": 236548}, {"buffer": 0, "byteLength": 6016, "byteOffset": 245572}, {"buffer": 0, "byteLength": 3008, "byteOffset": 251588}, {"buffer": 0, "byteLength": 12032, "byteOffset": 254596}, {"buffer": 0, "byteLength": 6126, "byteOffset": 266628}, {"buffer": 0, "byteLength": 8664, "byteOffset": 272756}, {"buffer": 0, "byteLength": 8664, "byteOffset": 281420}, {"buffer": 0, "byteLength": 5776, "byteOffset": 290084}, {"buffer": 0, "byteLength": 2888, "byteOffset": 295860}, {"buffer": 0, "byteLength": 11552, "byteOffset": 298748}, {"buffer": 0, "byteLength": 5484, "byteOffset": 310300}, {"buffer": 0, "byteLength": 8664, "byteOffset": 315784}, {"buffer": 0, "byteLength": 8664, "byteOffset": 324448}, {"buffer": 0, "byteLength": 5776, "byteOffset": 333112}, {"buffer": 0, "byteLength": 2888, "byteOffset": 338888}, {"buffer": 0, "byteLength": 11552, "byteOffset": 341776}, {"buffer": 0, "byteLength": 5484, "byteOffset": 353328}, {"buffer": 0, "byteOffset": 358812, "byteLength": 132}, {"buffer": 0, "byteOffset": 358944, "byteLength": 396}, {"buffer": 0, "byteOffset": 359340, "byteLength": 132}, {"buffer": 0, "byteOffset": 359472, "byteLength": 528}, {"buffer": 0, "byteOffset": 360000, "byteLength": 8}, {"buffer": 0, "byteOffset": 360008, "byteLength": 24}, {"buffer": 0, "byteOffset": 360032, "byteLength": 132}, {"buffer": 0, "byteOffset": 360164, "byteLength": 528}, {"buffer": 0, "byteOffset": 360692, "byteLength": 8}, {"buffer": 0, "byteOffset": 360700, "byteLength": 24}, {"buffer": 0, "byteOffset": 360724, "byteLength": 132}, {"buffer": 0, "byteOffset": 360856, "byteLength": 528}, {"buffer": 0, "byteOffset": 361384, "byteLength": 8}, {"buffer": 0, "byteOffset": 361392, "byteLength": 24}, {"buffer": 0, "byteOffset": 361416, "byteLength": 132}, {"buffer": 0, "byteOffset": 361548, "byteLength": 528}, {"buffer": 0, "byteOffset": 362076, "byteLength": 8}, {"buffer": 0, "byteOffset": 362084, "byteLength": 24}, {"buffer": 0, "byteOffset": 362108, "byteLength": 132}, {"buffer": 0, "byteOffset": 362240, "byteLength": 528}, {"buffer": 0, "byteOffset": 362768, "byteLength": 8}, {"buffer": 0, "byteOffset": 362776, "byteLength": 24}, {"buffer": 0, "byteOffset": 362800, "byteLength": 132}, {"buffer": 0, "byteOffset": 362932, "byteLength": 528}, {"buffer": 0, "byteOffset": 363460, "byteLength": 8}, {"buffer": 0, "byteOffset": 363468, "byteLength": 24}, {"buffer": 0, "byteOffset": 363492, "byteLength": 8}, {"buffer": 0, "byteOffset": 363500, "byteLength": 32}, {"buffer": 0, "byteOffset": 363532, "byteLength": 8}, {"buffer": 0, "byteOffset": 363540, "byteLength": 24}, {"buffer": 0, "byteOffset": 363564, "byteLength": 132}, {"buffer": 0, "byteOffset": 363696, "byteLength": 528}, {"buffer": 0, "byteOffset": 364224, "byteLength": 8}, {"buffer": 0, "byteOffset": 364232, "byteLength": 24}, {"buffer": 0, "byteOffset": 364256, "byteLength": 132}, {"buffer": 0, "byteOffset": 364388, "byteLength": 528}, {"buffer": 0, "byteOffset": 364916, "byteLength": 8}, {"buffer": 0, "byteOffset": 364924, "byteLength": 24}, {"buffer": 0, "byteOffset": 364948, "byteLength": 132}, {"buffer": 0, "byteOffset": 365080, "byteLength": 528}, {"buffer": 0, "byteOffset": 365608, "byteLength": 8}, {"buffer": 0, "byteOffset": 365616, "byteLength": 24}, {"buffer": 0, "byteOffset": 365640, "byteLength": 8}, {"buffer": 0, "byteOffset": 365648, "byteLength": 32}, {"buffer": 0, "byteOffset": 365680, "byteLength": 8}, {"buffer": 0, "byteOffset": 365688, "byteLength": 24}, {"buffer": 0, "byteOffset": 365712, "byteLength": 132}, {"buffer": 0, "byteOffset": 365844, "byteLength": 528}, {"buffer": 0, "byteOffset": 366372, "byteLength": 8}, {"buffer": 0, "byteOffset": 366380, "byteLength": 24}, {"buffer": 0, "byteOffset": 366404, "byteLength": 132}, {"buffer": 0, "byteOffset": 366536, "byteLength": 528}, {"buffer": 0, "byteOffset": 367064, "byteLength": 8}, {"buffer": 0, "byteOffset": 367072, "byteLength": 24}, {"buffer": 0, "byteOffset": 367096, "byteLength": 132}, {"buffer": 0, "byteOffset": 367228, "byteLength": 528}, {"buffer": 0, "byteOffset": 367756, "byteLength": 8}, {"buffer": 0, "byteOffset": 367764, "byteLength": 24}, {"buffer": 0, "byteOffset": 367788, "byteLength": 132}, {"buffer": 0, "byteOffset": 367920, "byteLength": 528}, {"buffer": 0, "byteOffset": 368448, "byteLength": 8}, {"buffer": 0, "byteOffset": 368456, "byteLength": 24}, {"buffer": 0, "byteOffset": 368480, "byteLength": 8}, {"buffer": 0, "byteOffset": 368488, "byteLength": 32}, {"buffer": 0, "byteOffset": 368520, "byteLength": 8}, {"buffer": 0, "byteOffset": 368528, "byteLength": 24}, {"buffer": 0, "byteOffset": 368552, "byteLength": 132}, {"buffer": 0, "byteOffset": 368684, "byteLength": 528}, {"buffer": 0, "byteOffset": 369212, "byteLength": 8}, {"buffer": 0, "byteOffset": 369220, "byteLength": 24}, {"buffer": 0, "byteOffset": 369244, "byteLength": 132}, {"buffer": 0, "byteOffset": 369376, "byteLength": 528}, {"buffer": 0, "byteOffset": 369904, "byteLength": 8}, {"buffer": 0, "byteOffset": 369912, "byteLength": 24}, {"buffer": 0, "byteOffset": 369936, "byteLength": 132}, {"buffer": 0, "byteOffset": 370068, "byteLength": 528}, {"buffer": 0, "byteOffset": 370596, "byteLength": 8}, {"buffer": 0, "byteOffset": 370604, "byteLength": 24}, {"buffer": 0, "byteOffset": 370628, "byteLength": 132}, {"buffer": 0, "byteOffset": 370760, "byteLength": 528}, {"buffer": 0, "byteOffset": 371288, "byteLength": 8}, {"buffer": 0, "byteOffset": 371296, "byteLength": 24}, {"buffer": 0, "byteOffset": 371320, "byteLength": 132}, {"buffer": 0, "byteOffset": 371452, "byteLength": 528}, {"buffer": 0, "byteOffset": 371980, "byteLength": 8}, {"buffer": 0, "byteOffset": 371988, "byteLength": 24}, {"buffer": 0, "byteOffset": 372012, "byteLength": 132}, {"buffer": 0, "byteOffset": 372144, "byteLength": 528}, {"buffer": 0, "byteOffset": 372672, "byteLength": 8}, {"buffer": 0, "byteOffset": 372680, "byteLength": 24}, {"buffer": 0, "byteOffset": 372704, "byteLength": 132}, {"buffer": 0, "byteOffset": 372836, "byteLength": 528}, {"buffer": 0, "byteOffset": 373364, "byteLength": 8}, {"buffer": 0, "byteOffset": 373372, "byteLength": 24}, {"buffer": 0, "byteOffset": 373396, "byteLength": 132}, {"buffer": 0, "byteOffset": 373528, "byteLength": 528}, {"buffer": 0, "byteOffset": 374056, "byteLength": 8}, {"buffer": 0, "byteOffset": 374064, "byteLength": 24}, {"buffer": 0, "byteOffset": 374088, "byteLength": 132}, {"buffer": 0, "byteOffset": 374220, "byteLength": 528}, {"buffer": 0, "byteOffset": 374748, "byteLength": 8}, {"buffer": 0, "byteOffset": 374756, "byteLength": 24}, {"buffer": 0, "byteOffset": 374780, "byteLength": 8}, {"buffer": 0, "byteOffset": 374788, "byteLength": 32}, {"buffer": 0, "byteOffset": 374820, "byteLength": 8}, {"buffer": 0, "byteOffset": 374828, "byteLength": 24}, {"buffer": 0, "byteOffset": 374852, "byteLength": 132}, {"buffer": 0, "byteOffset": 374984, "byteLength": 528}, {"buffer": 0, "byteOffset": 375512, "byteLength": 8}, {"buffer": 0, "byteOffset": 375520, "byteLength": 24}, {"buffer": 0, "byteOffset": 375544, "byteLength": 132}, {"buffer": 0, "byteOffset": 375676, "byteLength": 528}, {"buffer": 0, "byteOffset": 376204, "byteLength": 8}, {"buffer": 0, "byteOffset": 376212, "byteLength": 24}, {"buffer": 0, "byteOffset": 376236, "byteLength": 132}, {"buffer": 0, "byteOffset": 376368, "byteLength": 528}, {"buffer": 0, "byteOffset": 376896, "byteLength": 8}, {"buffer": 0, "byteOffset": 376904, "byteLength": 24}, {"buffer": 0, "byteOffset": 376928, "byteLength": 132}, {"buffer": 0, "byteOffset": 377060, "byteLength": 528}, {"buffer": 0, "byteOffset": 377588, "byteLength": 8}, {"buffer": 0, "byteOffset": 377596, "byteLength": 24}, {"buffer": 0, "byteOffset": 377620, "byteLength": 132}, {"buffer": 0, "byteOffset": 377752, "byteLength": 528}, {"buffer": 0, "byteOffset": 378280, "byteLength": 132}, {"buffer": 0, "byteOffset": 378412, "byteLength": 396}, {"buffer": 0, "byteOffset": 378808, "byteLength": 132}, {"buffer": 0, "byteOffset": 378940, "byteLength": 528}, {"buffer": 0, "byteOffset": 379468, "byteLength": 8}, {"buffer": 0, "byteOffset": 379476, "byteLength": 24}, {"buffer": 0, "byteOffset": 379500, "byteLength": 8}, {"buffer": 0, "byteOffset": 379508, "byteLength": 32}, {"buffer": 0, "byteOffset": 379540, "byteLength": 8}, {"buffer": 0, "byteOffset": 379548, "byteLength": 24}, {"buffer": 0, "byteOffset": 379572, "byteLength": 8}, {"buffer": 0, "byteOffset": 379580, "byteLength": 32}, {"buffer": 0, "byteOffset": 379612, "byteLength": 8}, {"buffer": 0, "byteOffset": 379620, "byteLength": 24}, {"buffer": 0, "byteOffset": 379644, "byteLength": 132}, {"buffer": 0, "byteOffset": 379776, "byteLength": 528}, {"buffer": 0, "byteOffset": 380304, "byteLength": 8}, {"buffer": 0, "byteOffset": 380312, "byteLength": 24}, {"buffer": 0, "byteOffset": 380336, "byteLength": 132}, {"buffer": 0, "byteOffset": 380468, "byteLength": 528}, {"buffer": 0, "byteOffset": 380996, "byteLength": 8}, {"buffer": 0, "byteOffset": 381004, "byteLength": 24}, {"buffer": 0, "byteOffset": 381028, "byteLength": 132}, {"buffer": 0, "byteOffset": 381160, "byteLength": 528}, {"buffer": 0, "byteOffset": 381688, "byteLength": 8}, {"buffer": 0, "byteOffset": 381696, "byteLength": 24}, {"buffer": 0, "byteOffset": 381720, "byteLength": 132}, {"buffer": 0, "byteOffset": 381852, "byteLength": 528}, {"buffer": 0, "byteOffset": 382380, "byteLength": 8}, {"buffer": 0, "byteOffset": 382388, "byteLength": 24}, {"buffer": 0, "byteOffset": 382412, "byteLength": 132}, {"buffer": 0, "byteOffset": 382544, "byteLength": 528}, {"buffer": 0, "byteOffset": 383072, "byteLength": 8}, {"buffer": 0, "byteOffset": 383080, "byteLength": 24}, {"buffer": 0, "byteOffset": 383104, "byteLength": 132}, {"buffer": 0, "byteOffset": 383236, "byteLength": 528}, {"buffer": 0, "byteOffset": 383764, "byteLength": 8}, {"buffer": 0, "byteOffset": 383772, "byteLength": 24}, {"buffer": 0, "byteOffset": 383796, "byteLength": 132}, {"buffer": 0, "byteOffset": 383928, "byteLength": 528}, {"buffer": 0, "byteOffset": 384456, "byteLength": 132}, {"buffer": 0, "byteOffset": 384588, "byteLength": 396}, {"buffer": 0, "byteOffset": 384984, "byteLength": 8}, {"buffer": 0, "byteOffset": 384992, "byteLength": 32}, {"buffer": 0, "byteOffset": 385024, "byteLength": 8}, {"buffer": 0, "byteOffset": 385032, "byteLength": 24}, {"buffer": 0, "byteOffset": 385056, "byteLength": 8}, {"buffer": 0, "byteOffset": 385064, "byteLength": 32}, {"buffer": 0, "byteOffset": 385096, "byteLength": 132}, {"buffer": 0, "byteOffset": 385228, "byteLength": 396}, {"buffer": 0, "byteOffset": 385624, "byteLength": 132}, {"buffer": 0, "byteOffset": 385756, "byteLength": 528}, {"buffer": 0, "byteOffset": 386284, "byteLength": 8}, {"buffer": 0, "byteOffset": 386292, "byteLength": 24}, {"buffer": 0, "byteOffset": 386316, "byteLength": 8}, {"buffer": 0, "byteOffset": 386324, "byteLength": 32}, {"buffer": 0, "byteOffset": 386356, "byteLength": 8}, {"buffer": 0, "byteOffset": 386364, "byteLength": 24}, {"buffer": 0, "byteOffset": 386388, "byteLength": 8}, {"buffer": 0, "byteOffset": 386396, "byteLength": 32}, {"buffer": 0, "byteOffset": 386428, "byteLength": 8}, {"buffer": 0, "byteOffset": 386436, "byteLength": 24}, {"buffer": 0, "byteOffset": 386460, "byteLength": 100}, {"buffer": 0, "byteOffset": 386560, "byteLength": 400}, {"buffer": 0, "byteOffset": 386960, "byteLength": 8}, {"buffer": 0, "byteOffset": 386968, "byteLength": 24}, {"buffer": 0, "byteOffset": 386992, "byteLength": 100}, {"buffer": 0, "byteOffset": 387092, "byteLength": 400}, {"buffer": 0, "byteOffset": 387492, "byteLength": 8}, {"buffer": 0, "byteOffset": 387500, "byteLength": 24}, {"buffer": 0, "byteOffset": 387524, "byteLength": 8}, {"buffer": 0, "byteOffset": 387532, "byteLength": 32}, {"buffer": 0, "byteOffset": 387564, "byteLength": 8}, {"buffer": 0, "byteOffset": 387572, "byteLength": 24}, {"buffer": 0, "byteOffset": 387596, "byteLength": 100}, {"buffer": 0, "byteOffset": 387696, "byteLength": 400}, {"buffer": 0, "byteOffset": 388096, "byteLength": 8}, {"buffer": 0, "byteOffset": 388104, "byteLength": 24}, {"buffer": 0, "byteOffset": 388128, "byteLength": 100}, {"buffer": 0, "byteOffset": 388228, "byteLength": 400}, {"buffer": 0, "byteOffset": 388628, "byteLength": 8}, {"buffer": 0, "byteOffset": 388636, "byteLength": 24}, {"buffer": 0, "byteOffset": 388660, "byteLength": 100}, {"buffer": 0, "byteOffset": 388760, "byteLength": 400}, {"buffer": 0, "byteOffset": 389160, "byteLength": 8}, {"buffer": 0, "byteOffset": 389168, "byteLength": 24}, {"buffer": 0, "byteOffset": 389192, "byteLength": 100}, {"buffer": 0, "byteOffset": 389292, "byteLength": 400}, {"buffer": 0, "byteOffset": 389692, "byteLength": 100}, {"buffer": 0, "byteOffset": 389792, "byteLength": 300}, {"buffer": 0, "byteOffset": 390092, "byteLength": 100}, {"buffer": 0, "byteOffset": 390192, "byteLength": 400}, {"buffer": 0, "byteOffset": 390592, "byteLength": 100}, {"buffer": 0, "byteOffset": 390692, "byteLength": 300}, {"buffer": 0, "byteOffset": 390992, "byteLength": 100}, {"buffer": 0, "byteOffset": 391092, "byteLength": 400}, {"buffer": 0, "byteOffset": 391492, "byteLength": 8}, {"buffer": 0, "byteOffset": 391500, "byteLength": 24}, {"buffer": 0, "byteOffset": 391524, "byteLength": 8}, {"buffer": 0, "byteOffset": 391532, "byteLength": 32}, {"buffer": 0, "byteOffset": 391564, "byteLength": 8}, {"buffer": 0, "byteOffset": 391572, "byteLength": 24}, {"buffer": 0, "byteOffset": 391596, "byteLength": 100}, {"buffer": 0, "byteOffset": 391696, "byteLength": 400}, {"buffer": 0, "byteOffset": 392096, "byteLength": 100}, {"buffer": 0, "byteOffset": 392196, "byteLength": 300}, {"buffer": 0, "byteOffset": 392496, "byteLength": 100}, {"buffer": 0, "byteOffset": 392596, "byteLength": 400}, {"buffer": 0, "byteOffset": 392996, "byteLength": 8}, {"buffer": 0, "byteOffset": 393004, "byteLength": 24}, {"buffer": 0, "byteOffset": 393028, "byteLength": 100}, {"buffer": 0, "byteOffset": 393128, "byteLength": 400}, {"buffer": 0, "byteOffset": 393528, "byteLength": 8}, {"buffer": 0, "byteOffset": 393536, "byteLength": 24}, {"buffer": 0, "byteOffset": 393560, "byteLength": 100}, {"buffer": 0, "byteOffset": 393660, "byteLength": 400}, {"buffer": 0, "byteOffset": 394060, "byteLength": 8}, {"buffer": 0, "byteOffset": 394068, "byteLength": 24}, {"buffer": 0, "byteOffset": 394092, "byteLength": 100}, {"buffer": 0, "byteOffset": 394192, "byteLength": 400}, {"buffer": 0, "byteOffset": 394592, "byteLength": 8}, {"buffer": 0, "byteOffset": 394600, "byteLength": 24}, {"buffer": 0, "byteOffset": 394624, "byteLength": 100}, {"buffer": 0, "byteOffset": 394724, "byteLength": 400}, {"buffer": 0, "byteOffset": 395124, "byteLength": 8}, {"buffer": 0, "byteOffset": 395132, "byteLength": 24}, {"buffer": 0, "byteOffset": 395156, "byteLength": 100}, {"buffer": 0, "byteOffset": 395256, "byteLength": 400}, {"buffer": 0, "byteOffset": 395656, "byteLength": 8}, {"buffer": 0, "byteOffset": 395664, "byteLength": 24}, {"buffer": 0, "byteOffset": 395688, "byteLength": 100}, {"buffer": 0, "byteOffset": 395788, "byteLength": 400}, {"buffer": 0, "byteOffset": 396188, "byteLength": 100}, {"buffer": 0, "byteOffset": 396288, "byteLength": 300}, {"buffer": 0, "byteOffset": 396588, "byteLength": 100}, {"buffer": 0, "byteOffset": 396688, "byteLength": 400}, {"buffer": 0, "byteOffset": 397088, "byteLength": 8}, {"buffer": 0, "byteOffset": 397096, "byteLength": 24}, {"buffer": 0, "byteOffset": 397120, "byteLength": 8}, {"buffer": 0, "byteOffset": 397128, "byteLength": 32}, {"buffer": 0, "byteOffset": 397160, "byteLength": 100}, {"buffer": 0, "byteOffset": 397260, "byteLength": 300}, {"buffer": 0, "byteOffset": 397560, "byteLength": 100}, {"buffer": 0, "byteOffset": 397660, "byteLength": 400}, {"buffer": 0, "byteOffset": 398060, "byteLength": 8}, {"buffer": 0, "byteOffset": 398068, "byteLength": 24}, {"buffer": 0, "byteOffset": 398092, "byteLength": 8}, {"buffer": 0, "byteOffset": 398100, "byteLength": 32}, {"buffer": 0, "byteOffset": 398132, "byteLength": 8}, {"buffer": 0, "byteOffset": 398140, "byteLength": 24}, {"buffer": 0, "byteOffset": 398164, "byteLength": 8}, {"buffer": 0, "byteOffset": 398172, "byteLength": 32}], "samplers": [{"magFilter": 9729, "minFilter": 9987}, {"magFilter": 9728, "minFilter": 9728}], "buffers": [{"byteLength": 398204, "uri": "barbarian.bin"}], "animations": [{"name": "Idle", "samplers": [{"input": 43, "output": 44, "interpolation": "LINEAR"}, {"input": 45, "output": 46, "interpolation": "LINEAR"}, {"input": 47, "output": 48, "interpolation": "LINEAR"}, {"input": 49, "output": 50, "interpolation": "LINEAR"}, {"input": 51, "output": 52, "interpolation": "LINEAR"}, {"input": 53, "output": 54, "interpolation": "LINEAR"}, {"input": 55, "output": 56, "interpolation": "LINEAR"}, {"input": 57, "output": 58, "interpolation": "LINEAR"}, {"input": 59, "output": 60, "interpolation": "LINEAR"}, {"input": 61, "output": 62, "interpolation": "LINEAR"}, {"input": 63, "output": 64, "interpolation": "LINEAR"}, {"input": 65, "output": 66, "interpolation": "LINEAR"}, {"input": 67, "output": 68, "interpolation": "LINEAR"}, {"input": 69, "output": 70, "interpolation": "LINEAR"}, {"input": 71, "output": 72, "interpolation": "LINEAR"}, {"input": 73, "output": 74, "interpolation": "LINEAR"}, {"input": 75, "output": 76, "interpolation": "LINEAR"}, {"input": 77, "output": 78, "interpolation": "LINEAR"}, {"input": 79, "output": 80, "interpolation": "LINEAR"}, {"input": 81, "output": 82, "interpolation": "LINEAR"}, {"input": 83, "output": 84, "interpolation": "LINEAR"}, {"input": 85, "output": 86, "interpolation": "LINEAR"}, {"input": 87, "output": 88, "interpolation": "LINEAR"}, {"input": 89, "output": 90, "interpolation": "LINEAR"}, {"input": 91, "output": 92, "interpolation": "LINEAR"}, {"input": 93, "output": 94, "interpolation": "LINEAR"}, {"input": 95, "output": 96, "interpolation": "LINEAR"}, {"input": 97, "output": 98, "interpolation": "LINEAR"}, {"input": 99, "output": 100, "interpolation": "LINEAR"}, {"input": 101, "output": 102, "interpolation": "LINEAR"}, {"input": 103, "output": 104, "interpolation": "LINEAR"}, {"input": 105, "output": 106, "interpolation": "LINEAR"}, {"input": 107, "output": 108, "interpolation": "LINEAR"}, {"input": 109, "output": 110, "interpolation": "LINEAR"}, {"input": 111, "output": 112, "interpolation": "LINEAR"}, {"input": 113, "output": 114, "interpolation": "LINEAR"}, {"input": 115, "output": 116, "interpolation": "LINEAR"}, {"input": 117, "output": 118, "interpolation": "LINEAR"}, {"input": 119, "output": 120, "interpolation": "LINEAR"}, {"input": 121, "output": 122, "interpolation": "LINEAR"}, {"input": 123, "output": 124, "interpolation": "LINEAR"}, {"input": 125, "output": 126, "interpolation": "LINEAR"}, {"input": 127, "output": 128, "interpolation": "LINEAR"}, {"input": 129, "output": 130, "interpolation": "LINEAR"}, {"input": 131, "output": 132, "interpolation": "LINEAR"}, {"input": 133, "output": 134, "interpolation": "LINEAR"}], "channels": [{"sampler": 0, "target": {"node": 21, "path": "translation"}}, {"sampler": 1, "target": {"node": 21, "path": "rotation"}}, {"sampler": 2, "target": {"node": 6, "path": "translation"}}, {"sampler": 3, "target": {"node": 6, "path": "rotation"}}, {"sampler": 4, "target": {"node": 19, "path": "translation"}}, {"sampler": 5, "target": {"node": 19, "path": "rotation"}}, {"sampler": 6, "target": {"node": 7, "path": "translation"}}, {"sampler": 7, "target": {"node": 7, "path": "rotation"}}, {"sampler": 8, "target": {"node": 4, "path": "translation"}}, {"sampler": 9, "target": {"node": 4, "path": "rotation"}}, {"sampler": 10, "target": {"node": 3, "path": "translation"}}, {"sampler": 11, "target": {"node": 3, "path": "rotation"}}, {"sampler": 12, "target": {"node": 2, "path": "translation"}}, {"sampler": 13, "target": {"node": 2, "path": "rotation"}}, {"sampler": 14, "target": {"node": 12, "path": "translation"}}, {"sampler": 15, "target": {"node": 12, "path": "rotation"}}, {"sampler": 16, "target": {"node": 1, "path": "translation"}}, {"sampler": 17, "target": {"node": 1, "path": "rotation"}}, {"sampler": 18, "target": {"node": 13, "path": "translation"}}, {"sampler": 19, "target": {"node": 13, "path": "rotation"}}, {"sampler": 20, "target": {"node": 22, "path": "translation"}}, {"sampler": 21, "target": {"node": 22, "path": "rotation"}}, {"sampler": 22, "target": {"node": 9, "path": "translation"}}, {"sampler": 23, "target": {"node": 9, "path": "rotation"}}, {"sampler": 24, "target": {"node": 16, "path": "translation"}}, {"sampler": 25, "target": {"node": 16, "path": "rotation"}}, {"sampler": 26, "target": {"node": 14, "path": "translation"}}, {"sampler": 27, "target": {"node": 14, "path": "rotation"}}, {"sampler": 28, "target": {"node": 11, "path": "translation"}}, {"sampler": 29, "target": {"node": 11, "path": "rotation"}}, {"sampler": 30, "target": {"node": 8, "path": "translation"}}, {"sampler": 31, "target": {"node": 8, "path": "rotation"}}, {"sampler": 32, "target": {"node": 20, "path": "translation"}}, {"sampler": 33, "target": {"node": 20, "path": "rotation"}}, {"sampler": 34, "target": {"node": 17, "path": "translation"}}, {"sampler": 35, "target": {"node": 17, "path": "rotation"}}, {"sampler": 36, "target": {"node": 15, "path": "translation"}}, {"sampler": 37, "target": {"node": 15, "path": "rotation"}}, {"sampler": 38, "target": {"node": 5, "path": "translation"}}, {"sampler": 39, "target": {"node": 5, "path": "rotation"}}, {"sampler": 40, "target": {"node": 10, "path": "translation"}}, {"sampler": 41, "target": {"node": 10, "path": "rotation"}}, {"sampler": 42, "target": {"node": 18, "path": "translation"}}, {"sampler": 43, "target": {"node": 18, "path": "rotation"}}, {"sampler": 44, "target": {"node": 0, "path": "translation"}}, {"sampler": 45, "target": {"node": 0, "path": "rotation"}}]}, {"name": "Walk", "samplers": [{"input": 135, "output": 136, "interpolation": "LINEAR"}, {"input": 137, "output": 138, "interpolation": "LINEAR"}, {"input": 139, "output": 140, "interpolation": "LINEAR"}, {"input": 141, "output": 142, "interpolation": "LINEAR"}, {"input": 143, "output": 144, "interpolation": "LINEAR"}, {"input": 145, "output": 146, "interpolation": "LINEAR"}, {"input": 147, "output": 148, "interpolation": "LINEAR"}, {"input": 149, "output": 150, "interpolation": "LINEAR"}, {"input": 151, "output": 152, "interpolation": "LINEAR"}, {"input": 153, "output": 154, "interpolation": "LINEAR"}, {"input": 155, "output": 156, "interpolation": "LINEAR"}, {"input": 157, "output": 158, "interpolation": "LINEAR"}, {"input": 159, "output": 160, "interpolation": "LINEAR"}, {"input": 161, "output": 162, "interpolation": "LINEAR"}, {"input": 163, "output": 164, "interpolation": "LINEAR"}, {"input": 165, "output": 166, "interpolation": "LINEAR"}, {"input": 167, "output": 168, "interpolation": "LINEAR"}, {"input": 169, "output": 170, "interpolation": "LINEAR"}, {"input": 171, "output": 172, "interpolation": "LINEAR"}, {"input": 173, "output": 174, "interpolation": "LINEAR"}, {"input": 175, "output": 176, "interpolation": "LINEAR"}, {"input": 177, "output": 178, "interpolation": "LINEAR"}, {"input": 179, "output": 180, "interpolation": "LINEAR"}, {"input": 181, "output": 182, "interpolation": "LINEAR"}, {"input": 183, "output": 184, "interpolation": "LINEAR"}, {"input": 185, "output": 186, "interpolation": "LINEAR"}, {"input": 187, "output": 188, "interpolation": "LINEAR"}, {"input": 189, "output": 190, "interpolation": "LINEAR"}, {"input": 191, "output": 192, "interpolation": "LINEAR"}, {"input": 193, "output": 194, "interpolation": "LINEAR"}, {"input": 195, "output": 196, "interpolation": "LINEAR"}, {"input": 197, "output": 198, "interpolation": "LINEAR"}, {"input": 199, "output": 200, "interpolation": "LINEAR"}, {"input": 201, "output": 202, "interpolation": "LINEAR"}, {"input": 203, "output": 204, "interpolation": "LINEAR"}, {"input": 205, "output": 206, "interpolation": "LINEAR"}, {"input": 207, "output": 208, "interpolation": "LINEAR"}, {"input": 209, "output": 210, "interpolation": "LINEAR"}, {"input": 211, "output": 212, "interpolation": "LINEAR"}, {"input": 213, "output": 214, "interpolation": "LINEAR"}, {"input": 215, "output": 216, "interpolation": "LINEAR"}, {"input": 217, "output": 218, "interpolation": "LINEAR"}, {"input": 219, "output": 220, "interpolation": "LINEAR"}, {"input": 221, "output": 222, "interpolation": "LINEAR"}, {"input": 223, "output": 224, "interpolation": "LINEAR"}, {"input": 225, "output": 226, "interpolation": "LINEAR"}], "channels": [{"sampler": 0, "target": {"node": 3, "path": "translation"}}, {"sampler": 1, "target": {"node": 3, "path": "rotation"}}, {"sampler": 2, "target": {"node": 13, "path": "translation"}}, {"sampler": 3, "target": {"node": 13, "path": "rotation"}}, {"sampler": 4, "target": {"node": 8, "path": "translation"}}, {"sampler": 5, "target": {"node": 8, "path": "rotation"}}, {"sampler": 6, "target": {"node": 14, "path": "translation"}}, {"sampler": 7, "target": {"node": 14, "path": "rotation"}}, {"sampler": 8, "target": {"node": 19, "path": "translation"}}, {"sampler": 9, "target": {"node": 19, "path": "rotation"}}, {"sampler": 10, "target": {"node": 17, "path": "translation"}}, {"sampler": 11, "target": {"node": 17, "path": "rotation"}}, {"sampler": 12, "target": {"node": 7, "path": "translation"}}, {"sampler": 13, "target": {"node": 7, "path": "rotation"}}, {"sampler": 14, "target": {"node": 10, "path": "translation"}}, {"sampler": 15, "target": {"node": 10, "path": "rotation"}}, {"sampler": 16, "target": {"node": 20, "path": "translation"}}, {"sampler": 17, "target": {"node": 20, "path": "rotation"}}, {"sampler": 18, "target": {"node": 6, "path": "translation"}}, {"sampler": 19, "target": {"node": 6, "path": "rotation"}}, {"sampler": 20, "target": {"node": 5, "path": "translation"}}, {"sampler": 21, "target": {"node": 5, "path": "rotation"}}, {"sampler": 22, "target": {"node": 4, "path": "translation"}}, {"sampler": 23, "target": {"node": 4, "path": "rotation"}}, {"sampler": 24, "target": {"node": 9, "path": "translation"}}, {"sampler": 25, "target": {"node": 9, "path": "rotation"}}, {"sampler": 26, "target": {"node": 1, "path": "translation"}}, {"sampler": 27, "target": {"node": 1, "path": "rotation"}}, {"sampler": 28, "target": {"node": 11, "path": "translation"}}, {"sampler": 29, "target": {"node": 11, "path": "rotation"}}, {"sampler": 30, "target": {"node": 12, "path": "translation"}}, {"sampler": 31, "target": {"node": 12, "path": "rotation"}}, {"sampler": 32, "target": {"node": 15, "path": "translation"}}, {"sampler": 33, "target": {"node": 15, "path": "rotation"}}, {"sampler": 34, "target": {"node": 18, "path": "translation"}}, {"sampler": 35, "target": {"node": 18, "path": "rotation"}}, {"sampler": 36, "target": {"node": 21, "path": "translation"}}, {"sampler": 37, "target": {"node": 21, "path": "rotation"}}, {"sampler": 38, "target": {"node": 0, "path": "translation"}}, {"sampler": 39, "target": {"node": 0, "path": "rotation"}}, {"sampler": 40, "target": {"node": 16, "path": "translation"}}, {"sampler": 41, "target": {"node": 16, "path": "rotation"}}, {"sampler": 42, "target": {"node": 2, "path": "translation"}}, {"sampler": 43, "target": {"node": 2, "path": "rotation"}}, {"sampler": 44, "target": {"node": 22, "path": "translation"}}, {"sampler": 45, "target": {"node": 22, "path": "rotation"}}]}, {"name": "Sprint", "samplers": [{"input": 227, "output": 228, "interpolation": "LINEAR"}, {"input": 229, "output": 230, "interpolation": "LINEAR"}, {"input": 231, "output": 232, "interpolation": "LINEAR"}, {"input": 233, "output": 234, "interpolation": "LINEAR"}, {"input": 235, "output": 236, "interpolation": "LINEAR"}, {"input": 237, "output": 238, "interpolation": "LINEAR"}, {"input": 239, "output": 240, "interpolation": "LINEAR"}, {"input": 241, "output": 242, "interpolation": "LINEAR"}, {"input": 243, "output": 244, "interpolation": "LINEAR"}, {"input": 245, "output": 246, "interpolation": "LINEAR"}, {"input": 247, "output": 248, "interpolation": "LINEAR"}, {"input": 249, "output": 250, "interpolation": "LINEAR"}, {"input": 251, "output": 252, "interpolation": "LINEAR"}, {"input": 253, "output": 254, "interpolation": "LINEAR"}, {"input": 255, "output": 256, "interpolation": "LINEAR"}, {"input": 257, "output": 258, "interpolation": "LINEAR"}, {"input": 259, "output": 260, "interpolation": "LINEAR"}, {"input": 261, "output": 262, "interpolation": "LINEAR"}, {"input": 263, "output": 264, "interpolation": "LINEAR"}, {"input": 265, "output": 266, "interpolation": "LINEAR"}, {"input": 267, "output": 268, "interpolation": "LINEAR"}, {"input": 269, "output": 270, "interpolation": "LINEAR"}, {"input": 271, "output": 272, "interpolation": "LINEAR"}, {"input": 273, "output": 274, "interpolation": "LINEAR"}, {"input": 275, "output": 276, "interpolation": "LINEAR"}, {"input": 277, "output": 278, "interpolation": "LINEAR"}, {"input": 279, "output": 280, "interpolation": "LINEAR"}, {"input": 281, "output": 282, "interpolation": "LINEAR"}, {"input": 283, "output": 284, "interpolation": "LINEAR"}, {"input": 285, "output": 286, "interpolation": "LINEAR"}, {"input": 287, "output": 288, "interpolation": "LINEAR"}, {"input": 289, "output": 290, "interpolation": "LINEAR"}, {"input": 291, "output": 292, "interpolation": "LINEAR"}, {"input": 293, "output": 294, "interpolation": "LINEAR"}, {"input": 295, "output": 296, "interpolation": "LINEAR"}, {"input": 297, "output": 298, "interpolation": "LINEAR"}, {"input": 299, "output": 300, "interpolation": "LINEAR"}, {"input": 301, "output": 302, "interpolation": "LINEAR"}, {"input": 303, "output": 304, "interpolation": "LINEAR"}, {"input": 305, "output": 306, "interpolation": "LINEAR"}, {"input": 307, "output": 308, "interpolation": "LINEAR"}, {"input": 309, "output": 310, "interpolation": "LINEAR"}, {"input": 311, "output": 312, "interpolation": "LINEAR"}, {"input": 313, "output": 314, "interpolation": "LINEAR"}, {"input": 315, "output": 316, "interpolation": "LINEAR"}, {"input": 317, "output": 318, "interpolation": "LINEAR"}], "channels": [{"sampler": 0, "target": {"node": 3, "path": "translation"}}, {"sampler": 1, "target": {"node": 3, "path": "rotation"}}, {"sampler": 2, "target": {"node": 13, "path": "translation"}}, {"sampler": 3, "target": {"node": 13, "path": "rotation"}}, {"sampler": 4, "target": {"node": 8, "path": "translation"}}, {"sampler": 5, "target": {"node": 8, "path": "rotation"}}, {"sampler": 6, "target": {"node": 14, "path": "translation"}}, {"sampler": 7, "target": {"node": 14, "path": "rotation"}}, {"sampler": 8, "target": {"node": 19, "path": "translation"}}, {"sampler": 9, "target": {"node": 19, "path": "rotation"}}, {"sampler": 10, "target": {"node": 17, "path": "translation"}}, {"sampler": 11, "target": {"node": 17, "path": "rotation"}}, {"sampler": 12, "target": {"node": 7, "path": "translation"}}, {"sampler": 13, "target": {"node": 7, "path": "rotation"}}, {"sampler": 14, "target": {"node": 10, "path": "translation"}}, {"sampler": 15, "target": {"node": 10, "path": "rotation"}}, {"sampler": 16, "target": {"node": 20, "path": "translation"}}, {"sampler": 17, "target": {"node": 20, "path": "rotation"}}, {"sampler": 18, "target": {"node": 6, "path": "translation"}}, {"sampler": 19, "target": {"node": 6, "path": "rotation"}}, {"sampler": 20, "target": {"node": 5, "path": "translation"}}, {"sampler": 21, "target": {"node": 5, "path": "rotation"}}, {"sampler": 22, "target": {"node": 4, "path": "translation"}}, {"sampler": 23, "target": {"node": 4, "path": "rotation"}}, {"sampler": 24, "target": {"node": 9, "path": "translation"}}, {"sampler": 25, "target": {"node": 9, "path": "rotation"}}, {"sampler": 26, "target": {"node": 1, "path": "translation"}}, {"sampler": 27, "target": {"node": 1, "path": "rotation"}}, {"sampler": 28, "target": {"node": 11, "path": "translation"}}, {"sampler": 29, "target": {"node": 11, "path": "rotation"}}, {"sampler": 30, "target": {"node": 12, "path": "translation"}}, {"sampler": 31, "target": {"node": 12, "path": "rotation"}}, {"sampler": 32, "target": {"node": 15, "path": "translation"}}, {"sampler": 33, "target": {"node": 15, "path": "rotation"}}, {"sampler": 34, "target": {"node": 18, "path": "translation"}}, {"sampler": 35, "target": {"node": 18, "path": "rotation"}}, {"sampler": 36, "target": {"node": 21, "path": "translation"}}, {"sampler": 37, "target": {"node": 21, "path": "rotation"}}, {"sampler": 38, "target": {"node": 0, "path": "translation"}}, {"sampler": 39, "target": {"node": 0, "path": "rotation"}}, {"sampler": 40, "target": {"node": 16, "path": "translation"}}, {"sampler": 41, "target": {"node": 16, "path": "rotation"}}, {"sampler": 42, "target": {"node": 2, "path": "translation"}}, {"sampler": 43, "target": {"node": 2, "path": "rotation"}}, {"sampler": 44, "target": {"node": 22, "path": "translation"}}, {"sampler": 45, "target": {"node": 22, "path": "rotation"}}]}]}