{"asset": {"generator": "Khronos glTF Blender I/O v1.7.33", "version": "2.0"}, "scene": 0, "scenes": [{"name": "Scene", "nodes": [32]}], "nodes": [{"name": "handslot.l", "rotation": [1.6806123159796016e-09, 1.6806122049572991e-09, -0.7071068286895752, 0.7071067094802856], "scale": [0.9999999403953552, 1, 0.9999999403953552], "translation": [5.138920400327152e-10, 0.09612506628036499, -0.05750012397766113]}, {"children": [0], "name": "hand.l", "rotation": [1.2001638571845774e-09, 1.358929182515567e-07, -5.455195605463814e-06, 1], "scale": [1, 0.9999999403953552, 0.9999999403953552], "translation": [9.054978988842777e-13, 0.07382583618164062, -2.220446049250313e-16]}, {"children": [1], "name": "wrist.l", "rotation": [5.118455659314236e-11, -3.0774255366239345e-10, 0.02665809914469719, 0.9996446967124939], "scale": [0.9999999403953552, 0.9999999403953552, 0.9999999403953552], "translation": [7.426281811717672e-09, 0.26004382967948914, 6.127964108371131e-11]}, {"children": [2], "name": "lowerarm.l", "rotation": [1.4942596049394297e-09, -6.228115267958856e-08, -0.05528552085161209, 0.9984706044197083], "scale": [1.000000238418579, 0.9999998807907104, 0.9999999403953552], "translation": [-3.219664312936743e-09, 0.24189729988574982, -1.1940561250867177e-07]}, {"children": [3], "name": "upperarm.l", "rotation": [-0.5141214728355408, -0.485467791557312, -0.4854677617549896, 0.5141218900680542], "scale": [0.9999993443489075, 0.9999993443489075, 0.9999997615814209], "translation": [0.21200737357139587, 0.13413214683532715, 8.40246201505579e-08]}, {"name": "handslot.r", "rotation": [1.6805922209428559e-09, -1.6805921099205534e-09, 0.7071068286895752, 0.7071067094802856], "scale": [0.9999999403953552, 1, 0.9999999403953552], "translation": [-5.138920400327152e-10, 0.09612506628036499, -0.05750012397766113]}, {"children": [5], "name": "hand.r", "rotation": [1.199916277450086e-09, -9.210968698880606e-08, 5.455195605463814e-06, 1], "scale": [1, 0.9999999403953552, 0.9999999403953552], "translation": [3.9968028886505635e-15, 0.07382583618164062, -2.220446049250313e-16]}, {"children": [6], "name": "wrist.r", "rotation": [5.11842720984923e-11, 3.0773722459187525e-10, -0.02665809914469719, 0.9996446967124939], "scale": [0.9999999403953552, 0.9999999403953552, 0.9999999403953552], "translation": [-7.426281811717672e-09, 0.26004382967948914, 6.127964108371131e-11]}, {"children": [7], "name": "lowerarm.r", "rotation": [1.4942596049394297e-09, 6.228115267958856e-08, 0.05528552085161209, 0.9984706044197083], "scale": [1.000000238418579, 0.9999998807907104, 0.9999999403953552], "translation": [-7.12192249618937e-11, 0.2418973296880722, -1.1940561250867177e-07]}, {"children": [8], "name": "upperarm.r", "rotation": [-0.514121413230896, 0.48546773195266724, 0.4854677617549896, 0.514121949672699], "scale": [0.9999993443489075, 0.9999993443489075, 0.9999997615814209], "translation": [-0.21200737357139587, 0.13413214683532715, 8.40246201505579e-08]}, {"name": "head", "rotation": [0, 4.235164736271502e-22, 0, 1], "translation": [0, 0.26879656314849854, 0]}, {"children": [4, 9, 10], "name": "chest", "rotation": [0, -8.470329472543003e-22, 0, 1], "scale": [1, 0.9999999403953552, 1], "translation": [0, 0.37498795986175537, 0]}, {"children": [11], "name": "spine", "rotation": [0, 7.105427357601002e-15, 0, 1], "translation": [0, 0.19197750091552734, 0]}, {"name": "toes.r", "rotation": [2.1219815238282536e-08, 0.920354962348938, -0.39108410477638245, 6.450591172324494e-08], "scale": [1, 0.9999966025352478, 1.000003695487976], "translation": [2.1323326437894252e-10, 0.16565002501010895, 5.1714001969571655e-09]}, {"children": [13], "name": "foot.r", "rotation": [-0.45523902773857117, 1.659820298982595e-07, 2.250484687493781e-09, 0.8903692960739136], "scale": [1, 1.0000008344650269, 0.9999987483024597], "translation": [-1.833922180782821e-10, 0.14943702518939972, 9.65878599323844e-10]}, {"children": [14], "name": "lowerleg.r", "rotation": [0.1062251403927803, -6.865229096320036e-08, 7.377025923460678e-08, 0.9943422079086304], "scale": [1, 1.0000004768371582, 1.0000001192092896], "translation": [-3.57975737941274e-09, 0.22707749903202057, -6.140325137238278e-09]}, {"children": [15], "name": "upperleg.r", "rotation": [0.9998490810394287, 7.426572778967966e-08, -3.172628026959501e-08, 0.017373191192746162], "scale": [1, 0.9999998211860657, 1.0000011920928955], "translation": [-0.17094506323337555, 0.11358726024627686, 1.392327231286572e-08]}, {"name": "toes.l", "rotation": [4.775987960670136e-08, 0.920354962348938, -0.39108410477638245, 5.801560831741881e-08], "scale": [1, 0.9999966025352478, 1.000003695487976], "translation": [-1.5114396845206102e-08, 0.16565002501010895, 5.171392203351388e-09]}, {"children": [17], "name": "foot.l", "rotation": [-0.45523902773857117, 1.6197549967955638e-08, -3.4356396838575165e-08, 0.8903692960739136], "scale": [1, 1.0000008344650269, 0.9999987483024597], "translation": [1.833934670791848e-10, 0.14943702518939972, 9.65873825364838e-10]}, {"children": [18], "name": "lowerleg.l", "rotation": [0.1062251403927803, 6.865227675234564e-08, -7.377025923460678e-08, 0.9943422079086304], "scale": [1, 1.0000004768371582, 1.0000001192092896], "translation": [3.57975737941274e-09, 0.22707749903202057, -6.140325137238278e-09]}, {"children": [19], "name": "upperleg.l", "rotation": [0.9998490810394287, -7.132765489359372e-08, -1.2042731256656225e-08, 0.017373191192746162], "scale": [1, 0.9999998211860657, 1.0000011920928955], "translation": [0.17094506323337555, 0.11358726024627686, 1.392327231286572e-08]}, {"children": [12, 16, 20], "name": "hips", "rotation": [0, -1.1920927533992653e-07, 0, 1], "translation": [0, 0.4056634306907654, 0]}, {"children": [21], "name": "root", "rotation": [0, 1.1920927533992653e-07, 0, 1]}, {"mesh": 0, "name": "Knight_ArmLeft", "skin": 0}, {"mesh": 1, "name": "Knight_ArmRight", "skin": 0}, {"mesh": 2, "name": "Knight_Body", "skin": 0}, {"mesh": 3, "name": "Knight_Cape", "skin": 0}, {"mesh": 4, "name": "Knight_Head", "skin": 0}, {"mesh": 5, "name": "Knight_Helmet", "skin": 0}, {"mesh": 6, "name": "Knight_HelmetVisor", "skin": 0}, {"mesh": 7, "name": "Knight_LegLeft", "skin": 0}, {"mesh": 8, "name": "Knight_LegRight", "skin": 0}, {"children": [23, 24, 25, 26, 27, 28, 29, 30, 31, 22], "name": "Rig_Medium", "scale": [0.6684743859533311, 0.6684743859533311, 0.6684743859533311]}], "materials": [{"doubleSided": true, "name": "knight", "pbrMetallicRoughness": {"baseColorTexture": {"index": 0}, "metallicFactor": 0, "roughnessFactor": 0.5}}], "meshes": [{"name": "Knight_ArmLeft", "primitives": [{"attributes": {"POSITION": 0, "NORMAL": 1, "TEXCOORD_0": 2, "JOINTS_0": 3, "WEIGHTS_0": 4}, "indices": 5, "material": 0}]}, {"name": "Knight_ArmRight", "primitives": [{"attributes": {"POSITION": 7, "NORMAL": 8, "TEXCOORD_0": 9, "JOINTS_0": 10, "WEIGHTS_0": 11}, "indices": 12, "material": 0}]}, {"name": "Knight_Body", "primitives": [{"attributes": {"POSITION": 13, "NORMAL": 14, "TEXCOORD_0": 15, "JOINTS_0": 16, "WEIGHTS_0": 17}, "indices": 18, "material": 0}]}, {"name": "Knight_Cape", "primitives": [{"attributes": {"POSITION": 19, "NORMAL": 20, "TEXCOORD_0": 21, "JOINTS_0": 22, "WEIGHTS_0": 23}, "indices": 24, "material": 0}]}, {"name": "Knight_Head", "primitives": [{"attributes": {"POSITION": 25, "NORMAL": 26, "TEXCOORD_0": 27, "JOINTS_0": 28, "WEIGHTS_0": 29}, "indices": 30, "material": 0}]}, {"name": "Knight_Helmet", "primitives": [{"attributes": {"POSITION": 31, "NORMAL": 32, "TEXCOORD_0": 33, "JOINTS_0": 34, "WEIGHTS_0": 35}, "indices": 36, "material": 0}]}, {"name": "Knight_HelmetVisor", "primitives": [{"attributes": {"POSITION": 37, "NORMAL": 38, "TEXCOORD_0": 39, "JOINTS_0": 40, "WEIGHTS_0": 41}, "indices": 42, "material": 0}]}, {"name": "Knight_LegLeft", "primitives": [{"attributes": {"POSITION": 43, "NORMAL": 44, "TEXCOORD_0": 45, "JOINTS_0": 46, "WEIGHTS_0": 47}, "indices": 48, "material": 0}]}, {"name": "Knight_LegRight", "primitives": [{"attributes": {"POSITION": 49, "NORMAL": 50, "TEXCOORD_0": 51, "JOINTS_0": 52, "WEIGHTS_0": 53}, "indices": 54, "material": 0}]}], "textures": [{"sampler": 1, "source": 0}], "images": [{"uri": "knight.png"}], "skins": [{"inverseBindMatrices": 6, "joints": [22, 21, 12, 11, 4, 3, 2, 1, 0, 9, 8, 7, 6, 5, 10, 16, 15, 14, 13, 20, 19, 18, 17], "name": "Rig_Medium"}], "accessors": [{"bufferView": 0, "componentType": 5126, "count": 514, "max": [0.9712533354759216, 1.271857500076294, 0.14215171337127686], "min": [0.05208217352628708, 0.9753050208091736, -0.16858598589897156], "type": "VEC3"}, {"bufferView": 1, "componentType": 5126, "count": 514, "type": "VEC3"}, {"bufferView": 2, "componentType": 5126, "count": 514, "type": "VEC2"}, {"bufferView": 3, "componentType": 5121, "count": 514, "type": "VEC4"}, {"bufferView": 4, "componentType": 5126, "count": 514, "type": "VEC4"}, {"bufferView": 5, "componentType": 5123, "count": 1866, "type": "SCALAR"}, {"bufferView": 6, "componentType": 5126, "count": 23, "type": "MAT4"}, {"bufferView": 7, "componentType": 5126, "count": 514, "max": [-0.05208217352628708, 1.271857500076294, 0.14215171337127686], "min": [-0.9712533354759216, 0.9753050208091736, -0.16858598589897156], "type": "VEC3"}, {"bufferView": 8, "componentType": 5126, "count": 514, "type": "VEC3"}, {"bufferView": 9, "componentType": 5126, "count": 514, "type": "VEC2"}, {"bufferView": 10, "componentType": 5121, "count": 514, "type": "VEC4"}, {"bufferView": 11, "componentType": 5126, "count": 514, "type": "VEC4"}, {"bufferView": 12, "componentType": 5123, "count": 1866, "type": "SCALAR"}, {"bufferView": 13, "componentType": 5126, "count": 1340, "max": [0.3949020802974701, 1.3008270263671875, 0.36555495858192444], "min": [-0.394856333732605, 0.37639951705932617, -0.4132102429866791], "type": "VEC3"}, {"bufferView": 14, "componentType": 5126, "count": 1340, "type": "VEC3"}, {"bufferView": 15, "componentType": 5126, "count": 1340, "type": "VEC2"}, {"bufferView": 16, "componentType": 5121, "count": 1340, "type": "VEC4"}, {"bufferView": 17, "componentType": 5126, "count": 1340, "type": "VEC4"}, {"bufferView": 18, "componentType": 5123, "count": 3864, "type": "SCALAR"}, {"bufferView": 19, "componentType": 5126, "count": 56, "max": [0.4853890538215637, 1.23599112033844, -0.043505046516656876], "min": [-0.4853677749633789, 0.09404635429382324, -0.3860939145088196], "type": "VEC3"}, {"bufferView": 20, "componentType": 5126, "count": 56, "type": "VEC3"}, {"bufferView": 21, "componentType": 5126, "count": 56, "type": "VEC2"}, {"bufferView": 22, "componentType": 5121, "count": 56, "type": "VEC4"}, {"bufferView": 23, "componentType": 5126, "count": 56, "type": "VEC4"}, {"bufferView": 24, "componentType": 5123, "count": 252, "type": "SCALAR"}, {"bufferView": 25, "componentType": 5126, "count": 770, "max": [0.5431873798370361, 2.2841858863830566, 0.5317936539649963], "min": [-0.5431593060493469, 1.2158912420272827, -0.4820896089076996], "type": "VEC3"}, {"bufferView": 26, "componentType": 5126, "count": 770, "type": "VEC3"}, {"bufferView": 27, "componentType": 5126, "count": 770, "type": "VEC2"}, {"bufferView": 28, "componentType": 5121, "count": 770, "type": "VEC4"}, {"bufferView": 29, "componentType": 5126, "count": 770, "type": "VEC4"}, {"bufferView": 30, "componentType": 5123, "count": 3246, "type": "SCALAR"}, {"bufferView": 31, "componentType": 5126, "count": 485, "max": [0.5694972276687622, 2.397871971130371, 0.5976923108100891], "min": [-0.5694972276687622, 1.0984070301055908, -0.5421847701072693], "type": "VEC3"}, {"bufferView": 32, "componentType": 5126, "count": 485, "type": "VEC3"}, {"bufferView": 33, "componentType": 5126, "count": 485, "type": "VEC2"}, {"bufferView": 34, "componentType": 5121, "count": 485, "type": "VEC4"}, {"bufferView": 35, "componentType": 5126, "count": 485, "type": "VEC4"}, {"bufferView": 36, "componentType": 5123, "count": 1254, "type": "SCALAR"}, {"bufferView": 37, "componentType": 5126, "count": 477, "max": [0.6085173487663269, 2.5431041717529297, 0.7655929327011108], "min": [-0.6087942719459534, 1.6522400379180908, -0.0850570872426033], "type": "VEC3"}, {"bufferView": 38, "componentType": 5126, "count": 477, "type": "VEC3"}, {"bufferView": 39, "componentType": 5126, "count": 477, "type": "VEC2"}, {"bufferView": 40, "componentType": 5121, "count": 477, "type": "VEC4"}, {"bufferView": 41, "componentType": 5126, "count": 477, "type": "VEC4"}, {"bufferView": 42, "componentType": 5123, "count": 1284, "type": "SCALAR"}, {"bufferView": 43, "componentType": 5126, "count": 586, "max": [0.29169049859046936, 0.5291943550109863, 0.29342007637023926], "min": [0.04565126448869705, -5.566490046682304e-10, -0.13297587633132935], "type": "VEC3"}, {"bufferView": 44, "componentType": 5126, "count": 586, "type": "VEC3"}, {"bufferView": 45, "componentType": 5126, "count": 586, "type": "VEC2"}, {"bufferView": 46, "componentType": 5121, "count": 586, "type": "VEC4"}, {"bufferView": 47, "componentType": 5126, "count": 586, "type": "VEC4"}, {"bufferView": 48, "componentType": 5123, "count": 1884, "type": "SCALAR"}, {"bufferView": 49, "componentType": 5126, "count": 586, "max": [-0.04564468562602997, 0.5291943550109863, 0.29342007637023926], "min": [-0.29168394207954407, -5.566490046682304e-10, -0.13297587633132935], "type": "VEC3"}, {"bufferView": 50, "componentType": 5126, "count": 586, "type": "VEC3"}, {"bufferView": 51, "componentType": 5126, "count": 586, "type": "VEC2"}, {"bufferView": 52, "componentType": 5121, "count": 586, "type": "VEC4"}, {"bufferView": 53, "componentType": 5126, "count": 586, "type": "VEC4"}, {"bufferView": 54, "componentType": 5123, "count": 1884, "type": "SCALAR"}, {"bufferView": 55, "componentType": 5126, "count": 33, "type": "SCALAR", "min": [0], "max": [1.0666666666666667]}, {"bufferView": 56, "componentType": 5126, "count": 33, "type": "VEC3"}, {"bufferView": 57, "componentType": 5126, "count": 33, "type": "SCALAR", "min": [0], "max": [1.0666666666666667]}, {"bufferView": 58, "componentType": 5126, "count": 33, "type": "VEC4"}, {"bufferView": 59, "componentType": 5126, "count": 2, "type": "SCALAR", "min": [0], "max": [1.0666666666666667]}, {"bufferView": 60, "componentType": 5126, "count": 2, "type": "VEC3"}, {"bufferView": 61, "componentType": 5126, "count": 33, "type": "SCALAR", "min": [0], "max": [1.0666666666666667]}, {"bufferView": 62, "componentType": 5126, "count": 33, "type": "VEC4"}, {"bufferView": 63, "componentType": 5126, "count": 2, "type": "SCALAR", "min": [0], "max": [1.0666666666666667]}, {"bufferView": 64, "componentType": 5126, "count": 2, "type": "VEC3"}, {"bufferView": 65, "componentType": 5126, "count": 33, "type": "SCALAR", "min": [0], "max": [1.0666666666666667]}, {"bufferView": 66, "componentType": 5126, "count": 33, "type": "VEC4"}, {"bufferView": 67, "componentType": 5126, "count": 2, "type": "SCALAR", "min": [0], "max": [1.0666666666666667]}, {"bufferView": 68, "componentType": 5126, "count": 2, "type": "VEC3"}, {"bufferView": 69, "componentType": 5126, "count": 33, "type": "SCALAR", "min": [0], "max": [1.0666666666666667]}, {"bufferView": 70, "componentType": 5126, "count": 33, "type": "VEC4"}, {"bufferView": 71, "componentType": 5126, "count": 2, "type": "SCALAR", "min": [0], "max": [1.0666666666666667]}, {"bufferView": 72, "componentType": 5126, "count": 2, "type": "VEC3"}, {"bufferView": 73, "componentType": 5126, "count": 33, "type": "SCALAR", "min": [0], "max": [1.0666666666666667]}, {"bufferView": 74, "componentType": 5126, "count": 33, "type": "VEC4"}, {"bufferView": 75, "componentType": 5126, "count": 2, "type": "SCALAR", "min": [0], "max": [1.0666666666666667]}, {"bufferView": 76, "componentType": 5126, "count": 2, "type": "VEC3"}, {"bufferView": 77, "componentType": 5126, "count": 33, "type": "SCALAR", "min": [0], "max": [1.0666666666666667]}, {"bufferView": 78, "componentType": 5126, "count": 33, "type": "VEC4"}, {"bufferView": 79, "componentType": 5126, "count": 2, "type": "SCALAR", "min": [0], "max": [1.0666666666666667]}, {"bufferView": 80, "componentType": 5126, "count": 2, "type": "VEC3"}, {"bufferView": 81, "componentType": 5126, "count": 2, "type": "SCALAR", "min": [0], "max": [1.0666666666666667]}, {"bufferView": 82, "componentType": 5126, "count": 2, "type": "VEC4"}, {"bufferView": 83, "componentType": 5126, "count": 2, "type": "SCALAR", "min": [0], "max": [1.0666666666666667]}, {"bufferView": 84, "componentType": 5126, "count": 2, "type": "VEC3"}, {"bufferView": 85, "componentType": 5126, "count": 33, "type": "SCALAR", "min": [0], "max": [1.0666666666666667]}, {"bufferView": 86, "componentType": 5126, "count": 33, "type": "VEC4"}, {"bufferView": 87, "componentType": 5126, "count": 2, "type": "SCALAR", "min": [0], "max": [1.0666666666666667]}, {"bufferView": 88, "componentType": 5126, "count": 2, "type": "VEC3"}, {"bufferView": 89, "componentType": 5126, "count": 33, "type": "SCALAR", "min": [0], "max": [1.0666666666666667]}, {"bufferView": 90, "componentType": 5126, "count": 33, "type": "VEC4"}, {"bufferView": 91, "componentType": 5126, "count": 2, "type": "SCALAR", "min": [0], "max": [1.0666666666666667]}, {"bufferView": 92, "componentType": 5126, "count": 2, "type": "VEC3"}, {"bufferView": 93, "componentType": 5126, "count": 33, "type": "SCALAR", "min": [0], "max": [1.0666666666666667]}, {"bufferView": 94, "componentType": 5126, "count": 33, "type": "VEC4"}, {"bufferView": 95, "componentType": 5126, "count": 2, "type": "SCALAR", "min": [0], "max": [1.0666666666666667]}, {"bufferView": 96, "componentType": 5126, "count": 2, "type": "VEC3"}, {"bufferView": 97, "componentType": 5126, "count": 2, "type": "SCALAR", "min": [0], "max": [1.0666666666666667]}, {"bufferView": 98, "componentType": 5126, "count": 2, "type": "VEC4"}, {"bufferView": 99, "componentType": 5126, "count": 2, "type": "SCALAR", "min": [0], "max": [1.0666666666666667]}, {"bufferView": 100, "componentType": 5126, "count": 2, "type": "VEC3"}, {"bufferView": 101, "componentType": 5126, "count": 33, "type": "SCALAR", "min": [0], "max": [1.0666666666666667]}, {"bufferView": 102, "componentType": 5126, "count": 33, "type": "VEC4"}, {"bufferView": 103, "componentType": 5126, "count": 2, "type": "SCALAR", "min": [0], "max": [1.0666666666666667]}, {"bufferView": 104, "componentType": 5126, "count": 2, "type": "VEC3"}, {"bufferView": 105, "componentType": 5126, "count": 33, "type": "SCALAR", "min": [0], "max": [1.0666666666666667]}, {"bufferView": 106, "componentType": 5126, "count": 33, "type": "VEC4"}, {"bufferView": 107, "componentType": 5126, "count": 2, "type": "SCALAR", "min": [0], "max": [1.0666666666666667]}, {"bufferView": 108, "componentType": 5126, "count": 2, "type": "VEC3"}, {"bufferView": 109, "componentType": 5126, "count": 33, "type": "SCALAR", "min": [0], "max": [1.0666666666666667]}, {"bufferView": 110, "componentType": 5126, "count": 33, "type": "VEC4"}, {"bufferView": 111, "componentType": 5126, "count": 2, "type": "SCALAR", "min": [0], "max": [1.0666666666666667]}, {"bufferView": 112, "componentType": 5126, "count": 2, "type": "VEC3"}, {"bufferView": 113, "componentType": 5126, "count": 33, "type": "SCALAR", "min": [0], "max": [1.0666666666666667]}, {"bufferView": 114, "componentType": 5126, "count": 33, "type": "VEC4"}, {"bufferView": 115, "componentType": 5126, "count": 2, "type": "SCALAR", "min": [0], "max": [1.0666666666666667]}, {"bufferView": 116, "componentType": 5126, "count": 2, "type": "VEC3"}, {"bufferView": 117, "componentType": 5126, "count": 2, "type": "SCALAR", "min": [0], "max": [1.0666666666666667]}, {"bufferView": 118, "componentType": 5126, "count": 2, "type": "VEC4"}, {"bufferView": 119, "componentType": 5126, "count": 2, "type": "SCALAR", "min": [0], "max": [1.0666666666666667]}, {"bufferView": 120, "componentType": 5126, "count": 2, "type": "VEC3"}, {"bufferView": 121, "componentType": 5126, "count": 33, "type": "SCALAR", "min": [0], "max": [1.0666666666666667]}, {"bufferView": 122, "componentType": 5126, "count": 33, "type": "VEC4"}, {"bufferView": 123, "componentType": 5126, "count": 2, "type": "SCALAR", "min": [0], "max": [1.0666666666666667]}, {"bufferView": 124, "componentType": 5126, "count": 2, "type": "VEC3"}, {"bufferView": 125, "componentType": 5126, "count": 33, "type": "SCALAR", "min": [0], "max": [1.0666666666666667]}, {"bufferView": 126, "componentType": 5126, "count": 33, "type": "VEC4"}, {"bufferView": 127, "componentType": 5126, "count": 2, "type": "SCALAR", "min": [0], "max": [1.0666666666666667]}, {"bufferView": 128, "componentType": 5126, "count": 2, "type": "VEC3"}, {"bufferView": 129, "componentType": 5126, "count": 33, "type": "SCALAR", "min": [0], "max": [1.0666666666666667]}, {"bufferView": 130, "componentType": 5126, "count": 33, "type": "VEC4"}, {"bufferView": 131, "componentType": 5126, "count": 2, "type": "SCALAR", "min": [0], "max": [1.0666666666666667]}, {"bufferView": 132, "componentType": 5126, "count": 2, "type": "VEC3"}, {"bufferView": 133, "componentType": 5126, "count": 33, "type": "SCALAR", "min": [0], "max": [1.0666666666666667]}, {"bufferView": 134, "componentType": 5126, "count": 33, "type": "VEC4"}, {"bufferView": 135, "componentType": 5126, "count": 2, "type": "SCALAR", "min": [0], "max": [1.0666666666666667]}, {"bufferView": 136, "componentType": 5126, "count": 2, "type": "VEC3"}, {"bufferView": 137, "componentType": 5126, "count": 33, "type": "SCALAR", "min": [0], "max": [1.0666666666666667]}, {"bufferView": 138, "componentType": 5126, "count": 33, "type": "VEC4"}, {"bufferView": 139, "componentType": 5126, "count": 2, "type": "SCALAR", "min": [0], "max": [1.0666666666666667]}, {"bufferView": 140, "componentType": 5126, "count": 2, "type": "VEC3"}, {"bufferView": 141, "componentType": 5126, "count": 33, "type": "SCALAR", "min": [0], "max": [1.0666666666666667]}, {"bufferView": 142, "componentType": 5126, "count": 33, "type": "VEC4"}, {"bufferView": 143, "componentType": 5126, "count": 2, "type": "SCALAR", "min": [0], "max": [1.0666666666666667]}, {"bufferView": 144, "componentType": 5126, "count": 2, "type": "VEC3"}, {"bufferView": 145, "componentType": 5126, "count": 33, "type": "SCALAR", "min": [0], "max": [1.0666666666666667]}, {"bufferView": 146, "componentType": 5126, "count": 33, "type": "VEC4"}, {"bufferView": 147, "componentType": 5126, "count": 2, "type": "SCALAR", "min": [0], "max": [1.0666666666666667]}, {"bufferView": 148, "componentType": 5126, "count": 2, "type": "VEC3"}, {"bufferView": 149, "componentType": 5126, "count": 33, "type": "SCALAR", "min": [0], "max": [1.0666666666666667]}, {"bufferView": 150, "componentType": 5126, "count": 33, "type": "VEC4"}, {"bufferView": 151, "componentType": 5126, "count": 2, "type": "SCALAR", "min": [0], "max": [1.0666666666666667]}, {"bufferView": 152, "componentType": 5126, "count": 2, "type": "VEC3"}, {"bufferView": 153, "componentType": 5126, "count": 33, "type": "SCALAR", "min": [0], "max": [1.0666666666666667]}, {"bufferView": 154, "componentType": 5126, "count": 33, "type": "VEC4"}, {"bufferView": 155, "componentType": 5126, "count": 2, "type": "SCALAR", "min": [0], "max": [1.0666666666666667]}, {"bufferView": 156, "componentType": 5126, "count": 2, "type": "VEC3"}, {"bufferView": 157, "componentType": 5126, "count": 2, "type": "SCALAR", "min": [0], "max": [1.0666666666666667]}, {"bufferView": 158, "componentType": 5126, "count": 2, "type": "VEC4"}, {"bufferView": 159, "componentType": 5126, "count": 2, "type": "SCALAR", "min": [0], "max": [1.0666666666666667]}, {"bufferView": 160, "componentType": 5126, "count": 2, "type": "VEC3"}, {"bufferView": 161, "componentType": 5126, "count": 33, "type": "SCALAR", "min": [0], "max": [1.0666666666666667]}, {"bufferView": 162, "componentType": 5126, "count": 33, "type": "VEC4"}, {"bufferView": 163, "componentType": 5126, "count": 2, "type": "SCALAR", "min": [0], "max": [1.0666666666666667]}, {"bufferView": 164, "componentType": 5126, "count": 2, "type": "VEC3"}, {"bufferView": 165, "componentType": 5126, "count": 33, "type": "SCALAR", "min": [0], "max": [1.0666666666666667]}, {"bufferView": 166, "componentType": 5126, "count": 33, "type": "VEC4"}, {"bufferView": 167, "componentType": 5126, "count": 2, "type": "SCALAR", "min": [0], "max": [1.0666666666666667]}, {"bufferView": 168, "componentType": 5126, "count": 2, "type": "VEC3"}, {"bufferView": 169, "componentType": 5126, "count": 33, "type": "SCALAR", "min": [0], "max": [1.0666666666666667]}, {"bufferView": 170, "componentType": 5126, "count": 33, "type": "VEC4"}, {"bufferView": 171, "componentType": 5126, "count": 2, "type": "SCALAR", "min": [0], "max": [1.0666666666666667]}, {"bufferView": 172, "componentType": 5126, "count": 2, "type": "VEC3"}, {"bufferView": 173, "componentType": 5126, "count": 33, "type": "SCALAR", "min": [0], "max": [1.0666666666666667]}, {"bufferView": 174, "componentType": 5126, "count": 33, "type": "VEC4"}, {"bufferView": 175, "componentType": 5126, "count": 2, "type": "SCALAR", "min": [0], "max": [1.0666666666666667]}, {"bufferView": 176, "componentType": 5126, "count": 2, "type": "VEC3"}, {"bufferView": 177, "componentType": 5126, "count": 33, "type": "SCALAR", "min": [0], "max": [1.0666666666666667]}, {"bufferView": 178, "componentType": 5126, "count": 33, "type": "VEC4"}, {"bufferView": 179, "componentType": 5126, "count": 33, "type": "SCALAR", "min": [0], "max": [1.0666666666666667]}, {"bufferView": 180, "componentType": 5126, "count": 33, "type": "VEC3"}, {"bufferView": 181, "componentType": 5126, "count": 33, "type": "SCALAR", "min": [0], "max": [1.0666666666666667]}, {"bufferView": 182, "componentType": 5126, "count": 33, "type": "VEC4"}, {"bufferView": 183, "componentType": 5126, "count": 2, "type": "SCALAR", "min": [0], "max": [1.0666666666666667]}, {"bufferView": 184, "componentType": 5126, "count": 2, "type": "VEC3"}, {"bufferView": 185, "componentType": 5126, "count": 2, "type": "SCALAR", "min": [0], "max": [1.0666666666666667]}, {"bufferView": 186, "componentType": 5126, "count": 2, "type": "VEC4"}, {"bufferView": 187, "componentType": 5126, "count": 2, "type": "SCALAR", "min": [0], "max": [1.0666666666666667]}, {"bufferView": 188, "componentType": 5126, "count": 2, "type": "VEC3"}, {"bufferView": 189, "componentType": 5126, "count": 2, "type": "SCALAR", "min": [0], "max": [1.0666666666666667]}, {"bufferView": 190, "componentType": 5126, "count": 2, "type": "VEC4"}, {"bufferView": 191, "componentType": 5126, "count": 2, "type": "SCALAR", "min": [0], "max": [1.0666666666666667]}, {"bufferView": 192, "componentType": 5126, "count": 2, "type": "VEC3"}, {"bufferView": 193, "componentType": 5126, "count": 33, "type": "SCALAR", "min": [0], "max": [1.0666666666666667]}, {"bufferView": 194, "componentType": 5126, "count": 33, "type": "VEC4"}, {"bufferView": 195, "componentType": 5126, "count": 2, "type": "SCALAR", "min": [0], "max": [1.0666666666666667]}, {"bufferView": 196, "componentType": 5126, "count": 2, "type": "VEC3"}, {"bufferView": 197, "componentType": 5126, "count": 33, "type": "SCALAR", "min": [0], "max": [1.0666666666666667]}, {"bufferView": 198, "componentType": 5126, "count": 33, "type": "VEC4"}, {"bufferView": 199, "componentType": 5126, "count": 2, "type": "SCALAR", "min": [0], "max": [1.0666666666666667]}, {"bufferView": 200, "componentType": 5126, "count": 2, "type": "VEC3"}, {"bufferView": 201, "componentType": 5126, "count": 33, "type": "SCALAR", "min": [0], "max": [1.0666666666666667]}, {"bufferView": 202, "componentType": 5126, "count": 33, "type": "VEC4"}, {"bufferView": 203, "componentType": 5126, "count": 2, "type": "SCALAR", "min": [0], "max": [1.0666666666666667]}, {"bufferView": 204, "componentType": 5126, "count": 2, "type": "VEC3"}, {"bufferView": 205, "componentType": 5126, "count": 33, "type": "SCALAR", "min": [0], "max": [1.0666666666666667]}, {"bufferView": 206, "componentType": 5126, "count": 33, "type": "VEC4"}, {"bufferView": 207, "componentType": 5126, "count": 2, "type": "SCALAR", "min": [0], "max": [1.0666666666666667]}, {"bufferView": 208, "componentType": 5126, "count": 2, "type": "VEC3"}, {"bufferView": 209, "componentType": 5126, "count": 33, "type": "SCALAR", "min": [0], "max": [1.0666666666666667]}, {"bufferView": 210, "componentType": 5126, "count": 33, "type": "VEC4"}, {"bufferView": 211, "componentType": 5126, "count": 2, "type": "SCALAR", "min": [0], "max": [1.0666666666666667]}, {"bufferView": 212, "componentType": 5126, "count": 2, "type": "VEC3"}, {"bufferView": 213, "componentType": 5126, "count": 33, "type": "SCALAR", "min": [0], "max": [1.0666666666666667]}, {"bufferView": 214, "componentType": 5126, "count": 33, "type": "VEC4"}, {"bufferView": 215, "componentType": 5126, "count": 2, "type": "SCALAR", "min": [0], "max": [1.0666666666666667]}, {"bufferView": 216, "componentType": 5126, "count": 2, "type": "VEC3"}, {"bufferView": 217, "componentType": 5126, "count": 33, "type": "SCALAR", "min": [0], "max": [1.0666666666666667]}, {"bufferView": 218, "componentType": 5126, "count": 33, "type": "VEC4"}, {"bufferView": 219, "componentType": 5126, "count": 33, "type": "SCALAR", "min": [0], "max": [1.0666666666666667]}, {"bufferView": 220, "componentType": 5126, "count": 33, "type": "VEC3"}, {"bufferView": 221, "componentType": 5126, "count": 2, "type": "SCALAR", "min": [0], "max": [1.0666666666666667]}, {"bufferView": 222, "componentType": 5126, "count": 2, "type": "VEC4"}, {"bufferView": 223, "componentType": 5126, "count": 2, "type": "SCALAR", "min": [0], "max": [1.0666666666666667]}, {"bufferView": 224, "componentType": 5126, "count": 2, "type": "VEC3"}, {"bufferView": 225, "componentType": 5126, "count": 2, "type": "SCALAR", "min": [0], "max": [1.0666666666666667]}, {"bufferView": 226, "componentType": 5126, "count": 2, "type": "VEC4"}, {"bufferView": 227, "componentType": 5126, "count": 33, "type": "SCALAR", "min": [0], "max": [1.0666666666666667]}, {"bufferView": 228, "componentType": 5126, "count": 33, "type": "VEC3"}, {"bufferView": 229, "componentType": 5126, "count": 33, "type": "SCALAR", "min": [0], "max": [1.0666666666666667]}, {"bufferView": 230, "componentType": 5126, "count": 33, "type": "VEC4"}, {"bufferView": 231, "componentType": 5126, "count": 2, "type": "SCALAR", "min": [0], "max": [1.0666666666666667]}, {"bufferView": 232, "componentType": 5126, "count": 2, "type": "VEC3"}, {"bufferView": 233, "componentType": 5126, "count": 2, "type": "SCALAR", "min": [0], "max": [1.0666666666666667]}, {"bufferView": 234, "componentType": 5126, "count": 2, "type": "VEC4"}, {"bufferView": 235, "componentType": 5126, "count": 2, "type": "SCALAR", "min": [0], "max": [1.0666666666666667]}, {"bufferView": 236, "componentType": 5126, "count": 2, "type": "VEC3"}, {"bufferView": 237, "componentType": 5126, "count": 2, "type": "SCALAR", "min": [0], "max": [1.0666666666666667]}, {"bufferView": 238, "componentType": 5126, "count": 2, "type": "VEC4"}, {"bufferView": 239, "componentType": 5126, "count": 2, "type": "SCALAR", "min": [0], "max": [0.8]}, {"bufferView": 240, "componentType": 5126, "count": 2, "type": "VEC3"}, {"bufferView": 241, "componentType": 5126, "count": 25, "type": "SCALAR", "min": [0], "max": [0.8]}, {"bufferView": 242, "componentType": 5126, "count": 25, "type": "VEC4"}, {"bufferView": 243, "componentType": 5126, "count": 2, "type": "SCALAR", "min": [0], "max": [0.8]}, {"bufferView": 244, "componentType": 5126, "count": 2, "type": "VEC3"}, {"bufferView": 245, "componentType": 5126, "count": 25, "type": "SCALAR", "min": [0], "max": [0.8]}, {"bufferView": 246, "componentType": 5126, "count": 25, "type": "VEC4"}, {"bufferView": 247, "componentType": 5126, "count": 2, "type": "SCALAR", "min": [0], "max": [0.8]}, {"bufferView": 248, "componentType": 5126, "count": 2, "type": "VEC3"}, {"bufferView": 249, "componentType": 5126, "count": 2, "type": "SCALAR", "min": [0], "max": [0.8]}, {"bufferView": 250, "componentType": 5126, "count": 2, "type": "VEC4"}, {"bufferView": 251, "componentType": 5126, "count": 2, "type": "SCALAR", "min": [0], "max": [0.8]}, {"bufferView": 252, "componentType": 5126, "count": 2, "type": "VEC3"}, {"bufferView": 253, "componentType": 5126, "count": 25, "type": "SCALAR", "min": [0], "max": [0.8]}, {"bufferView": 254, "componentType": 5126, "count": 25, "type": "VEC4"}, {"bufferView": 255, "componentType": 5126, "count": 2, "type": "SCALAR", "min": [0], "max": [0.8]}, {"bufferView": 256, "componentType": 5126, "count": 2, "type": "VEC3"}, {"bufferView": 257, "componentType": 5126, "count": 25, "type": "SCALAR", "min": [0], "max": [0.8]}, {"bufferView": 258, "componentType": 5126, "count": 25, "type": "VEC4"}, {"bufferView": 259, "componentType": 5126, "count": 2, "type": "SCALAR", "min": [0], "max": [0.8]}, {"bufferView": 260, "componentType": 5126, "count": 2, "type": "VEC3"}, {"bufferView": 261, "componentType": 5126, "count": 25, "type": "SCALAR", "min": [0], "max": [0.8]}, {"bufferView": 262, "componentType": 5126, "count": 25, "type": "VEC4"}, {"bufferView": 263, "componentType": 5126, "count": 2, "type": "SCALAR", "min": [0], "max": [0.8]}, {"bufferView": 264, "componentType": 5126, "count": 2, "type": "VEC3"}, {"bufferView": 265, "componentType": 5126, "count": 25, "type": "SCALAR", "min": [0], "max": [0.8]}, {"bufferView": 266, "componentType": 5126, "count": 25, "type": "VEC4"}, {"bufferView": 267, "componentType": 5126, "count": 25, "type": "SCALAR", "min": [0], "max": [0.8]}, {"bufferView": 268, "componentType": 5126, "count": 25, "type": "VEC3"}, {"bufferView": 269, "componentType": 5126, "count": 25, "type": "SCALAR", "min": [0], "max": [0.8]}, {"bufferView": 270, "componentType": 5126, "count": 25, "type": "VEC4"}, {"bufferView": 271, "componentType": 5126, "count": 25, "type": "SCALAR", "min": [0], "max": [0.8]}, {"bufferView": 272, "componentType": 5126, "count": 25, "type": "VEC3"}, {"bufferView": 273, "componentType": 5126, "count": 25, "type": "SCALAR", "min": [0], "max": [0.8]}, {"bufferView": 274, "componentType": 5126, "count": 25, "type": "VEC4"}, {"bufferView": 275, "componentType": 5126, "count": 2, "type": "SCALAR", "min": [0], "max": [0.8]}, {"bufferView": 276, "componentType": 5126, "count": 2, "type": "VEC3"}, {"bufferView": 277, "componentType": 5126, "count": 2, "type": "SCALAR", "min": [0], "max": [0.8]}, {"bufferView": 278, "componentType": 5126, "count": 2, "type": "VEC4"}, {"bufferView": 279, "componentType": 5126, "count": 2, "type": "SCALAR", "min": [0], "max": [0.8]}, {"bufferView": 280, "componentType": 5126, "count": 2, "type": "VEC3"}, {"bufferView": 281, "componentType": 5126, "count": 25, "type": "SCALAR", "min": [0], "max": [0.8]}, {"bufferView": 282, "componentType": 5126, "count": 25, "type": "VEC4"}, {"bufferView": 283, "componentType": 5126, "count": 25, "type": "SCALAR", "min": [0], "max": [0.8]}, {"bufferView": 284, "componentType": 5126, "count": 25, "type": "VEC3"}, {"bufferView": 285, "componentType": 5126, "count": 25, "type": "SCALAR", "min": [0], "max": [0.8]}, {"bufferView": 286, "componentType": 5126, "count": 25, "type": "VEC4"}, {"bufferView": 287, "componentType": 5126, "count": 2, "type": "SCALAR", "min": [0], "max": [0.8]}, {"bufferView": 288, "componentType": 5126, "count": 2, "type": "VEC3"}, {"bufferView": 289, "componentType": 5126, "count": 25, "type": "SCALAR", "min": [0], "max": [0.8]}, {"bufferView": 290, "componentType": 5126, "count": 25, "type": "VEC4"}, {"bufferView": 291, "componentType": 5126, "count": 2, "type": "SCALAR", "min": [0], "max": [0.8]}, {"bufferView": 292, "componentType": 5126, "count": 2, "type": "VEC3"}, {"bufferView": 293, "componentType": 5126, "count": 25, "type": "SCALAR", "min": [0], "max": [0.8]}, {"bufferView": 294, "componentType": 5126, "count": 25, "type": "VEC4"}, {"bufferView": 295, "componentType": 5126, "count": 2, "type": "SCALAR", "min": [0], "max": [0.8]}, {"bufferView": 296, "componentType": 5126, "count": 2, "type": "VEC3"}, {"bufferView": 297, "componentType": 5126, "count": 25, "type": "SCALAR", "min": [0], "max": [0.8]}, {"bufferView": 298, "componentType": 5126, "count": 25, "type": "VEC4"}, {"bufferView": 299, "componentType": 5126, "count": 2, "type": "SCALAR", "min": [0], "max": [0.8]}, {"bufferView": 300, "componentType": 5126, "count": 2, "type": "VEC3"}, {"bufferView": 301, "componentType": 5126, "count": 25, "type": "SCALAR", "min": [0], "max": [0.8]}, {"bufferView": 302, "componentType": 5126, "count": 25, "type": "VEC4"}, {"bufferView": 303, "componentType": 5126, "count": 2, "type": "SCALAR", "min": [0], "max": [0.8]}, {"bufferView": 304, "componentType": 5126, "count": 2, "type": "VEC3"}, {"bufferView": 305, "componentType": 5126, "count": 25, "type": "SCALAR", "min": [0], "max": [0.8]}, {"bufferView": 306, "componentType": 5126, "count": 25, "type": "VEC4"}, {"bufferView": 307, "componentType": 5126, "count": 2, "type": "SCALAR", "min": [0], "max": [0.8]}, {"bufferView": 308, "componentType": 5126, "count": 2, "type": "VEC3"}, {"bufferView": 309, "componentType": 5126, "count": 25, "type": "SCALAR", "min": [0], "max": [0.8]}, {"bufferView": 310, "componentType": 5126, "count": 25, "type": "VEC4"}, {"bufferView": 311, "componentType": 5126, "count": 25, "type": "SCALAR", "min": [0], "max": [0.8]}, {"bufferView": 312, "componentType": 5126, "count": 25, "type": "VEC3"}, {"bufferView": 313, "componentType": 5126, "count": 25, "type": "SCALAR", "min": [0], "max": [0.8]}, {"bufferView": 314, "componentType": 5126, "count": 25, "type": "VEC4"}, {"bufferView": 315, "componentType": 5126, "count": 2, "type": "SCALAR", "min": [0], "max": [0.8]}, {"bufferView": 316, "componentType": 5126, "count": 2, "type": "VEC3"}, {"bufferView": 317, "componentType": 5126, "count": 2, "type": "SCALAR", "min": [0], "max": [0.8]}, {"bufferView": 318, "componentType": 5126, "count": 2, "type": "VEC4"}, {"bufferView": 319, "componentType": 5126, "count": 25, "type": "SCALAR", "min": [0], "max": [0.8]}, {"bufferView": 320, "componentType": 5126, "count": 25, "type": "VEC3"}, {"bufferView": 321, "componentType": 5126, "count": 25, "type": "SCALAR", "min": [0], "max": [0.8]}, {"bufferView": 322, "componentType": 5126, "count": 25, "type": "VEC4"}, {"bufferView": 323, "componentType": 5126, "count": 2, "type": "SCALAR", "min": [0], "max": [0.8]}, {"bufferView": 324, "componentType": 5126, "count": 2, "type": "VEC3"}, {"bufferView": 325, "componentType": 5126, "count": 2, "type": "SCALAR", "min": [0], "max": [0.8]}, {"bufferView": 326, "componentType": 5126, "count": 2, "type": "VEC4"}, {"bufferView": 327, "componentType": 5126, "count": 2, "type": "SCALAR", "min": [0], "max": [0.8]}, {"bufferView": 328, "componentType": 5126, "count": 2, "type": "VEC3"}, {"bufferView": 329, "componentType": 5126, "count": 2, "type": "SCALAR", "min": [0], "max": [0.8]}, {"bufferView": 330, "componentType": 5126, "count": 2, "type": "VEC4"}, {"bufferView": 331, "componentType": 5126, "count": 2, "type": "SCALAR", "min": [0], "max": [1.0666666666666667]}, {"bufferView": 332, "componentType": 5126, "count": 2, "type": "VEC3"}, {"bufferView": 333, "componentType": 5126, "count": 33, "type": "SCALAR", "min": [0], "max": [1.0666666666666667]}, {"bufferView": 334, "componentType": 5126, "count": 33, "type": "VEC4"}, {"bufferView": 335, "componentType": 5126, "count": 2, "type": "SCALAR", "min": [0], "max": [1.0666666666666667]}, {"bufferView": 336, "componentType": 5126, "count": 2, "type": "VEC3"}, {"bufferView": 337, "componentType": 5126, "count": 33, "type": "SCALAR", "min": [0], "max": [1.0666666666666667]}, {"bufferView": 338, "componentType": 5126, "count": 33, "type": "VEC4"}, {"bufferView": 339, "componentType": 5126, "count": 2, "type": "SCALAR", "min": [0], "max": [1.0666666666666667]}, {"bufferView": 340, "componentType": 5126, "count": 2, "type": "VEC3"}, {"bufferView": 341, "componentType": 5126, "count": 2, "type": "SCALAR", "min": [0], "max": [1.0666666666666667]}, {"bufferView": 342, "componentType": 5126, "count": 2, "type": "VEC4"}, {"bufferView": 343, "componentType": 5126, "count": 2, "type": "SCALAR", "min": [0], "max": [1.0666666666666667]}, {"bufferView": 344, "componentType": 5126, "count": 2, "type": "VEC3"}, {"bufferView": 345, "componentType": 5126, "count": 33, "type": "SCALAR", "min": [0], "max": [1.0666666666666667]}, {"bufferView": 346, "componentType": 5126, "count": 33, "type": "VEC4"}, {"bufferView": 347, "componentType": 5126, "count": 2, "type": "SCALAR", "min": [0], "max": [1.0666666666666667]}, {"bufferView": 348, "componentType": 5126, "count": 2, "type": "VEC3"}, {"bufferView": 349, "componentType": 5126, "count": 33, "type": "SCALAR", "min": [0], "max": [1.0666666666666667]}, {"bufferView": 350, "componentType": 5126, "count": 33, "type": "VEC4"}, {"bufferView": 351, "componentType": 5126, "count": 2, "type": "SCALAR", "min": [0], "max": [1.0666666666666667]}, {"bufferView": 352, "componentType": 5126, "count": 2, "type": "VEC3"}, {"bufferView": 353, "componentType": 5126, "count": 33, "type": "SCALAR", "min": [0], "max": [1.0666666666666667]}, {"bufferView": 354, "componentType": 5126, "count": 33, "type": "VEC4"}, {"bufferView": 355, "componentType": 5126, "count": 2, "type": "SCALAR", "min": [0], "max": [1.0666666666666667]}, {"bufferView": 356, "componentType": 5126, "count": 2, "type": "VEC3"}, {"bufferView": 357, "componentType": 5126, "count": 33, "type": "SCALAR", "min": [0], "max": [1.0666666666666667]}, {"bufferView": 358, "componentType": 5126, "count": 33, "type": "VEC4"}, {"bufferView": 359, "componentType": 5126, "count": 2, "type": "SCALAR", "min": [0], "max": [1.0666666666666667]}, {"bufferView": 360, "componentType": 5126, "count": 2, "type": "VEC3"}, {"bufferView": 361, "componentType": 5126, "count": 33, "type": "SCALAR", "min": [0], "max": [1.0666666666666667]}, {"bufferView": 362, "componentType": 5126, "count": 33, "type": "VEC4"}, {"bufferView": 363, "componentType": 5126, "count": 2, "type": "SCALAR", "min": [0], "max": [1.0666666666666667]}, {"bufferView": 364, "componentType": 5126, "count": 2, "type": "VEC3"}, {"bufferView": 365, "componentType": 5126, "count": 33, "type": "SCALAR", "min": [0], "max": [1.0666666666666667]}, {"bufferView": 366, "componentType": 5126, "count": 33, "type": "VEC4"}, {"bufferView": 367, "componentType": 5126, "count": 2, "type": "SCALAR", "min": [0], "max": [1.0666666666666667]}, {"bufferView": 368, "componentType": 5126, "count": 2, "type": "VEC3"}, {"bufferView": 369, "componentType": 5126, "count": 2, "type": "SCALAR", "min": [0], "max": [1.0666666666666667]}, {"bufferView": 370, "componentType": 5126, "count": 2, "type": "VEC4"}, {"bufferView": 371, "componentType": 5126, "count": 2, "type": "SCALAR", "min": [0], "max": [1.0666666666666667]}, {"bufferView": 372, "componentType": 5126, "count": 2, "type": "VEC3"}, {"bufferView": 373, "componentType": 5126, "count": 2, "type": "SCALAR", "min": [0], "max": [1.0666666666666667]}, {"bufferView": 374, "componentType": 5126, "count": 2, "type": "VEC4"}, {"bufferView": 375, "componentType": 5126, "count": 2, "type": "SCALAR", "min": [0], "max": [1.0666666666666667]}, {"bufferView": 376, "componentType": 5126, "count": 2, "type": "VEC3"}, {"bufferView": 377, "componentType": 5126, "count": 33, "type": "SCALAR", "min": [0], "max": [1.0666666666666667]}, {"bufferView": 378, "componentType": 5126, "count": 33, "type": "VEC4"}, {"bufferView": 379, "componentType": 5126, "count": 2, "type": "SCALAR", "min": [0], "max": [1.0666666666666667]}, {"bufferView": 380, "componentType": 5126, "count": 2, "type": "VEC3"}, {"bufferView": 381, "componentType": 5126, "count": 33, "type": "SCALAR", "min": [0], "max": [1.0666666666666667]}, {"bufferView": 382, "componentType": 5126, "count": 33, "type": "VEC4"}, {"bufferView": 383, "componentType": 5126, "count": 2, "type": "SCALAR", "min": [0], "max": [1.0666666666666667]}, {"bufferView": 384, "componentType": 5126, "count": 2, "type": "VEC3"}, {"bufferView": 385, "componentType": 5126, "count": 33, "type": "SCALAR", "min": [0], "max": [1.0666666666666667]}, {"bufferView": 386, "componentType": 5126, "count": 33, "type": "VEC4"}, {"bufferView": 387, "componentType": 5126, "count": 2, "type": "SCALAR", "min": [0], "max": [1.0666666666666667]}, {"bufferView": 388, "componentType": 5126, "count": 2, "type": "VEC3"}, {"bufferView": 389, "componentType": 5126, "count": 33, "type": "SCALAR", "min": [0], "max": [1.0666666666666667]}, {"bufferView": 390, "componentType": 5126, "count": 33, "type": "VEC4"}, {"bufferView": 391, "componentType": 5126, "count": 2, "type": "SCALAR", "min": [0], "max": [1.0666666666666667]}, {"bufferView": 392, "componentType": 5126, "count": 2, "type": "VEC3"}, {"bufferView": 393, "componentType": 5126, "count": 33, "type": "SCALAR", "min": [0], "max": [1.0666666666666667]}, {"bufferView": 394, "componentType": 5126, "count": 33, "type": "VEC4"}, {"bufferView": 395, "componentType": 5126, "count": 2, "type": "SCALAR", "min": [0], "max": [1.0666666666666667]}, {"bufferView": 396, "componentType": 5126, "count": 2, "type": "VEC3"}, {"bufferView": 397, "componentType": 5126, "count": 33, "type": "SCALAR", "min": [0], "max": [1.0666666666666667]}, {"bufferView": 398, "componentType": 5126, "count": 33, "type": "VEC4"}, {"bufferView": 399, "componentType": 5126, "count": 2, "type": "SCALAR", "min": [0], "max": [1.0666666666666667]}, {"bufferView": 400, "componentType": 5126, "count": 2, "type": "VEC3"}, {"bufferView": 401, "componentType": 5126, "count": 33, "type": "SCALAR", "min": [0], "max": [1.0666666666666667]}, {"bufferView": 402, "componentType": 5126, "count": 33, "type": "VEC4"}, {"bufferView": 403, "componentType": 5126, "count": 33, "type": "SCALAR", "min": [0], "max": [1.0666666666666667]}, {"bufferView": 404, "componentType": 5126, "count": 33, "type": "VEC3"}, {"bufferView": 405, "componentType": 5126, "count": 33, "type": "SCALAR", "min": [0], "max": [1.0666666666666667]}, {"bufferView": 406, "componentType": 5126, "count": 33, "type": "VEC4"}, {"bufferView": 407, "componentType": 5126, "count": 2, "type": "SCALAR", "min": [0], "max": [1.0666666666666667]}, {"bufferView": 408, "componentType": 5126, "count": 2, "type": "VEC3"}, {"bufferView": 409, "componentType": 5126, "count": 2, "type": "SCALAR", "min": [0], "max": [1.0666666666666667]}, {"bufferView": 410, "componentType": 5126, "count": 2, "type": "VEC4"}, {"bufferView": 411, "componentType": 5126, "count": 2, "type": "SCALAR", "min": [0], "max": [1.0666666666666667]}, {"bufferView": 412, "componentType": 5126, "count": 2, "type": "VEC3"}, {"bufferView": 413, "componentType": 5126, "count": 33, "type": "SCALAR", "min": [0], "max": [1.0666666666666667]}, {"bufferView": 414, "componentType": 5126, "count": 33, "type": "VEC4"}, {"bufferView": 415, "componentType": 5126, "count": 2, "type": "SCALAR", "min": [0], "max": [1.0666666666666667]}, {"bufferView": 416, "componentType": 5126, "count": 2, "type": "VEC3"}, {"bufferView": 417, "componentType": 5126, "count": 2, "type": "SCALAR", "min": [0], "max": [1.0666666666666667]}, {"bufferView": 418, "componentType": 5126, "count": 2, "type": "VEC4"}, {"bufferView": 419, "componentType": 5126, "count": 2, "type": "SCALAR", "min": [0], "max": [1.0666666666666667]}, {"bufferView": 420, "componentType": 5126, "count": 2, "type": "VEC3"}, {"bufferView": 421, "componentType": 5126, "count": 2, "type": "SCALAR", "min": [0], "max": [1.0666666666666667]}, {"bufferView": 422, "componentType": 5126, "count": 2, "type": "VEC4"}], "bufferViews": [{"buffer": 0, "byteLength": 6168, "byteOffset": 0}, {"buffer": 0, "byteLength": 6168, "byteOffset": 6168}, {"buffer": 0, "byteLength": 4112, "byteOffset": 12336}, {"buffer": 0, "byteLength": 2056, "byteOffset": 16448}, {"buffer": 0, "byteLength": 8224, "byteOffset": 18504}, {"buffer": 0, "byteLength": 3732, "byteOffset": 26728}, {"buffer": 0, "byteLength": 1472, "byteOffset": 30460}, {"buffer": 0, "byteLength": 6168, "byteOffset": 31932}, {"buffer": 0, "byteLength": 6168, "byteOffset": 38100}, {"buffer": 0, "byteLength": 4112, "byteOffset": 44268}, {"buffer": 0, "byteLength": 2056, "byteOffset": 48380}, {"buffer": 0, "byteLength": 8224, "byteOffset": 50436}, {"buffer": 0, "byteLength": 3732, "byteOffset": 58660}, {"buffer": 0, "byteLength": 16080, "byteOffset": 62392}, {"buffer": 0, "byteLength": 16080, "byteOffset": 78472}, {"buffer": 0, "byteLength": 10720, "byteOffset": 94552}, {"buffer": 0, "byteLength": 5360, "byteOffset": 105272}, {"buffer": 0, "byteLength": 21440, "byteOffset": 110632}, {"buffer": 0, "byteLength": 7728, "byteOffset": 132072}, {"buffer": 0, "byteLength": 672, "byteOffset": 139800}, {"buffer": 0, "byteLength": 672, "byteOffset": 140472}, {"buffer": 0, "byteLength": 448, "byteOffset": 141144}, {"buffer": 0, "byteLength": 224, "byteOffset": 141592}, {"buffer": 0, "byteLength": 896, "byteOffset": 141816}, {"buffer": 0, "byteLength": 504, "byteOffset": 142712}, {"buffer": 0, "byteLength": 9240, "byteOffset": 143216}, {"buffer": 0, "byteLength": 9240, "byteOffset": 152456}, {"buffer": 0, "byteLength": 6160, "byteOffset": 161696}, {"buffer": 0, "byteLength": 3080, "byteOffset": 167856}, {"buffer": 0, "byteLength": 12320, "byteOffset": 170936}, {"buffer": 0, "byteLength": 6492, "byteOffset": 183256}, {"buffer": 0, "byteLength": 5820, "byteOffset": 189748}, {"buffer": 0, "byteLength": 5820, "byteOffset": 195568}, {"buffer": 0, "byteLength": 3880, "byteOffset": 201388}, {"buffer": 0, "byteLength": 1940, "byteOffset": 205268}, {"buffer": 0, "byteLength": 7760, "byteOffset": 207208}, {"buffer": 0, "byteLength": 2508, "byteOffset": 214968}, {"buffer": 0, "byteLength": 5724, "byteOffset": 217476}, {"buffer": 0, "byteLength": 5724, "byteOffset": 223200}, {"buffer": 0, "byteLength": 3816, "byteOffset": 228924}, {"buffer": 0, "byteLength": 1908, "byteOffset": 232740}, {"buffer": 0, "byteLength": 7632, "byteOffset": 234648}, {"buffer": 0, "byteLength": 2568, "byteOffset": 242280}, {"buffer": 0, "byteLength": 7032, "byteOffset": 244848}, {"buffer": 0, "byteLength": 7032, "byteOffset": 251880}, {"buffer": 0, "byteLength": 4688, "byteOffset": 258912}, {"buffer": 0, "byteLength": 2344, "byteOffset": 263600}, {"buffer": 0, "byteLength": 9376, "byteOffset": 265944}, {"buffer": 0, "byteLength": 3768, "byteOffset": 275320}, {"buffer": 0, "byteLength": 7032, "byteOffset": 279088}, {"buffer": 0, "byteLength": 7032, "byteOffset": 286120}, {"buffer": 0, "byteLength": 4688, "byteOffset": 293152}, {"buffer": 0, "byteLength": 2344, "byteOffset": 297840}, {"buffer": 0, "byteLength": 9376, "byteOffset": 300184}, {"buffer": 0, "byteLength": 3768, "byteOffset": 309560}, {"buffer": 0, "byteOffset": 313328, "byteLength": 132}, {"buffer": 0, "byteOffset": 313460, "byteLength": 396}, {"buffer": 0, "byteOffset": 313856, "byteLength": 132}, {"buffer": 0, "byteOffset": 313988, "byteLength": 528}, {"buffer": 0, "byteOffset": 314516, "byteLength": 8}, {"buffer": 0, "byteOffset": 314524, "byteLength": 24}, {"buffer": 0, "byteOffset": 314548, "byteLength": 132}, {"buffer": 0, "byteOffset": 314680, "byteLength": 528}, {"buffer": 0, "byteOffset": 315208, "byteLength": 8}, {"buffer": 0, "byteOffset": 315216, "byteLength": 24}, {"buffer": 0, "byteOffset": 315240, "byteLength": 132}, {"buffer": 0, "byteOffset": 315372, "byteLength": 528}, {"buffer": 0, "byteOffset": 315900, "byteLength": 8}, {"buffer": 0, "byteOffset": 315908, "byteLength": 24}, {"buffer": 0, "byteOffset": 315932, "byteLength": 132}, {"buffer": 0, "byteOffset": 316064, "byteLength": 528}, {"buffer": 0, "byteOffset": 316592, "byteLength": 8}, {"buffer": 0, "byteOffset": 316600, "byteLength": 24}, {"buffer": 0, "byteOffset": 316624, "byteLength": 132}, {"buffer": 0, "byteOffset": 316756, "byteLength": 528}, {"buffer": 0, "byteOffset": 317284, "byteLength": 8}, {"buffer": 0, "byteOffset": 317292, "byteLength": 24}, {"buffer": 0, "byteOffset": 317316, "byteLength": 132}, {"buffer": 0, "byteOffset": 317448, "byteLength": 528}, {"buffer": 0, "byteOffset": 317976, "byteLength": 8}, {"buffer": 0, "byteOffset": 317984, "byteLength": 24}, {"buffer": 0, "byteOffset": 318008, "byteLength": 8}, {"buffer": 0, "byteOffset": 318016, "byteLength": 32}, {"buffer": 0, "byteOffset": 318048, "byteLength": 8}, {"buffer": 0, "byteOffset": 318056, "byteLength": 24}, {"buffer": 0, "byteOffset": 318080, "byteLength": 132}, {"buffer": 0, "byteOffset": 318212, "byteLength": 528}, {"buffer": 0, "byteOffset": 318740, "byteLength": 8}, {"buffer": 0, "byteOffset": 318748, "byteLength": 24}, {"buffer": 0, "byteOffset": 318772, "byteLength": 132}, {"buffer": 0, "byteOffset": 318904, "byteLength": 528}, {"buffer": 0, "byteOffset": 319432, "byteLength": 8}, {"buffer": 0, "byteOffset": 319440, "byteLength": 24}, {"buffer": 0, "byteOffset": 319464, "byteLength": 132}, {"buffer": 0, "byteOffset": 319596, "byteLength": 528}, {"buffer": 0, "byteOffset": 320124, "byteLength": 8}, {"buffer": 0, "byteOffset": 320132, "byteLength": 24}, {"buffer": 0, "byteOffset": 320156, "byteLength": 8}, {"buffer": 0, "byteOffset": 320164, "byteLength": 32}, {"buffer": 0, "byteOffset": 320196, "byteLength": 8}, {"buffer": 0, "byteOffset": 320204, "byteLength": 24}, {"buffer": 0, "byteOffset": 320228, "byteLength": 132}, {"buffer": 0, "byteOffset": 320360, "byteLength": 528}, {"buffer": 0, "byteOffset": 320888, "byteLength": 8}, {"buffer": 0, "byteOffset": 320896, "byteLength": 24}, {"buffer": 0, "byteOffset": 320920, "byteLength": 132}, {"buffer": 0, "byteOffset": 321052, "byteLength": 528}, {"buffer": 0, "byteOffset": 321580, "byteLength": 8}, {"buffer": 0, "byteOffset": 321588, "byteLength": 24}, {"buffer": 0, "byteOffset": 321612, "byteLength": 132}, {"buffer": 0, "byteOffset": 321744, "byteLength": 528}, {"buffer": 0, "byteOffset": 322272, "byteLength": 8}, {"buffer": 0, "byteOffset": 322280, "byteLength": 24}, {"buffer": 0, "byteOffset": 322304, "byteLength": 132}, {"buffer": 0, "byteOffset": 322436, "byteLength": 528}, {"buffer": 0, "byteOffset": 322964, "byteLength": 8}, {"buffer": 0, "byteOffset": 322972, "byteLength": 24}, {"buffer": 0, "byteOffset": 322996, "byteLength": 8}, {"buffer": 0, "byteOffset": 323004, "byteLength": 32}, {"buffer": 0, "byteOffset": 323036, "byteLength": 8}, {"buffer": 0, "byteOffset": 323044, "byteLength": 24}, {"buffer": 0, "byteOffset": 323068, "byteLength": 132}, {"buffer": 0, "byteOffset": 323200, "byteLength": 528}, {"buffer": 0, "byteOffset": 323728, "byteLength": 8}, {"buffer": 0, "byteOffset": 323736, "byteLength": 24}, {"buffer": 0, "byteOffset": 323760, "byteLength": 132}, {"buffer": 0, "byteOffset": 323892, "byteLength": 528}, {"buffer": 0, "byteOffset": 324420, "byteLength": 8}, {"buffer": 0, "byteOffset": 324428, "byteLength": 24}, {"buffer": 0, "byteOffset": 324452, "byteLength": 132}, {"buffer": 0, "byteOffset": 324584, "byteLength": 528}, {"buffer": 0, "byteOffset": 325112, "byteLength": 8}, {"buffer": 0, "byteOffset": 325120, "byteLength": 24}, {"buffer": 0, "byteOffset": 325144, "byteLength": 132}, {"buffer": 0, "byteOffset": 325276, "byteLength": 528}, {"buffer": 0, "byteOffset": 325804, "byteLength": 8}, {"buffer": 0, "byteOffset": 325812, "byteLength": 24}, {"buffer": 0, "byteOffset": 325836, "byteLength": 132}, {"buffer": 0, "byteOffset": 325968, "byteLength": 528}, {"buffer": 0, "byteOffset": 326496, "byteLength": 8}, {"buffer": 0, "byteOffset": 326504, "byteLength": 24}, {"buffer": 0, "byteOffset": 326528, "byteLength": 132}, {"buffer": 0, "byteOffset": 326660, "byteLength": 528}, {"buffer": 0, "byteOffset": 327188, "byteLength": 8}, {"buffer": 0, "byteOffset": 327196, "byteLength": 24}, {"buffer": 0, "byteOffset": 327220, "byteLength": 132}, {"buffer": 0, "byteOffset": 327352, "byteLength": 528}, {"buffer": 0, "byteOffset": 327880, "byteLength": 8}, {"buffer": 0, "byteOffset": 327888, "byteLength": 24}, {"buffer": 0, "byteOffset": 327912, "byteLength": 132}, {"buffer": 0, "byteOffset": 328044, "byteLength": 528}, {"buffer": 0, "byteOffset": 328572, "byteLength": 8}, {"buffer": 0, "byteOffset": 328580, "byteLength": 24}, {"buffer": 0, "byteOffset": 328604, "byteLength": 132}, {"buffer": 0, "byteOffset": 328736, "byteLength": 528}, {"buffer": 0, "byteOffset": 329264, "byteLength": 8}, {"buffer": 0, "byteOffset": 329272, "byteLength": 24}, {"buffer": 0, "byteOffset": 329296, "byteLength": 8}, {"buffer": 0, "byteOffset": 329304, "byteLength": 32}, {"buffer": 0, "byteOffset": 329336, "byteLength": 8}, {"buffer": 0, "byteOffset": 329344, "byteLength": 24}, {"buffer": 0, "byteOffset": 329368, "byteLength": 132}, {"buffer": 0, "byteOffset": 329500, "byteLength": 528}, {"buffer": 0, "byteOffset": 330028, "byteLength": 8}, {"buffer": 0, "byteOffset": 330036, "byteLength": 24}, {"buffer": 0, "byteOffset": 330060, "byteLength": 132}, {"buffer": 0, "byteOffset": 330192, "byteLength": 528}, {"buffer": 0, "byteOffset": 330720, "byteLength": 8}, {"buffer": 0, "byteOffset": 330728, "byteLength": 24}, {"buffer": 0, "byteOffset": 330752, "byteLength": 132}, {"buffer": 0, "byteOffset": 330884, "byteLength": 528}, {"buffer": 0, "byteOffset": 331412, "byteLength": 8}, {"buffer": 0, "byteOffset": 331420, "byteLength": 24}, {"buffer": 0, "byteOffset": 331444, "byteLength": 132}, {"buffer": 0, "byteOffset": 331576, "byteLength": 528}, {"buffer": 0, "byteOffset": 332104, "byteLength": 8}, {"buffer": 0, "byteOffset": 332112, "byteLength": 24}, {"buffer": 0, "byteOffset": 332136, "byteLength": 132}, {"buffer": 0, "byteOffset": 332268, "byteLength": 528}, {"buffer": 0, "byteOffset": 332796, "byteLength": 132}, {"buffer": 0, "byteOffset": 332928, "byteLength": 396}, {"buffer": 0, "byteOffset": 333324, "byteLength": 132}, {"buffer": 0, "byteOffset": 333456, "byteLength": 528}, {"buffer": 0, "byteOffset": 333984, "byteLength": 8}, {"buffer": 0, "byteOffset": 333992, "byteLength": 24}, {"buffer": 0, "byteOffset": 334016, "byteLength": 8}, {"buffer": 0, "byteOffset": 334024, "byteLength": 32}, {"buffer": 0, "byteOffset": 334056, "byteLength": 8}, {"buffer": 0, "byteOffset": 334064, "byteLength": 24}, {"buffer": 0, "byteOffset": 334088, "byteLength": 8}, {"buffer": 0, "byteOffset": 334096, "byteLength": 32}, {"buffer": 0, "byteOffset": 334128, "byteLength": 8}, {"buffer": 0, "byteOffset": 334136, "byteLength": 24}, {"buffer": 0, "byteOffset": 334160, "byteLength": 132}, {"buffer": 0, "byteOffset": 334292, "byteLength": 528}, {"buffer": 0, "byteOffset": 334820, "byteLength": 8}, {"buffer": 0, "byteOffset": 334828, "byteLength": 24}, {"buffer": 0, "byteOffset": 334852, "byteLength": 132}, {"buffer": 0, "byteOffset": 334984, "byteLength": 528}, {"buffer": 0, "byteOffset": 335512, "byteLength": 8}, {"buffer": 0, "byteOffset": 335520, "byteLength": 24}, {"buffer": 0, "byteOffset": 335544, "byteLength": 132}, {"buffer": 0, "byteOffset": 335676, "byteLength": 528}, {"buffer": 0, "byteOffset": 336204, "byteLength": 8}, {"buffer": 0, "byteOffset": 336212, "byteLength": 24}, {"buffer": 0, "byteOffset": 336236, "byteLength": 132}, {"buffer": 0, "byteOffset": 336368, "byteLength": 528}, {"buffer": 0, "byteOffset": 336896, "byteLength": 8}, {"buffer": 0, "byteOffset": 336904, "byteLength": 24}, {"buffer": 0, "byteOffset": 336928, "byteLength": 132}, {"buffer": 0, "byteOffset": 337060, "byteLength": 528}, {"buffer": 0, "byteOffset": 337588, "byteLength": 8}, {"buffer": 0, "byteOffset": 337596, "byteLength": 24}, {"buffer": 0, "byteOffset": 337620, "byteLength": 132}, {"buffer": 0, "byteOffset": 337752, "byteLength": 528}, {"buffer": 0, "byteOffset": 338280, "byteLength": 8}, {"buffer": 0, "byteOffset": 338288, "byteLength": 24}, {"buffer": 0, "byteOffset": 338312, "byteLength": 132}, {"buffer": 0, "byteOffset": 338444, "byteLength": 528}, {"buffer": 0, "byteOffset": 338972, "byteLength": 132}, {"buffer": 0, "byteOffset": 339104, "byteLength": 396}, {"buffer": 0, "byteOffset": 339500, "byteLength": 8}, {"buffer": 0, "byteOffset": 339508, "byteLength": 32}, {"buffer": 0, "byteOffset": 339540, "byteLength": 8}, {"buffer": 0, "byteOffset": 339548, "byteLength": 24}, {"buffer": 0, "byteOffset": 339572, "byteLength": 8}, {"buffer": 0, "byteOffset": 339580, "byteLength": 32}, {"buffer": 0, "byteOffset": 339612, "byteLength": 132}, {"buffer": 0, "byteOffset": 339744, "byteLength": 396}, {"buffer": 0, "byteOffset": 340140, "byteLength": 132}, {"buffer": 0, "byteOffset": 340272, "byteLength": 528}, {"buffer": 0, "byteOffset": 340800, "byteLength": 8}, {"buffer": 0, "byteOffset": 340808, "byteLength": 24}, {"buffer": 0, "byteOffset": 340832, "byteLength": 8}, {"buffer": 0, "byteOffset": 340840, "byteLength": 32}, {"buffer": 0, "byteOffset": 340872, "byteLength": 8}, {"buffer": 0, "byteOffset": 340880, "byteLength": 24}, {"buffer": 0, "byteOffset": 340904, "byteLength": 8}, {"buffer": 0, "byteOffset": 340912, "byteLength": 32}, {"buffer": 0, "byteOffset": 340944, "byteLength": 8}, {"buffer": 0, "byteOffset": 340952, "byteLength": 24}, {"buffer": 0, "byteOffset": 340976, "byteLength": 100}, {"buffer": 0, "byteOffset": 341076, "byteLength": 400}, {"buffer": 0, "byteOffset": 341476, "byteLength": 8}, {"buffer": 0, "byteOffset": 341484, "byteLength": 24}, {"buffer": 0, "byteOffset": 341508, "byteLength": 100}, {"buffer": 0, "byteOffset": 341608, "byteLength": 400}, {"buffer": 0, "byteOffset": 342008, "byteLength": 8}, {"buffer": 0, "byteOffset": 342016, "byteLength": 24}, {"buffer": 0, "byteOffset": 342040, "byteLength": 8}, {"buffer": 0, "byteOffset": 342048, "byteLength": 32}, {"buffer": 0, "byteOffset": 342080, "byteLength": 8}, {"buffer": 0, "byteOffset": 342088, "byteLength": 24}, {"buffer": 0, "byteOffset": 342112, "byteLength": 100}, {"buffer": 0, "byteOffset": 342212, "byteLength": 400}, {"buffer": 0, "byteOffset": 342612, "byteLength": 8}, {"buffer": 0, "byteOffset": 342620, "byteLength": 24}, {"buffer": 0, "byteOffset": 342644, "byteLength": 100}, {"buffer": 0, "byteOffset": 342744, "byteLength": 400}, {"buffer": 0, "byteOffset": 343144, "byteLength": 8}, {"buffer": 0, "byteOffset": 343152, "byteLength": 24}, {"buffer": 0, "byteOffset": 343176, "byteLength": 100}, {"buffer": 0, "byteOffset": 343276, "byteLength": 400}, {"buffer": 0, "byteOffset": 343676, "byteLength": 8}, {"buffer": 0, "byteOffset": 343684, "byteLength": 24}, {"buffer": 0, "byteOffset": 343708, "byteLength": 100}, {"buffer": 0, "byteOffset": 343808, "byteLength": 400}, {"buffer": 0, "byteOffset": 344208, "byteLength": 100}, {"buffer": 0, "byteOffset": 344308, "byteLength": 300}, {"buffer": 0, "byteOffset": 344608, "byteLength": 100}, {"buffer": 0, "byteOffset": 344708, "byteLength": 400}, {"buffer": 0, "byteOffset": 345108, "byteLength": 100}, {"buffer": 0, "byteOffset": 345208, "byteLength": 300}, {"buffer": 0, "byteOffset": 345508, "byteLength": 100}, {"buffer": 0, "byteOffset": 345608, "byteLength": 400}, {"buffer": 0, "byteOffset": 346008, "byteLength": 8}, {"buffer": 0, "byteOffset": 346016, "byteLength": 24}, {"buffer": 0, "byteOffset": 346040, "byteLength": 8}, {"buffer": 0, "byteOffset": 346048, "byteLength": 32}, {"buffer": 0, "byteOffset": 346080, "byteLength": 8}, {"buffer": 0, "byteOffset": 346088, "byteLength": 24}, {"buffer": 0, "byteOffset": 346112, "byteLength": 100}, {"buffer": 0, "byteOffset": 346212, "byteLength": 400}, {"buffer": 0, "byteOffset": 346612, "byteLength": 100}, {"buffer": 0, "byteOffset": 346712, "byteLength": 300}, {"buffer": 0, "byteOffset": 347012, "byteLength": 100}, {"buffer": 0, "byteOffset": 347112, "byteLength": 400}, {"buffer": 0, "byteOffset": 347512, "byteLength": 8}, {"buffer": 0, "byteOffset": 347520, "byteLength": 24}, {"buffer": 0, "byteOffset": 347544, "byteLength": 100}, {"buffer": 0, "byteOffset": 347644, "byteLength": 400}, {"buffer": 0, "byteOffset": 348044, "byteLength": 8}, {"buffer": 0, "byteOffset": 348052, "byteLength": 24}, {"buffer": 0, "byteOffset": 348076, "byteLength": 100}, {"buffer": 0, "byteOffset": 348176, "byteLength": 400}, {"buffer": 0, "byteOffset": 348576, "byteLength": 8}, {"buffer": 0, "byteOffset": 348584, "byteLength": 24}, {"buffer": 0, "byteOffset": 348608, "byteLength": 100}, {"buffer": 0, "byteOffset": 348708, "byteLength": 400}, {"buffer": 0, "byteOffset": 349108, "byteLength": 8}, {"buffer": 0, "byteOffset": 349116, "byteLength": 24}, {"buffer": 0, "byteOffset": 349140, "byteLength": 100}, {"buffer": 0, "byteOffset": 349240, "byteLength": 400}, {"buffer": 0, "byteOffset": 349640, "byteLength": 8}, {"buffer": 0, "byteOffset": 349648, "byteLength": 24}, {"buffer": 0, "byteOffset": 349672, "byteLength": 100}, {"buffer": 0, "byteOffset": 349772, "byteLength": 400}, {"buffer": 0, "byteOffset": 350172, "byteLength": 8}, {"buffer": 0, "byteOffset": 350180, "byteLength": 24}, {"buffer": 0, "byteOffset": 350204, "byteLength": 100}, {"buffer": 0, "byteOffset": 350304, "byteLength": 400}, {"buffer": 0, "byteOffset": 350704, "byteLength": 100}, {"buffer": 0, "byteOffset": 350804, "byteLength": 300}, {"buffer": 0, "byteOffset": 351104, "byteLength": 100}, {"buffer": 0, "byteOffset": 351204, "byteLength": 400}, {"buffer": 0, "byteOffset": 351604, "byteLength": 8}, {"buffer": 0, "byteOffset": 351612, "byteLength": 24}, {"buffer": 0, "byteOffset": 351636, "byteLength": 8}, {"buffer": 0, "byteOffset": 351644, "byteLength": 32}, {"buffer": 0, "byteOffset": 351676, "byteLength": 100}, {"buffer": 0, "byteOffset": 351776, "byteLength": 300}, {"buffer": 0, "byteOffset": 352076, "byteLength": 100}, {"buffer": 0, "byteOffset": 352176, "byteLength": 400}, {"buffer": 0, "byteOffset": 352576, "byteLength": 8}, {"buffer": 0, "byteOffset": 352584, "byteLength": 24}, {"buffer": 0, "byteOffset": 352608, "byteLength": 8}, {"buffer": 0, "byteOffset": 352616, "byteLength": 32}, {"buffer": 0, "byteOffset": 352648, "byteLength": 8}, {"buffer": 0, "byteOffset": 352656, "byteLength": 24}, {"buffer": 0, "byteOffset": 352680, "byteLength": 8}, {"buffer": 0, "byteOffset": 352688, "byteLength": 32}, {"buffer": 0, "byteOffset": 352720, "byteLength": 8}, {"buffer": 0, "byteOffset": 352728, "byteLength": 24}, {"buffer": 0, "byteOffset": 352752, "byteLength": 132}, {"buffer": 0, "byteOffset": 352884, "byteLength": 528}, {"buffer": 0, "byteOffset": 353412, "byteLength": 8}, {"buffer": 0, "byteOffset": 353420, "byteLength": 24}, {"buffer": 0, "byteOffset": 353444, "byteLength": 132}, {"buffer": 0, "byteOffset": 353576, "byteLength": 528}, {"buffer": 0, "byteOffset": 354104, "byteLength": 8}, {"buffer": 0, "byteOffset": 354112, "byteLength": 24}, {"buffer": 0, "byteOffset": 354136, "byteLength": 8}, {"buffer": 0, "byteOffset": 354144, "byteLength": 32}, {"buffer": 0, "byteOffset": 354176, "byteLength": 8}, {"buffer": 0, "byteOffset": 354184, "byteLength": 24}, {"buffer": 0, "byteOffset": 354208, "byteLength": 132}, {"buffer": 0, "byteOffset": 354340, "byteLength": 528}, {"buffer": 0, "byteOffset": 354868, "byteLength": 8}, {"buffer": 0, "byteOffset": 354876, "byteLength": 24}, {"buffer": 0, "byteOffset": 354900, "byteLength": 132}, {"buffer": 0, "byteOffset": 355032, "byteLength": 528}, {"buffer": 0, "byteOffset": 355560, "byteLength": 8}, {"buffer": 0, "byteOffset": 355568, "byteLength": 24}, {"buffer": 0, "byteOffset": 355592, "byteLength": 132}, {"buffer": 0, "byteOffset": 355724, "byteLength": 528}, {"buffer": 0, "byteOffset": 356252, "byteLength": 8}, {"buffer": 0, "byteOffset": 356260, "byteLength": 24}, {"buffer": 0, "byteOffset": 356284, "byteLength": 132}, {"buffer": 0, "byteOffset": 356416, "byteLength": 528}, {"buffer": 0, "byteOffset": 356944, "byteLength": 8}, {"buffer": 0, "byteOffset": 356952, "byteLength": 24}, {"buffer": 0, "byteOffset": 356976, "byteLength": 132}, {"buffer": 0, "byteOffset": 357108, "byteLength": 528}, {"buffer": 0, "byteOffset": 357636, "byteLength": 8}, {"buffer": 0, "byteOffset": 357644, "byteLength": 24}, {"buffer": 0, "byteOffset": 357668, "byteLength": 132}, {"buffer": 0, "byteOffset": 357800, "byteLength": 528}, {"buffer": 0, "byteOffset": 358328, "byteLength": 8}, {"buffer": 0, "byteOffset": 358336, "byteLength": 24}, {"buffer": 0, "byteOffset": 358360, "byteLength": 8}, {"buffer": 0, "byteOffset": 358368, "byteLength": 32}, {"buffer": 0, "byteOffset": 358400, "byteLength": 8}, {"buffer": 0, "byteOffset": 358408, "byteLength": 24}, {"buffer": 0, "byteOffset": 358432, "byteLength": 8}, {"buffer": 0, "byteOffset": 358440, "byteLength": 32}, {"buffer": 0, "byteOffset": 358472, "byteLength": 8}, {"buffer": 0, "byteOffset": 358480, "byteLength": 24}, {"buffer": 0, "byteOffset": 358504, "byteLength": 132}, {"buffer": 0, "byteOffset": 358636, "byteLength": 528}, {"buffer": 0, "byteOffset": 359164, "byteLength": 8}, {"buffer": 0, "byteOffset": 359172, "byteLength": 24}, {"buffer": 0, "byteOffset": 359196, "byteLength": 132}, {"buffer": 0, "byteOffset": 359328, "byteLength": 528}, {"buffer": 0, "byteOffset": 359856, "byteLength": 8}, {"buffer": 0, "byteOffset": 359864, "byteLength": 24}, {"buffer": 0, "byteOffset": 359888, "byteLength": 132}, {"buffer": 0, "byteOffset": 360020, "byteLength": 528}, {"buffer": 0, "byteOffset": 360548, "byteLength": 8}, {"buffer": 0, "byteOffset": 360556, "byteLength": 24}, {"buffer": 0, "byteOffset": 360580, "byteLength": 132}, {"buffer": 0, "byteOffset": 360712, "byteLength": 528}, {"buffer": 0, "byteOffset": 361240, "byteLength": 8}, {"buffer": 0, "byteOffset": 361248, "byteLength": 24}, {"buffer": 0, "byteOffset": 361272, "byteLength": 132}, {"buffer": 0, "byteOffset": 361404, "byteLength": 528}, {"buffer": 0, "byteOffset": 361932, "byteLength": 8}, {"buffer": 0, "byteOffset": 361940, "byteLength": 24}, {"buffer": 0, "byteOffset": 361964, "byteLength": 132}, {"buffer": 0, "byteOffset": 362096, "byteLength": 528}, {"buffer": 0, "byteOffset": 362624, "byteLength": 8}, {"buffer": 0, "byteOffset": 362632, "byteLength": 24}, {"buffer": 0, "byteOffset": 362656, "byteLength": 132}, {"buffer": 0, "byteOffset": 362788, "byteLength": 528}, {"buffer": 0, "byteOffset": 363316, "byteLength": 132}, {"buffer": 0, "byteOffset": 363448, "byteLength": 396}, {"buffer": 0, "byteOffset": 363844, "byteLength": 132}, {"buffer": 0, "byteOffset": 363976, "byteLength": 528}, {"buffer": 0, "byteOffset": 364504, "byteLength": 8}, {"buffer": 0, "byteOffset": 364512, "byteLength": 24}, {"buffer": 0, "byteOffset": 364536, "byteLength": 8}, {"buffer": 0, "byteOffset": 364544, "byteLength": 32}, {"buffer": 0, "byteOffset": 364576, "byteLength": 8}, {"buffer": 0, "byteOffset": 364584, "byteLength": 24}, {"buffer": 0, "byteOffset": 364608, "byteLength": 132}, {"buffer": 0, "byteOffset": 364740, "byteLength": 528}, {"buffer": 0, "byteOffset": 365268, "byteLength": 8}, {"buffer": 0, "byteOffset": 365276, "byteLength": 24}, {"buffer": 0, "byteOffset": 365300, "byteLength": 8}, {"buffer": 0, "byteOffset": 365308, "byteLength": 32}, {"buffer": 0, "byteOffset": 365340, "byteLength": 8}, {"buffer": 0, "byteOffset": 365348, "byteLength": 24}, {"buffer": 0, "byteOffset": 365372, "byteLength": 8}, {"buffer": 0, "byteOffset": 365380, "byteLength": 32}], "samplers": [{"magFilter": 9729, "minFilter": 9987}, {"magFilter": 9728, "minFilter": 9728}], "buffers": [{"byteLength": 365412, "uri": "knight.bin"}], "animations": [{"name": "Idle", "samplers": [{"input": 55, "output": 56, "interpolation": "LINEAR"}, {"input": 57, "output": 58, "interpolation": "LINEAR"}, {"input": 59, "output": 60, "interpolation": "LINEAR"}, {"input": 61, "output": 62, "interpolation": "LINEAR"}, {"input": 63, "output": 64, "interpolation": "LINEAR"}, {"input": 65, "output": 66, "interpolation": "LINEAR"}, {"input": 67, "output": 68, "interpolation": "LINEAR"}, {"input": 69, "output": 70, "interpolation": "LINEAR"}, {"input": 71, "output": 72, "interpolation": "LINEAR"}, {"input": 73, "output": 74, "interpolation": "LINEAR"}, {"input": 75, "output": 76, "interpolation": "LINEAR"}, {"input": 77, "output": 78, "interpolation": "LINEAR"}, {"input": 79, "output": 80, "interpolation": "LINEAR"}, {"input": 81, "output": 82, "interpolation": "LINEAR"}, {"input": 83, "output": 84, "interpolation": "LINEAR"}, {"input": 85, "output": 86, "interpolation": "LINEAR"}, {"input": 87, "output": 88, "interpolation": "LINEAR"}, {"input": 89, "output": 90, "interpolation": "LINEAR"}, {"input": 91, "output": 92, "interpolation": "LINEAR"}, {"input": 93, "output": 94, "interpolation": "LINEAR"}, {"input": 95, "output": 96, "interpolation": "LINEAR"}, {"input": 97, "output": 98, "interpolation": "LINEAR"}, {"input": 99, "output": 100, "interpolation": "LINEAR"}, {"input": 101, "output": 102, "interpolation": "LINEAR"}, {"input": 103, "output": 104, "interpolation": "LINEAR"}, {"input": 105, "output": 106, "interpolation": "LINEAR"}, {"input": 107, "output": 108, "interpolation": "LINEAR"}, {"input": 109, "output": 110, "interpolation": "LINEAR"}, {"input": 111, "output": 112, "interpolation": "LINEAR"}, {"input": 113, "output": 114, "interpolation": "LINEAR"}, {"input": 115, "output": 116, "interpolation": "LINEAR"}, {"input": 117, "output": 118, "interpolation": "LINEAR"}, {"input": 119, "output": 120, "interpolation": "LINEAR"}, {"input": 121, "output": 122, "interpolation": "LINEAR"}, {"input": 123, "output": 124, "interpolation": "LINEAR"}, {"input": 125, "output": 126, "interpolation": "LINEAR"}, {"input": 127, "output": 128, "interpolation": "LINEAR"}, {"input": 129, "output": 130, "interpolation": "LINEAR"}, {"input": 131, "output": 132, "interpolation": "LINEAR"}, {"input": 133, "output": 134, "interpolation": "LINEAR"}, {"input": 135, "output": 136, "interpolation": "LINEAR"}, {"input": 137, "output": 138, "interpolation": "LINEAR"}, {"input": 139, "output": 140, "interpolation": "LINEAR"}, {"input": 141, "output": 142, "interpolation": "LINEAR"}, {"input": 143, "output": 144, "interpolation": "LINEAR"}, {"input": 145, "output": 146, "interpolation": "LINEAR"}], "channels": [{"sampler": 0, "target": {"node": 21, "path": "translation"}}, {"sampler": 1, "target": {"node": 21, "path": "rotation"}}, {"sampler": 2, "target": {"node": 5, "path": "translation"}}, {"sampler": 3, "target": {"node": 5, "path": "rotation"}}, {"sampler": 4, "target": {"node": 15, "path": "translation"}}, {"sampler": 5, "target": {"node": 15, "path": "rotation"}}, {"sampler": 6, "target": {"node": 6, "path": "translation"}}, {"sampler": 7, "target": {"node": 6, "path": "rotation"}}, {"sampler": 8, "target": {"node": 4, "path": "translation"}}, {"sampler": 9, "target": {"node": 4, "path": "rotation"}}, {"sampler": 10, "target": {"node": 3, "path": "translation"}}, {"sampler": 11, "target": {"node": 3, "path": "rotation"}}, {"sampler": 12, "target": {"node": 2, "path": "translation"}}, {"sampler": 13, "target": {"node": 2, "path": "rotation"}}, {"sampler": 14, "target": {"node": 12, "path": "translation"}}, {"sampler": 15, "target": {"node": 12, "path": "rotation"}}, {"sampler": 16, "target": {"node": 1, "path": "translation"}}, {"sampler": 17, "target": {"node": 1, "path": "rotation"}}, {"sampler": 18, "target": {"node": 17, "path": "translation"}}, {"sampler": 19, "target": {"node": 17, "path": "rotation"}}, {"sampler": 20, "target": {"node": 22, "path": "translation"}}, {"sampler": 21, "target": {"node": 22, "path": "rotation"}}, {"sampler": 22, "target": {"node": 8, "path": "translation"}}, {"sampler": 23, "target": {"node": 8, "path": "rotation"}}, {"sampler": 24, "target": {"node": 20, "path": "translation"}}, {"sampler": 25, "target": {"node": 20, "path": "rotation"}}, {"sampler": 26, "target": {"node": 18, "path": "translation"}}, {"sampler": 27, "target": {"node": 18, "path": "rotation"}}, {"sampler": 28, "target": {"node": 11, "path": "translation"}}, {"sampler": 29, "target": {"node": 11, "path": "rotation"}}, {"sampler": 30, "target": {"node": 7, "path": "translation"}}, {"sampler": 31, "target": {"node": 7, "path": "rotation"}}, {"sampler": 32, "target": {"node": 16, "path": "translation"}}, {"sampler": 33, "target": {"node": 16, "path": "rotation"}}, {"sampler": 34, "target": {"node": 13, "path": "translation"}}, {"sampler": 35, "target": {"node": 13, "path": "rotation"}}, {"sampler": 36, "target": {"node": 19, "path": "translation"}}, {"sampler": 37, "target": {"node": 19, "path": "rotation"}}, {"sampler": 38, "target": {"node": 10, "path": "translation"}}, {"sampler": 39, "target": {"node": 10, "path": "rotation"}}, {"sampler": 40, "target": {"node": 9, "path": "translation"}}, {"sampler": 41, "target": {"node": 9, "path": "rotation"}}, {"sampler": 42, "target": {"node": 14, "path": "translation"}}, {"sampler": 43, "target": {"node": 14, "path": "rotation"}}, {"sampler": 44, "target": {"node": 0, "path": "translation"}}, {"sampler": 45, "target": {"node": 0, "path": "rotation"}}]}, {"name": "Walk", "samplers": [{"input": 147, "output": 148, "interpolation": "LINEAR"}, {"input": 149, "output": 150, "interpolation": "LINEAR"}, {"input": 151, "output": 152, "interpolation": "LINEAR"}, {"input": 153, "output": 154, "interpolation": "LINEAR"}, {"input": 155, "output": 156, "interpolation": "LINEAR"}, {"input": 157, "output": 158, "interpolation": "LINEAR"}, {"input": 159, "output": 160, "interpolation": "LINEAR"}, {"input": 161, "output": 162, "interpolation": "LINEAR"}, {"input": 163, "output": 164, "interpolation": "LINEAR"}, {"input": 165, "output": 166, "interpolation": "LINEAR"}, {"input": 167, "output": 168, "interpolation": "LINEAR"}, {"input": 169, "output": 170, "interpolation": "LINEAR"}, {"input": 171, "output": 172, "interpolation": "LINEAR"}, {"input": 173, "output": 174, "interpolation": "LINEAR"}, {"input": 175, "output": 176, "interpolation": "LINEAR"}, {"input": 177, "output": 178, "interpolation": "LINEAR"}, {"input": 179, "output": 180, "interpolation": "LINEAR"}, {"input": 181, "output": 182, "interpolation": "LINEAR"}, {"input": 183, "output": 184, "interpolation": "LINEAR"}, {"input": 185, "output": 186, "interpolation": "LINEAR"}, {"input": 187, "output": 188, "interpolation": "LINEAR"}, {"input": 189, "output": 190, "interpolation": "LINEAR"}, {"input": 191, "output": 192, "interpolation": "LINEAR"}, {"input": 193, "output": 194, "interpolation": "LINEAR"}, {"input": 195, "output": 196, "interpolation": "LINEAR"}, {"input": 197, "output": 198, "interpolation": "LINEAR"}, {"input": 199, "output": 200, "interpolation": "LINEAR"}, {"input": 201, "output": 202, "interpolation": "LINEAR"}, {"input": 203, "output": 204, "interpolation": "LINEAR"}, {"input": 205, "output": 206, "interpolation": "LINEAR"}, {"input": 207, "output": 208, "interpolation": "LINEAR"}, {"input": 209, "output": 210, "interpolation": "LINEAR"}, {"input": 211, "output": 212, "interpolation": "LINEAR"}, {"input": 213, "output": 214, "interpolation": "LINEAR"}, {"input": 215, "output": 216, "interpolation": "LINEAR"}, {"input": 217, "output": 218, "interpolation": "LINEAR"}, {"input": 219, "output": 220, "interpolation": "LINEAR"}, {"input": 221, "output": 222, "interpolation": "LINEAR"}, {"input": 223, "output": 224, "interpolation": "LINEAR"}, {"input": 225, "output": 226, "interpolation": "LINEAR"}, {"input": 227, "output": 228, "interpolation": "LINEAR"}, {"input": 229, "output": 230, "interpolation": "LINEAR"}, {"input": 231, "output": 232, "interpolation": "LINEAR"}, {"input": 233, "output": 234, "interpolation": "LINEAR"}, {"input": 235, "output": 236, "interpolation": "LINEAR"}, {"input": 237, "output": 238, "interpolation": "LINEAR"}], "channels": [{"sampler": 0, "target": {"node": 3, "path": "translation"}}, {"sampler": 1, "target": {"node": 3, "path": "rotation"}}, {"sampler": 2, "target": {"node": 17, "path": "translation"}}, {"sampler": 3, "target": {"node": 17, "path": "rotation"}}, {"sampler": 4, "target": {"node": 7, "path": "translation"}}, {"sampler": 5, "target": {"node": 7, "path": "rotation"}}, {"sampler": 6, "target": {"node": 18, "path": "translation"}}, {"sampler": 7, "target": {"node": 18, "path": "rotation"}}, {"sampler": 8, "target": {"node": 15, "path": "translation"}}, {"sampler": 9, "target": {"node": 15, "path": "rotation"}}, {"sampler": 10, "target": {"node": 13, "path": "translation"}}, {"sampler": 11, "target": {"node": 13, "path": "rotation"}}, {"sampler": 12, "target": {"node": 6, "path": "translation"}}, {"sampler": 13, "target": {"node": 6, "path": "rotation"}}, {"sampler": 14, "target": {"node": 9, "path": "translation"}}, {"sampler": 15, "target": {"node": 9, "path": "rotation"}}, {"sampler": 16, "target": {"node": 16, "path": "translation"}}, {"sampler": 17, "target": {"node": 16, "path": "rotation"}}, {"sampler": 18, "target": {"node": 5, "path": "translation"}}, {"sampler": 19, "target": {"node": 5, "path": "rotation"}}, {"sampler": 20, "target": {"node": 10, "path": "translation"}}, {"sampler": 21, "target": {"node": 10, "path": "rotation"}}, {"sampler": 22, "target": {"node": 4, "path": "translation"}}, {"sampler": 23, "target": {"node": 4, "path": "rotation"}}, {"sampler": 24, "target": {"node": 8, "path": "translation"}}, {"sampler": 25, "target": {"node": 8, "path": "rotation"}}, {"sampler": 26, "target": {"node": 1, "path": "translation"}}, {"sampler": 27, "target": {"node": 1, "path": "rotation"}}, {"sampler": 28, "target": {"node": 11, "path": "translation"}}, {"sampler": 29, "target": {"node": 11, "path": "rotation"}}, {"sampler": 30, "target": {"node": 12, "path": "translation"}}, {"sampler": 31, "target": {"node": 12, "path": "rotation"}}, {"sampler": 32, "target": {"node": 19, "path": "translation"}}, {"sampler": 33, "target": {"node": 19, "path": "rotation"}}, {"sampler": 34, "target": {"node": 14, "path": "translation"}}, {"sampler": 35, "target": {"node": 14, "path": "rotation"}}, {"sampler": 36, "target": {"node": 21, "path": "translation"}}, {"sampler": 37, "target": {"node": 21, "path": "rotation"}}, {"sampler": 38, "target": {"node": 0, "path": "translation"}}, {"sampler": 39, "target": {"node": 0, "path": "rotation"}}, {"sampler": 40, "target": {"node": 20, "path": "translation"}}, {"sampler": 41, "target": {"node": 20, "path": "rotation"}}, {"sampler": 42, "target": {"node": 2, "path": "translation"}}, {"sampler": 43, "target": {"node": 2, "path": "rotation"}}, {"sampler": 44, "target": {"node": 22, "path": "translation"}}, {"sampler": 45, "target": {"node": 22, "path": "rotation"}}]}, {"name": "Sprint", "samplers": [{"input": 239, "output": 240, "interpolation": "LINEAR"}, {"input": 241, "output": 242, "interpolation": "LINEAR"}, {"input": 243, "output": 244, "interpolation": "LINEAR"}, {"input": 245, "output": 246, "interpolation": "LINEAR"}, {"input": 247, "output": 248, "interpolation": "LINEAR"}, {"input": 249, "output": 250, "interpolation": "LINEAR"}, {"input": 251, "output": 252, "interpolation": "LINEAR"}, {"input": 253, "output": 254, "interpolation": "LINEAR"}, {"input": 255, "output": 256, "interpolation": "LINEAR"}, {"input": 257, "output": 258, "interpolation": "LINEAR"}, {"input": 259, "output": 260, "interpolation": "LINEAR"}, {"input": 261, "output": 262, "interpolation": "LINEAR"}, {"input": 263, "output": 264, "interpolation": "LINEAR"}, {"input": 265, "output": 266, "interpolation": "LINEAR"}, {"input": 267, "output": 268, "interpolation": "LINEAR"}, {"input": 269, "output": 270, "interpolation": "LINEAR"}, {"input": 271, "output": 272, "interpolation": "LINEAR"}, {"input": 273, "output": 274, "interpolation": "LINEAR"}, {"input": 275, "output": 276, "interpolation": "LINEAR"}, {"input": 277, "output": 278, "interpolation": "LINEAR"}, {"input": 279, "output": 280, "interpolation": "LINEAR"}, {"input": 281, "output": 282, "interpolation": "LINEAR"}, {"input": 283, "output": 284, "interpolation": "LINEAR"}, {"input": 285, "output": 286, "interpolation": "LINEAR"}, {"input": 287, "output": 288, "interpolation": "LINEAR"}, {"input": 289, "output": 290, "interpolation": "LINEAR"}, {"input": 291, "output": 292, "interpolation": "LINEAR"}, {"input": 293, "output": 294, "interpolation": "LINEAR"}, {"input": 295, "output": 296, "interpolation": "LINEAR"}, {"input": 297, "output": 298, "interpolation": "LINEAR"}, {"input": 299, "output": 300, "interpolation": "LINEAR"}, {"input": 301, "output": 302, "interpolation": "LINEAR"}, {"input": 303, "output": 304, "interpolation": "LINEAR"}, {"input": 305, "output": 306, "interpolation": "LINEAR"}, {"input": 307, "output": 308, "interpolation": "LINEAR"}, {"input": 309, "output": 310, "interpolation": "LINEAR"}, {"input": 311, "output": 312, "interpolation": "LINEAR"}, {"input": 313, "output": 314, "interpolation": "LINEAR"}, {"input": 315, "output": 316, "interpolation": "LINEAR"}, {"input": 317, "output": 318, "interpolation": "LINEAR"}, {"input": 319, "output": 320, "interpolation": "LINEAR"}, {"input": 321, "output": 322, "interpolation": "LINEAR"}, {"input": 323, "output": 324, "interpolation": "LINEAR"}, {"input": 325, "output": 326, "interpolation": "LINEAR"}, {"input": 327, "output": 328, "interpolation": "LINEAR"}, {"input": 329, "output": 330, "interpolation": "LINEAR"}], "channels": [{"sampler": 0, "target": {"node": 3, "path": "translation"}}, {"sampler": 1, "target": {"node": 3, "path": "rotation"}}, {"sampler": 2, "target": {"node": 17, "path": "translation"}}, {"sampler": 3, "target": {"node": 17, "path": "rotation"}}, {"sampler": 4, "target": {"node": 7, "path": "translation"}}, {"sampler": 5, "target": {"node": 7, "path": "rotation"}}, {"sampler": 6, "target": {"node": 18, "path": "translation"}}, {"sampler": 7, "target": {"node": 18, "path": "rotation"}}, {"sampler": 8, "target": {"node": 15, "path": "translation"}}, {"sampler": 9, "target": {"node": 15, "path": "rotation"}}, {"sampler": 10, "target": {"node": 13, "path": "translation"}}, {"sampler": 11, "target": {"node": 13, "path": "rotation"}}, {"sampler": 12, "target": {"node": 6, "path": "translation"}}, {"sampler": 13, "target": {"node": 6, "path": "rotation"}}, {"sampler": 14, "target": {"node": 9, "path": "translation"}}, {"sampler": 15, "target": {"node": 9, "path": "rotation"}}, {"sampler": 16, "target": {"node": 16, "path": "translation"}}, {"sampler": 17, "target": {"node": 16, "path": "rotation"}}, {"sampler": 18, "target": {"node": 5, "path": "translation"}}, {"sampler": 19, "target": {"node": 5, "path": "rotation"}}, {"sampler": 20, "target": {"node": 10, "path": "translation"}}, {"sampler": 21, "target": {"node": 10, "path": "rotation"}}, {"sampler": 22, "target": {"node": 4, "path": "translation"}}, {"sampler": 23, "target": {"node": 4, "path": "rotation"}}, {"sampler": 24, "target": {"node": 8, "path": "translation"}}, {"sampler": 25, "target": {"node": 8, "path": "rotation"}}, {"sampler": 26, "target": {"node": 1, "path": "translation"}}, {"sampler": 27, "target": {"node": 1, "path": "rotation"}}, {"sampler": 28, "target": {"node": 11, "path": "translation"}}, {"sampler": 29, "target": {"node": 11, "path": "rotation"}}, {"sampler": 30, "target": {"node": 12, "path": "translation"}}, {"sampler": 31, "target": {"node": 12, "path": "rotation"}}, {"sampler": 32, "target": {"node": 19, "path": "translation"}}, {"sampler": 33, "target": {"node": 19, "path": "rotation"}}, {"sampler": 34, "target": {"node": 14, "path": "translation"}}, {"sampler": 35, "target": {"node": 14, "path": "rotation"}}, {"sampler": 36, "target": {"node": 21, "path": "translation"}}, {"sampler": 37, "target": {"node": 21, "path": "rotation"}}, {"sampler": 38, "target": {"node": 0, "path": "translation"}}, {"sampler": 39, "target": {"node": 0, "path": "rotation"}}, {"sampler": 40, "target": {"node": 20, "path": "translation"}}, {"sampler": 41, "target": {"node": 20, "path": "rotation"}}, {"sampler": 42, "target": {"node": 2, "path": "translation"}}, {"sampler": 43, "target": {"node": 2, "path": "rotation"}}, {"sampler": 44, "target": {"node": 22, "path": "translation"}}, {"sampler": 45, "target": {"node": 22, "path": "rotation"}}]}, {"name": "Jump", "samplers": [{"input": 331, "output": 332, "interpolation": "LINEAR"}, {"input": 333, "output": 334, "interpolation": "LINEAR"}, {"input": 335, "output": 336, "interpolation": "LINEAR"}, {"input": 337, "output": 338, "interpolation": "LINEAR"}, {"input": 339, "output": 340, "interpolation": "LINEAR"}, {"input": 341, "output": 342, "interpolation": "LINEAR"}, {"input": 343, "output": 344, "interpolation": "LINEAR"}, {"input": 345, "output": 346, "interpolation": "LINEAR"}, {"input": 347, "output": 348, "interpolation": "LINEAR"}, {"input": 349, "output": 350, "interpolation": "LINEAR"}, {"input": 351, "output": 352, "interpolation": "LINEAR"}, {"input": 353, "output": 354, "interpolation": "LINEAR"}, {"input": 355, "output": 356, "interpolation": "LINEAR"}, {"input": 357, "output": 358, "interpolation": "LINEAR"}, {"input": 359, "output": 360, "interpolation": "LINEAR"}, {"input": 361, "output": 362, "interpolation": "LINEAR"}, {"input": 363, "output": 364, "interpolation": "LINEAR"}, {"input": 365, "output": 366, "interpolation": "LINEAR"}, {"input": 367, "output": 368, "interpolation": "LINEAR"}, {"input": 369, "output": 370, "interpolation": "LINEAR"}, {"input": 371, "output": 372, "interpolation": "LINEAR"}, {"input": 373, "output": 374, "interpolation": "LINEAR"}, {"input": 375, "output": 376, "interpolation": "LINEAR"}, {"input": 377, "output": 378, "interpolation": "LINEAR"}, {"input": 379, "output": 380, "interpolation": "LINEAR"}, {"input": 381, "output": 382, "interpolation": "LINEAR"}, {"input": 383, "output": 384, "interpolation": "LINEAR"}, {"input": 385, "output": 386, "interpolation": "LINEAR"}, {"input": 387, "output": 388, "interpolation": "LINEAR"}, {"input": 389, "output": 390, "interpolation": "LINEAR"}, {"input": 391, "output": 392, "interpolation": "LINEAR"}, {"input": 393, "output": 394, "interpolation": "LINEAR"}, {"input": 395, "output": 396, "interpolation": "LINEAR"}, {"input": 397, "output": 398, "interpolation": "LINEAR"}, {"input": 399, "output": 400, "interpolation": "LINEAR"}, {"input": 401, "output": 402, "interpolation": "LINEAR"}, {"input": 403, "output": 404, "interpolation": "LINEAR"}, {"input": 405, "output": 406, "interpolation": "LINEAR"}, {"input": 407, "output": 408, "interpolation": "LINEAR"}, {"input": 409, "output": 410, "interpolation": "LINEAR"}, {"input": 411, "output": 412, "interpolation": "LINEAR"}, {"input": 413, "output": 414, "interpolation": "LINEAR"}, {"input": 415, "output": 416, "interpolation": "LINEAR"}, {"input": 417, "output": 418, "interpolation": "LINEAR"}, {"input": 419, "output": 420, "interpolation": "LINEAR"}, {"input": 421, "output": 422, "interpolation": "LINEAR"}], "channels": [{"sampler": 0, "target": {"node": 3, "path": "translation"}}, {"sampler": 1, "target": {"node": 3, "path": "rotation"}}, {"sampler": 2, "target": {"node": 17, "path": "translation"}}, {"sampler": 3, "target": {"node": 17, "path": "rotation"}}, {"sampler": 4, "target": {"node": 7, "path": "translation"}}, {"sampler": 5, "target": {"node": 7, "path": "rotation"}}, {"sampler": 6, "target": {"node": 18, "path": "translation"}}, {"sampler": 7, "target": {"node": 18, "path": "rotation"}}, {"sampler": 8, "target": {"node": 15, "path": "translation"}}, {"sampler": 9, "target": {"node": 15, "path": "rotation"}}, {"sampler": 10, "target": {"node": 13, "path": "translation"}}, {"sampler": 11, "target": {"node": 13, "path": "rotation"}}, {"sampler": 12, "target": {"node": 6, "path": "translation"}}, {"sampler": 13, "target": {"node": 6, "path": "rotation"}}, {"sampler": 14, "target": {"node": 9, "path": "translation"}}, {"sampler": 15, "target": {"node": 9, "path": "rotation"}}, {"sampler": 16, "target": {"node": 16, "path": "translation"}}, {"sampler": 17, "target": {"node": 16, "path": "rotation"}}, {"sampler": 18, "target": {"node": 5, "path": "translation"}}, {"sampler": 19, "target": {"node": 5, "path": "rotation"}}, {"sampler": 20, "target": {"node": 10, "path": "translation"}}, {"sampler": 21, "target": {"node": 10, "path": "rotation"}}, {"sampler": 22, "target": {"node": 4, "path": "translation"}}, {"sampler": 23, "target": {"node": 4, "path": "rotation"}}, {"sampler": 24, "target": {"node": 8, "path": "translation"}}, {"sampler": 25, "target": {"node": 8, "path": "rotation"}}, {"sampler": 26, "target": {"node": 1, "path": "translation"}}, {"sampler": 27, "target": {"node": 1, "path": "rotation"}}, {"sampler": 28, "target": {"node": 11, "path": "translation"}}, {"sampler": 29, "target": {"node": 11, "path": "rotation"}}, {"sampler": 30, "target": {"node": 12, "path": "translation"}}, {"sampler": 31, "target": {"node": 12, "path": "rotation"}}, {"sampler": 32, "target": {"node": 19, "path": "translation"}}, {"sampler": 33, "target": {"node": 19, "path": "rotation"}}, {"sampler": 34, "target": {"node": 14, "path": "translation"}}, {"sampler": 35, "target": {"node": 14, "path": "rotation"}}, {"sampler": 36, "target": {"node": 21, "path": "translation"}}, {"sampler": 37, "target": {"node": 21, "path": "rotation"}}, {"sampler": 38, "target": {"node": 0, "path": "translation"}}, {"sampler": 39, "target": {"node": 0, "path": "rotation"}}, {"sampler": 40, "target": {"node": 20, "path": "translation"}}, {"sampler": 41, "target": {"node": 20, "path": "rotation"}}, {"sampler": 42, "target": {"node": 2, "path": "translation"}}, {"sampler": 43, "target": {"node": 2, "path": "rotation"}}, {"sampler": 44, "target": {"node": 22, "path": "translation"}}, {"sampler": 45, "target": {"node": 22, "path": "rotation"}}]}]}