{"asset": {"generator": "Khronos glTF Blender I/O v1.7.33", "version": "2.0"}, "scene": 0, "scenes": [{"name": "Scene", "nodes": [31]}], "nodes": [{"name": "toes.l", "rotation": [4.775987960670136e-08, 0.920354962348938, -0.39108410477638245, 5.801560831741881e-08], "scale": [1, 0.9999966025352478, 1.000003695487976], "translation": [-1.5114396845206102e-08, 0.16565002501010895, 5.171392203351388e-09]}, {"children": [0], "name": "foot.l", "rotation": [-0.45523902773857117, 1.6197549967955638e-08, -3.4356396838575165e-08, 0.8903692960739136], "scale": [1, 1.0000008344650269, 0.9999987483024597], "translation": [1.833934670791848e-10, 0.14943702518939972, 9.65873825364838e-10]}, {"children": [1], "name": "lowerleg.l", "rotation": [0.1062251403927803, 6.865227675234564e-08, -7.377025923460678e-08, 0.9943422079086304], "scale": [1, 1.0000004768371582, 1.0000001192092896], "translation": [3.57975737941274e-09, 0.22707749903202057, -6.140325137238278e-09]}, {"children": [2], "name": "upperleg.l", "rotation": [0.9998490810394287, -7.132765489359372e-08, -1.2042731256656225e-08, 0.017373191192746162], "scale": [1, 0.9999998211860657, 1.0000011920928955], "translation": [0.17094506323337555, 0.11358726024627686, 1.392327231286572e-08]}, {"name": "toes.r", "rotation": [2.1219815238282536e-08, 0.920354962348938, -0.39108410477638245, 6.450591172324494e-08], "scale": [1, 0.9999966025352478, 1.000003695487976], "translation": [2.1323326437894252e-10, 0.16565002501010895, 5.1714001969571655e-09]}, {"children": [4], "name": "foot.r", "rotation": [-0.45523902773857117, 1.659820298982595e-07, 2.250484687493781e-09, 0.8903692960739136], "scale": [1, 1.0000008344650269, 0.9999987483024597], "translation": [-1.833922180782821e-10, 0.14943702518939972, 9.65878599323844e-10]}, {"children": [5], "name": "lowerleg.r", "rotation": [0.1062251403927803, -6.865229096320036e-08, 7.377025923460678e-08, 0.9943422079086304], "scale": [1, 1.0000004768371582, 1.0000001192092896], "translation": [-3.57975737941274e-09, 0.22707749903202057, -6.140325137238278e-09]}, {"children": [6], "name": "upperleg.r", "rotation": [0.9998490810394287, 7.426572778967966e-08, -3.172628026959501e-08, 0.017373191192746162], "scale": [1, 0.9999998211860657, 1.0000011920928955], "translation": [-0.17094506323337555, 0.11358726024627686, 1.392327231286572e-08]}, {"name": "head", "rotation": [0, 4.235164736271502e-22, 0, 1], "translation": [0, 0.26879656314849854, 0]}, {"name": "handslot.r", "rotation": [1.6805922209428559e-09, -1.6805921099205534e-09, 0.7071068286895752, 0.7071067094802856], "scale": [0.9999999403953552, 1, 0.9999999403953552], "translation": [-5.138920400327152e-10, 0.09612506628036499, -0.05750012397766113]}, {"children": [9], "name": "hand.r", "rotation": [1.199916277450086e-09, -9.210968698880606e-08, 5.455195605463814e-06, 1], "scale": [1, 0.9999999403953552, 0.9999999403953552], "translation": [3.9968028886505635e-15, 0.07382583618164062, -2.220446049250313e-16]}, {"children": [10], "name": "wrist.r", "rotation": [5.11842720984923e-11, 3.0773722459187525e-10, -0.02665809914469719, 0.9996446967124939], "scale": [0.9999999403953552, 0.9999999403953552, 0.9999999403953552], "translation": [-7.426281811717672e-09, 0.26004382967948914, 6.127964108371131e-11]}, {"children": [11], "name": "lowerarm.r", "rotation": [1.4942596049394297e-09, 6.228115267958856e-08, 0.05528552085161209, 0.9984706044197083], "scale": [1.000000238418579, 0.9999998807907104, 0.9999999403953552], "translation": [-7.12192249618937e-11, 0.2418973296880722, -1.1940561250867177e-07]}, {"children": [12], "name": "upperarm.r", "rotation": [-0.514121413230896, 0.48546773195266724, 0.4854677617549896, 0.514121949672699], "scale": [0.9999993443489075, 0.9999993443489075, 0.9999997615814209], "translation": [-0.21200737357139587, 0.13413214683532715, 8.40246201505579e-08]}, {"name": "handslot.l", "rotation": [1.6806123159796016e-09, 1.6806122049572991e-09, -0.7071068286895752, 0.7071067094802856], "scale": [0.9999999403953552, 1, 0.9999999403953552], "translation": [5.138920400327152e-10, 0.09612506628036499, -0.05750012397766113]}, {"children": [14], "name": "hand.l", "rotation": [1.2001638571845774e-09, 1.358929182515567e-07, -5.455195605463814e-06, 1], "scale": [1, 0.9999999403953552, 0.9999999403953552], "translation": [9.054978988842777e-13, 0.07382583618164062, -2.220446049250313e-16]}, {"children": [15], "name": "wrist.l", "rotation": [5.118455659314236e-11, -3.0774255366239345e-10, 0.02665809914469719, 0.9996446967124939], "scale": [0.9999999403953552, 0.9999999403953552, 0.9999999403953552], "translation": [7.426281811717672e-09, 0.26004382967948914, 6.127964108371131e-11]}, {"children": [16], "name": "lowerarm.l", "rotation": [1.4942596049394297e-09, -6.228115267958856e-08, -0.05528552085161209, 0.9984706044197083], "scale": [1.000000238418579, 0.9999998807907104, 0.9999999403953552], "translation": [-3.219664312936743e-09, 0.24189729988574982, -1.1940561250867177e-07]}, {"children": [17], "name": "upperarm.l", "rotation": [-0.5141214728355408, -0.485467791557312, -0.4854677617549896, 0.5141218900680542], "scale": [0.9999993443489075, 0.9999993443489075, 0.9999997615814209], "translation": [0.21200737357139587, 0.13413214683532715, 8.40246201505579e-08]}, {"children": [8, 13, 18], "name": "chest", "rotation": [0, -8.470329472543003e-22, 0, 1], "scale": [1, 0.9999999403953552, 1], "translation": [0, 0.37498795986175537, 0]}, {"children": [19], "name": "spine", "rotation": [0, 7.105427357601002e-15, 0, 1], "translation": [0, 0.19197750091552734, 0]}, {"children": [3, 7, 20], "name": "hips", "rotation": [0, -1.1920927533992653e-07, 0, 1], "translation": [0, 0.4056634306907654, 0]}, {"children": [21], "name": "root", "rotation": [0, 1.1920927533992653e-07, 0, 1]}, {"mesh": 0, "name": "Ranger_ArmLeft", "skin": 0}, {"mesh": 1, "name": "Ranger_ArmRight", "skin": 0}, {"mesh": 2, "name": "Ranger_Body", "skin": 0}, {"mesh": 3, "name": "Ranger_Cape", "skin": 0}, {"mesh": 4, "name": "Ranger_Head", "skin": 0}, {"mesh": 5, "name": "Ranger_LegLeft", "skin": 0}, {"mesh": 6, "name": "Ranger_LegRight", "skin": 0}, {"mesh": 7, "name": "Ranger_Quiver", "skin": 0}, {"children": [23, 24, 25, 26, 27, 28, 29, 30, 22], "name": "Rig_Medium", "scale": [0.7472687887385192, 0.7472687887385192, 0.7472687887385192]}], "materials": [{"doubleSided": true, "name": "ranger", "pbrMetallicRoughness": {"baseColorTexture": {"index": 0}, "metallicFactor": 0, "roughnessFactor": 0.5}}], "meshes": [{"name": "Ranger_ArmLeft", "primitives": [{"attributes": {"POSITION": 0, "NORMAL": 1, "TEXCOORD_0": 2, "JOINTS_0": 3, "WEIGHTS_0": 4}, "indices": 5, "material": 0}]}, {"name": "Ranger_ArmRight", "primitives": [{"attributes": {"POSITION": 7, "NORMAL": 8, "TEXCOORD_0": 9, "JOINTS_0": 10, "WEIGHTS_0": 11}, "indices": 12, "material": 0}]}, {"name": "Ranger_Body", "primitives": [{"attributes": {"POSITION": 13, "NORMAL": 14, "TEXCOORD_0": 15, "JOINTS_0": 16, "WEIGHTS_0": 17}, "indices": 18, "material": 0}]}, {"name": "Ranger_Cape", "primitives": [{"attributes": {"POSITION": 19, "NORMAL": 20, "TEXCOORD_0": 21, "JOINTS_0": 22, "WEIGHTS_0": 23}, "indices": 24, "material": 0}]}, {"name": "Ranger_Head", "primitives": [{"attributes": {"POSITION": 25, "NORMAL": 26, "TEXCOORD_0": 27, "JOINTS_0": 28, "WEIGHTS_0": 29}, "indices": 30, "material": 0}]}, {"name": "Ranger_LegLeft", "primitives": [{"attributes": {"POSITION": 31, "NORMAL": 32, "TEXCOORD_0": 33, "JOINTS_0": 34, "WEIGHTS_0": 35}, "indices": 36, "material": 0}]}, {"name": "Ranger_LegRight", "primitives": [{"attributes": {"POSITION": 37, "NORMAL": 38, "TEXCOORD_0": 39, "JOINTS_0": 40, "WEIGHTS_0": 41}, "indices": 42, "material": 0}]}, {"name": "Ranger_Quiver", "primitives": [{"attributes": {"POSITION": 43, "NORMAL": 44, "TEXCOORD_0": 45, "JOINTS_0": 46, "WEIGHTS_0": 47}, "indices": 48, "material": 0}]}], "textures": [{"sampler": 1, "source": 0}], "images": [{"uri": "ranger.png"}], "skins": [{"inverseBindMatrices": 6, "joints": [22, 21, 3, 2, 1, 0, 7, 6, 5, 4, 20, 19, 8, 13, 12, 11, 10, 9, 18, 17, 16, 15, 14], "name": "Rig_Medium"}], "accessors": [{"bufferView": 0, "componentType": 5126, "count": 668, "max": [0.9712555408477783, 1.2524663209915161, 0.14893627166748047], "min": [0.08884596824645996, 0.9570232629776001, -0.14893615245819092], "type": "VEC3"}, {"bufferView": 1, "componentType": 5126, "count": 668, "type": "VEC3"}, {"bufferView": 2, "componentType": 5126, "count": 668, "type": "VEC2"}, {"bufferView": 3, "componentType": 5121, "count": 668, "type": "VEC4"}, {"bufferView": 4, "componentType": 5126, "count": 668, "type": "VEC4"}, {"bufferView": 5, "componentType": 5123, "count": 2460, "type": "SCALAR"}, {"bufferView": 6, "componentType": 5126, "count": 23, "type": "MAT4"}, {"bufferView": 7, "componentType": 5126, "count": 668, "max": [-0.08884596824645996, 1.2524663209915161, 0.14893627166748047], "min": [-0.9712555408477783, 0.9570232629776001, -0.14893615245819092], "type": "VEC3"}, {"bufferView": 8, "componentType": 5126, "count": 668, "type": "VEC3"}, {"bufferView": 9, "componentType": 5126, "count": 668, "type": "VEC2"}, {"bufferView": 10, "componentType": 5121, "count": 668, "type": "VEC4"}, {"bufferView": 11, "componentType": 5126, "count": 668, "type": "VEC4"}, {"bufferView": 12, "componentType": 5123, "count": 2460, "type": "SCALAR"}, {"bufferView": 13, "componentType": 5126, "count": 3224, "max": [0.5084757208824158, 1.3145368099212646, 0.3509315550327301], "min": [-0.5084757208824158, 0.32466456294059753, -0.3468415141105652], "type": "VEC3"}, {"bufferView": 14, "componentType": 5126, "count": 3224, "type": "VEC3"}, {"bufferView": 15, "componentType": 5126, "count": 3224, "type": "VEC2"}, {"bufferView": 16, "componentType": 5121, "count": 3224, "type": "VEC4"}, {"bufferView": 17, "componentType": 5126, "count": 3224, "type": "VEC4"}, {"bufferView": 18, "componentType": 5123, "count": 10383, "type": "SCALAR"}, {"bufferView": 19, "componentType": 5126, "count": 56, "max": [0.4853890538215637, 1.26152503490448, -0.043504904955625534], "min": [-0.4853677749633789, 0.11958026885986328, -0.38609376549720764], "type": "VEC3"}, {"bufferView": 20, "componentType": 5126, "count": 56, "type": "VEC3"}, {"bufferView": 21, "componentType": 5126, "count": 56, "type": "VEC2"}, {"bufferView": 22, "componentType": 5121, "count": 56, "type": "VEC4"}, {"bufferView": 23, "componentType": 5126, "count": 56, "type": "VEC4"}, {"bufferView": 24, "componentType": 5123, "count": 252, "type": "SCALAR"}, {"bufferView": 25, "componentType": 5126, "count": 1172, "max": [0.5426634550094604, 2.272925853729248, 0.5350261330604553], "min": [-0.5426494479179382, 1.1927990913391113, -0.48784610629081726], "type": "VEC3"}, {"bufferView": 26, "componentType": 5126, "count": 1172, "type": "VEC3"}, {"bufferView": 27, "componentType": 5126, "count": 1172, "type": "VEC2"}, {"bufferView": 28, "componentType": 5121, "count": 1172, "type": "VEC4"}, {"bufferView": 29, "componentType": 5126, "count": 1172, "type": "VEC4"}, {"bufferView": 30, "componentType": 5123, "count": 4800, "type": "SCALAR"}, {"bufferView": 31, "componentType": 5126, "count": 780, "max": [0.29099878668785095, 0.5291943550109863, 0.28061366081237793], "min": [0.04587031155824661, -0.0020253092516213655, -0.1277633011341095], "type": "VEC3"}, {"bufferView": 32, "componentType": 5126, "count": 780, "type": "VEC3"}, {"bufferView": 33, "componentType": 5126, "count": 780, "type": "VEC2"}, {"bufferView": 34, "componentType": 5121, "count": 780, "type": "VEC4"}, {"bufferView": 35, "componentType": 5126, "count": 780, "type": "VEC4"}, {"bufferView": 36, "componentType": 5123, "count": 2790, "type": "SCALAR"}, {"bufferView": 37, "componentType": 5126, "count": 780, "max": [-0.04587031155824661, 0.5291943550109863, 0.28061366081237793], "min": [-0.29099878668785095, -0.0020253092516213655, -0.1277633011341095], "type": "VEC3"}, {"bufferView": 38, "componentType": 5126, "count": 780, "type": "VEC3"}, {"bufferView": 39, "componentType": 5126, "count": 780, "type": "VEC2"}, {"bufferView": 40, "componentType": 5121, "count": 780, "type": "VEC4"}, {"bufferView": 41, "componentType": 5126, "count": 780, "type": "VEC4"}, {"bufferView": 42, "componentType": 5123, "count": 2790, "type": "SCALAR"}, {"bufferView": 43, "componentType": 5126, "count": 386, "max": [0.3216232657432556, 1.3620381355285645, -0.26936015486717224], "min": [-0.438076913356781, 0.6051390171051025, -0.5143533945083618], "type": "VEC3"}, {"bufferView": 44, "componentType": 5126, "count": 386, "type": "VEC3"}, {"bufferView": 45, "componentType": 5126, "count": 386, "type": "VEC2"}, {"bufferView": 46, "componentType": 5121, "count": 386, "type": "VEC4"}, {"bufferView": 47, "componentType": 5126, "count": 386, "type": "VEC4"}, {"bufferView": 48, "componentType": 5123, "count": 765, "type": "SCALAR"}, {"bufferView": 49, "componentType": 5126, "count": 33, "type": "SCALAR", "min": [0], "max": [1.0666666666666667]}, {"bufferView": 50, "componentType": 5126, "count": 33, "type": "VEC3"}, {"bufferView": 51, "componentType": 5126, "count": 33, "type": "SCALAR", "min": [0], "max": [1.0666666666666667]}, {"bufferView": 52, "componentType": 5126, "count": 33, "type": "VEC4"}, {"bufferView": 53, "componentType": 5126, "count": 2, "type": "SCALAR", "min": [0], "max": [1.0666666666666667]}, {"bufferView": 54, "componentType": 5126, "count": 2, "type": "VEC3"}, {"bufferView": 55, "componentType": 5126, "count": 33, "type": "SCALAR", "min": [0], "max": [1.0666666666666667]}, {"bufferView": 56, "componentType": 5126, "count": 33, "type": "VEC4"}, {"bufferView": 57, "componentType": 5126, "count": 2, "type": "SCALAR", "min": [0], "max": [1.0666666666666667]}, {"bufferView": 58, "componentType": 5126, "count": 2, "type": "VEC3"}, {"bufferView": 59, "componentType": 5126, "count": 33, "type": "SCALAR", "min": [0], "max": [1.0666666666666667]}, {"bufferView": 60, "componentType": 5126, "count": 33, "type": "VEC4"}, {"bufferView": 61, "componentType": 5126, "count": 2, "type": "SCALAR", "min": [0], "max": [1.0666666666666667]}, {"bufferView": 62, "componentType": 5126, "count": 2, "type": "VEC3"}, {"bufferView": 63, "componentType": 5126, "count": 33, "type": "SCALAR", "min": [0], "max": [1.0666666666666667]}, {"bufferView": 64, "componentType": 5126, "count": 33, "type": "VEC4"}, {"bufferView": 65, "componentType": 5126, "count": 2, "type": "SCALAR", "min": [0], "max": [1.0666666666666667]}, {"bufferView": 66, "componentType": 5126, "count": 2, "type": "VEC3"}, {"bufferView": 67, "componentType": 5126, "count": 33, "type": "SCALAR", "min": [0], "max": [1.0666666666666667]}, {"bufferView": 68, "componentType": 5126, "count": 33, "type": "VEC4"}, {"bufferView": 69, "componentType": 5126, "count": 2, "type": "SCALAR", "min": [0], "max": [1.0666666666666667]}, {"bufferView": 70, "componentType": 5126, "count": 2, "type": "VEC3"}, {"bufferView": 71, "componentType": 5126, "count": 33, "type": "SCALAR", "min": [0], "max": [1.0666666666666667]}, {"bufferView": 72, "componentType": 5126, "count": 33, "type": "VEC4"}, {"bufferView": 73, "componentType": 5126, "count": 2, "type": "SCALAR", "min": [0], "max": [1.0666666666666667]}, {"bufferView": 74, "componentType": 5126, "count": 2, "type": "VEC3"}, {"bufferView": 75, "componentType": 5126, "count": 2, "type": "SCALAR", "min": [0], "max": [1.0666666666666667]}, {"bufferView": 76, "componentType": 5126, "count": 2, "type": "VEC4"}, {"bufferView": 77, "componentType": 5126, "count": 2, "type": "SCALAR", "min": [0], "max": [1.0666666666666667]}, {"bufferView": 78, "componentType": 5126, "count": 2, "type": "VEC3"}, {"bufferView": 79, "componentType": 5126, "count": 33, "type": "SCALAR", "min": [0], "max": [1.0666666666666667]}, {"bufferView": 80, "componentType": 5126, "count": 33, "type": "VEC4"}, {"bufferView": 81, "componentType": 5126, "count": 2, "type": "SCALAR", "min": [0], "max": [1.0666666666666667]}, {"bufferView": 82, "componentType": 5126, "count": 2, "type": "VEC3"}, {"bufferView": 83, "componentType": 5126, "count": 33, "type": "SCALAR", "min": [0], "max": [1.0666666666666667]}, {"bufferView": 84, "componentType": 5126, "count": 33, "type": "VEC4"}, {"bufferView": 85, "componentType": 5126, "count": 2, "type": "SCALAR", "min": [0], "max": [1.0666666666666667]}, {"bufferView": 86, "componentType": 5126, "count": 2, "type": "VEC3"}, {"bufferView": 87, "componentType": 5126, "count": 33, "type": "SCALAR", "min": [0], "max": [1.0666666666666667]}, {"bufferView": 88, "componentType": 5126, "count": 33, "type": "VEC4"}, {"bufferView": 89, "componentType": 5126, "count": 2, "type": "SCALAR", "min": [0], "max": [1.0666666666666667]}, {"bufferView": 90, "componentType": 5126, "count": 2, "type": "VEC3"}, {"bufferView": 91, "componentType": 5126, "count": 2, "type": "SCALAR", "min": [0], "max": [1.0666666666666667]}, {"bufferView": 92, "componentType": 5126, "count": 2, "type": "VEC4"}, {"bufferView": 93, "componentType": 5126, "count": 2, "type": "SCALAR", "min": [0], "max": [1.0666666666666667]}, {"bufferView": 94, "componentType": 5126, "count": 2, "type": "VEC3"}, {"bufferView": 95, "componentType": 5126, "count": 33, "type": "SCALAR", "min": [0], "max": [1.0666666666666667]}, {"bufferView": 96, "componentType": 5126, "count": 33, "type": "VEC4"}, {"bufferView": 97, "componentType": 5126, "count": 2, "type": "SCALAR", "min": [0], "max": [1.0666666666666667]}, {"bufferView": 98, "componentType": 5126, "count": 2, "type": "VEC3"}, {"bufferView": 99, "componentType": 5126, "count": 33, "type": "SCALAR", "min": [0], "max": [1.0666666666666667]}, {"bufferView": 100, "componentType": 5126, "count": 33, "type": "VEC4"}, {"bufferView": 101, "componentType": 5126, "count": 2, "type": "SCALAR", "min": [0], "max": [1.0666666666666667]}, {"bufferView": 102, "componentType": 5126, "count": 2, "type": "VEC3"}, {"bufferView": 103, "componentType": 5126, "count": 33, "type": "SCALAR", "min": [0], "max": [1.0666666666666667]}, {"bufferView": 104, "componentType": 5126, "count": 33, "type": "VEC4"}, {"bufferView": 105, "componentType": 5126, "count": 2, "type": "SCALAR", "min": [0], "max": [1.0666666666666667]}, {"bufferView": 106, "componentType": 5126, "count": 2, "type": "VEC3"}, {"bufferView": 107, "componentType": 5126, "count": 33, "type": "SCALAR", "min": [0], "max": [1.0666666666666667]}, {"bufferView": 108, "componentType": 5126, "count": 33, "type": "VEC4"}, {"bufferView": 109, "componentType": 5126, "count": 2, "type": "SCALAR", "min": [0], "max": [1.0666666666666667]}, {"bufferView": 110, "componentType": 5126, "count": 2, "type": "VEC3"}, {"bufferView": 111, "componentType": 5126, "count": 2, "type": "SCALAR", "min": [0], "max": [1.0666666666666667]}, {"bufferView": 112, "componentType": 5126, "count": 2, "type": "VEC4"}, {"bufferView": 113, "componentType": 5126, "count": 2, "type": "SCALAR", "min": [0], "max": [1.0666666666666667]}, {"bufferView": 114, "componentType": 5126, "count": 2, "type": "VEC3"}, {"bufferView": 115, "componentType": 5126, "count": 33, "type": "SCALAR", "min": [0], "max": [1.0666666666666667]}, {"bufferView": 116, "componentType": 5126, "count": 33, "type": "VEC4"}, {"bufferView": 117, "componentType": 5126, "count": 2, "type": "SCALAR", "min": [0], "max": [1.0666666666666667]}, {"bufferView": 118, "componentType": 5126, "count": 2, "type": "VEC3"}, {"bufferView": 119, "componentType": 5126, "count": 33, "type": "SCALAR", "min": [0], "max": [1.0666666666666667]}, {"bufferView": 120, "componentType": 5126, "count": 33, "type": "VEC4"}, {"bufferView": 121, "componentType": 5126, "count": 2, "type": "SCALAR", "min": [0], "max": [1.0666666666666667]}, {"bufferView": 122, "componentType": 5126, "count": 2, "type": "VEC3"}, {"bufferView": 123, "componentType": 5126, "count": 33, "type": "SCALAR", "min": [0], "max": [1.0666666666666667]}, {"bufferView": 124, "componentType": 5126, "count": 33, "type": "VEC4"}, {"bufferView": 125, "componentType": 5126, "count": 2, "type": "SCALAR", "min": [0], "max": [1.0666666666666667]}, {"bufferView": 126, "componentType": 5126, "count": 2, "type": "VEC3"}, {"bufferView": 127, "componentType": 5126, "count": 33, "type": "SCALAR", "min": [0], "max": [1.0666666666666667]}, {"bufferView": 128, "componentType": 5126, "count": 33, "type": "VEC4"}, {"bufferView": 129, "componentType": 5126, "count": 2, "type": "SCALAR", "min": [0], "max": [1.0666666666666667]}, {"bufferView": 130, "componentType": 5126, "count": 2, "type": "VEC3"}, {"bufferView": 131, "componentType": 5126, "count": 33, "type": "SCALAR", "min": [0], "max": [1.0666666666666667]}, {"bufferView": 132, "componentType": 5126, "count": 33, "type": "VEC4"}, {"bufferView": 133, "componentType": 5126, "count": 2, "type": "SCALAR", "min": [0], "max": [1.0666666666666667]}, {"bufferView": 134, "componentType": 5126, "count": 2, "type": "VEC3"}, {"bufferView": 135, "componentType": 5126, "count": 33, "type": "SCALAR", "min": [0], "max": [1.0666666666666667]}, {"bufferView": 136, "componentType": 5126, "count": 33, "type": "VEC4"}, {"bufferView": 137, "componentType": 5126, "count": 2, "type": "SCALAR", "min": [0], "max": [1.0666666666666667]}, {"bufferView": 138, "componentType": 5126, "count": 2, "type": "VEC3"}, {"bufferView": 139, "componentType": 5126, "count": 33, "type": "SCALAR", "min": [0], "max": [1.0666666666666667]}, {"bufferView": 140, "componentType": 5126, "count": 33, "type": "VEC4"}, {"bufferView": 141, "componentType": 5126, "count": 2, "type": "SCALAR", "min": [0], "max": [1.0666666666666667]}, {"bufferView": 142, "componentType": 5126, "count": 2, "type": "VEC3"}, {"bufferView": 143, "componentType": 5126, "count": 33, "type": "SCALAR", "min": [0], "max": [1.0666666666666667]}, {"bufferView": 144, "componentType": 5126, "count": 33, "type": "VEC4"}, {"bufferView": 145, "componentType": 5126, "count": 2, "type": "SCALAR", "min": [0], "max": [1.0666666666666667]}, {"bufferView": 146, "componentType": 5126, "count": 2, "type": "VEC3"}, {"bufferView": 147, "componentType": 5126, "count": 33, "type": "SCALAR", "min": [0], "max": [1.0666666666666667]}, {"bufferView": 148, "componentType": 5126, "count": 33, "type": "VEC4"}, {"bufferView": 149, "componentType": 5126, "count": 2, "type": "SCALAR", "min": [0], "max": [1.0666666666666667]}, {"bufferView": 150, "componentType": 5126, "count": 2, "type": "VEC3"}, {"bufferView": 151, "componentType": 5126, "count": 2, "type": "SCALAR", "min": [0], "max": [1.0666666666666667]}, {"bufferView": 152, "componentType": 5126, "count": 2, "type": "VEC4"}, {"bufferView": 153, "componentType": 5126, "count": 2, "type": "SCALAR", "min": [0], "max": [1.0666666666666667]}, {"bufferView": 154, "componentType": 5126, "count": 2, "type": "VEC3"}, {"bufferView": 155, "componentType": 5126, "count": 33, "type": "SCALAR", "min": [0], "max": [1.0666666666666667]}, {"bufferView": 156, "componentType": 5126, "count": 33, "type": "VEC4"}, {"bufferView": 157, "componentType": 5126, "count": 2, "type": "SCALAR", "min": [0], "max": [1.0666666666666667]}, {"bufferView": 158, "componentType": 5126, "count": 2, "type": "VEC3"}, {"bufferView": 159, "componentType": 5126, "count": 33, "type": "SCALAR", "min": [0], "max": [1.0666666666666667]}, {"bufferView": 160, "componentType": 5126, "count": 33, "type": "VEC4"}, {"bufferView": 161, "componentType": 5126, "count": 2, "type": "SCALAR", "min": [0], "max": [1.0666666666666667]}, {"bufferView": 162, "componentType": 5126, "count": 2, "type": "VEC3"}, {"bufferView": 163, "componentType": 5126, "count": 33, "type": "SCALAR", "min": [0], "max": [1.0666666666666667]}, {"bufferView": 164, "componentType": 5126, "count": 33, "type": "VEC4"}, {"bufferView": 165, "componentType": 5126, "count": 2, "type": "SCALAR", "min": [0], "max": [1.0666666666666667]}, {"bufferView": 166, "componentType": 5126, "count": 2, "type": "VEC3"}, {"bufferView": 167, "componentType": 5126, "count": 33, "type": "SCALAR", "min": [0], "max": [1.0666666666666667]}, {"bufferView": 168, "componentType": 5126, "count": 33, "type": "VEC4"}, {"bufferView": 169, "componentType": 5126, "count": 2, "type": "SCALAR", "min": [0], "max": [1.0666666666666667]}, {"bufferView": 170, "componentType": 5126, "count": 2, "type": "VEC3"}, {"bufferView": 171, "componentType": 5126, "count": 33, "type": "SCALAR", "min": [0], "max": [1.0666666666666667]}, {"bufferView": 172, "componentType": 5126, "count": 33, "type": "VEC4"}, {"bufferView": 173, "componentType": 5126, "count": 33, "type": "SCALAR", "min": [0], "max": [1.0666666666666667]}, {"bufferView": 174, "componentType": 5126, "count": 33, "type": "VEC3"}, {"bufferView": 175, "componentType": 5126, "count": 33, "type": "SCALAR", "min": [0], "max": [1.0666666666666667]}, {"bufferView": 176, "componentType": 5126, "count": 33, "type": "VEC4"}, {"bufferView": 177, "componentType": 5126, "count": 2, "type": "SCALAR", "min": [0], "max": [1.0666666666666667]}, {"bufferView": 178, "componentType": 5126, "count": 2, "type": "VEC3"}, {"bufferView": 179, "componentType": 5126, "count": 2, "type": "SCALAR", "min": [0], "max": [1.0666666666666667]}, {"bufferView": 180, "componentType": 5126, "count": 2, "type": "VEC4"}, {"bufferView": 181, "componentType": 5126, "count": 2, "type": "SCALAR", "min": [0], "max": [1.0666666666666667]}, {"bufferView": 182, "componentType": 5126, "count": 2, "type": "VEC3"}, {"bufferView": 183, "componentType": 5126, "count": 2, "type": "SCALAR", "min": [0], "max": [1.0666666666666667]}, {"bufferView": 184, "componentType": 5126, "count": 2, "type": "VEC4"}, {"bufferView": 185, "componentType": 5126, "count": 2, "type": "SCALAR", "min": [0], "max": [1.0666666666666667]}, {"bufferView": 186, "componentType": 5126, "count": 2, "type": "VEC3"}, {"bufferView": 187, "componentType": 5126, "count": 33, "type": "SCALAR", "min": [0], "max": [1.0666666666666667]}, {"bufferView": 188, "componentType": 5126, "count": 33, "type": "VEC4"}, {"bufferView": 189, "componentType": 5126, "count": 2, "type": "SCALAR", "min": [0], "max": [1.0666666666666667]}, {"bufferView": 190, "componentType": 5126, "count": 2, "type": "VEC3"}, {"bufferView": 191, "componentType": 5126, "count": 33, "type": "SCALAR", "min": [0], "max": [1.0666666666666667]}, {"bufferView": 192, "componentType": 5126, "count": 33, "type": "VEC4"}, {"bufferView": 193, "componentType": 5126, "count": 2, "type": "SCALAR", "min": [0], "max": [1.0666666666666667]}, {"bufferView": 194, "componentType": 5126, "count": 2, "type": "VEC3"}, {"bufferView": 195, "componentType": 5126, "count": 33, "type": "SCALAR", "min": [0], "max": [1.0666666666666667]}, {"bufferView": 196, "componentType": 5126, "count": 33, "type": "VEC4"}, {"bufferView": 197, "componentType": 5126, "count": 2, "type": "SCALAR", "min": [0], "max": [1.0666666666666667]}, {"bufferView": 198, "componentType": 5126, "count": 2, "type": "VEC3"}, {"bufferView": 199, "componentType": 5126, "count": 33, "type": "SCALAR", "min": [0], "max": [1.0666666666666667]}, {"bufferView": 200, "componentType": 5126, "count": 33, "type": "VEC4"}, {"bufferView": 201, "componentType": 5126, "count": 2, "type": "SCALAR", "min": [0], "max": [1.0666666666666667]}, {"bufferView": 202, "componentType": 5126, "count": 2, "type": "VEC3"}, {"bufferView": 203, "componentType": 5126, "count": 33, "type": "SCALAR", "min": [0], "max": [1.0666666666666667]}, {"bufferView": 204, "componentType": 5126, "count": 33, "type": "VEC4"}, {"bufferView": 205, "componentType": 5126, "count": 2, "type": "SCALAR", "min": [0], "max": [1.0666666666666667]}, {"bufferView": 206, "componentType": 5126, "count": 2, "type": "VEC3"}, {"bufferView": 207, "componentType": 5126, "count": 33, "type": "SCALAR", "min": [0], "max": [1.0666666666666667]}, {"bufferView": 208, "componentType": 5126, "count": 33, "type": "VEC4"}, {"bufferView": 209, "componentType": 5126, "count": 2, "type": "SCALAR", "min": [0], "max": [1.0666666666666667]}, {"bufferView": 210, "componentType": 5126, "count": 2, "type": "VEC3"}, {"bufferView": 211, "componentType": 5126, "count": 33, "type": "SCALAR", "min": [0], "max": [1.0666666666666667]}, {"bufferView": 212, "componentType": 5126, "count": 33, "type": "VEC4"}, {"bufferView": 213, "componentType": 5126, "count": 33, "type": "SCALAR", "min": [0], "max": [1.0666666666666667]}, {"bufferView": 214, "componentType": 5126, "count": 33, "type": "VEC3"}, {"bufferView": 215, "componentType": 5126, "count": 2, "type": "SCALAR", "min": [0], "max": [1.0666666666666667]}, {"bufferView": 216, "componentType": 5126, "count": 2, "type": "VEC4"}, {"bufferView": 217, "componentType": 5126, "count": 2, "type": "SCALAR", "min": [0], "max": [1.0666666666666667]}, {"bufferView": 218, "componentType": 5126, "count": 2, "type": "VEC3"}, {"bufferView": 219, "componentType": 5126, "count": 2, "type": "SCALAR", "min": [0], "max": [1.0666666666666667]}, {"bufferView": 220, "componentType": 5126, "count": 2, "type": "VEC4"}, {"bufferView": 221, "componentType": 5126, "count": 33, "type": "SCALAR", "min": [0], "max": [1.0666666666666667]}, {"bufferView": 222, "componentType": 5126, "count": 33, "type": "VEC3"}, {"bufferView": 223, "componentType": 5126, "count": 33, "type": "SCALAR", "min": [0], "max": [1.0666666666666667]}, {"bufferView": 224, "componentType": 5126, "count": 33, "type": "VEC4"}, {"bufferView": 225, "componentType": 5126, "count": 2, "type": "SCALAR", "min": [0], "max": [1.0666666666666667]}, {"bufferView": 226, "componentType": 5126, "count": 2, "type": "VEC3"}, {"bufferView": 227, "componentType": 5126, "count": 2, "type": "SCALAR", "min": [0], "max": [1.0666666666666667]}, {"bufferView": 228, "componentType": 5126, "count": 2, "type": "VEC4"}, {"bufferView": 229, "componentType": 5126, "count": 2, "type": "SCALAR", "min": [0], "max": [1.0666666666666667]}, {"bufferView": 230, "componentType": 5126, "count": 2, "type": "VEC3"}, {"bufferView": 231, "componentType": 5126, "count": 2, "type": "SCALAR", "min": [0], "max": [1.0666666666666667]}, {"bufferView": 232, "componentType": 5126, "count": 2, "type": "VEC4"}, {"bufferView": 233, "componentType": 5126, "count": 2, "type": "SCALAR", "min": [0], "max": [0.8]}, {"bufferView": 234, "componentType": 5126, "count": 2, "type": "VEC3"}, {"bufferView": 235, "componentType": 5126, "count": 25, "type": "SCALAR", "min": [0], "max": [0.8]}, {"bufferView": 236, "componentType": 5126, "count": 25, "type": "VEC4"}, {"bufferView": 237, "componentType": 5126, "count": 2, "type": "SCALAR", "min": [0], "max": [0.8]}, {"bufferView": 238, "componentType": 5126, "count": 2, "type": "VEC3"}, {"bufferView": 239, "componentType": 5126, "count": 25, "type": "SCALAR", "min": [0], "max": [0.8]}, {"bufferView": 240, "componentType": 5126, "count": 25, "type": "VEC4"}, {"bufferView": 241, "componentType": 5126, "count": 2, "type": "SCALAR", "min": [0], "max": [0.8]}, {"bufferView": 242, "componentType": 5126, "count": 2, "type": "VEC3"}, {"bufferView": 243, "componentType": 5126, "count": 2, "type": "SCALAR", "min": [0], "max": [0.8]}, {"bufferView": 244, "componentType": 5126, "count": 2, "type": "VEC4"}, {"bufferView": 245, "componentType": 5126, "count": 2, "type": "SCALAR", "min": [0], "max": [0.8]}, {"bufferView": 246, "componentType": 5126, "count": 2, "type": "VEC3"}, {"bufferView": 247, "componentType": 5126, "count": 25, "type": "SCALAR", "min": [0], "max": [0.8]}, {"bufferView": 248, "componentType": 5126, "count": 25, "type": "VEC4"}, {"bufferView": 249, "componentType": 5126, "count": 2, "type": "SCALAR", "min": [0], "max": [0.8]}, {"bufferView": 250, "componentType": 5126, "count": 2, "type": "VEC3"}, {"bufferView": 251, "componentType": 5126, "count": 25, "type": "SCALAR", "min": [0], "max": [0.8]}, {"bufferView": 252, "componentType": 5126, "count": 25, "type": "VEC4"}, {"bufferView": 253, "componentType": 5126, "count": 2, "type": "SCALAR", "min": [0], "max": [0.8]}, {"bufferView": 254, "componentType": 5126, "count": 2, "type": "VEC3"}, {"bufferView": 255, "componentType": 5126, "count": 25, "type": "SCALAR", "min": [0], "max": [0.8]}, {"bufferView": 256, "componentType": 5126, "count": 25, "type": "VEC4"}, {"bufferView": 257, "componentType": 5126, "count": 2, "type": "SCALAR", "min": [0], "max": [0.8]}, {"bufferView": 258, "componentType": 5126, "count": 2, "type": "VEC3"}, {"bufferView": 259, "componentType": 5126, "count": 25, "type": "SCALAR", "min": [0], "max": [0.8]}, {"bufferView": 260, "componentType": 5126, "count": 25, "type": "VEC4"}, {"bufferView": 261, "componentType": 5126, "count": 25, "type": "SCALAR", "min": [0], "max": [0.8]}, {"bufferView": 262, "componentType": 5126, "count": 25, "type": "VEC3"}, {"bufferView": 263, "componentType": 5126, "count": 25, "type": "SCALAR", "min": [0], "max": [0.8]}, {"bufferView": 264, "componentType": 5126, "count": 25, "type": "VEC4"}, {"bufferView": 265, "componentType": 5126, "count": 25, "type": "SCALAR", "min": [0], "max": [0.8]}, {"bufferView": 266, "componentType": 5126, "count": 25, "type": "VEC3"}, {"bufferView": 267, "componentType": 5126, "count": 25, "type": "SCALAR", "min": [0], "max": [0.8]}, {"bufferView": 268, "componentType": 5126, "count": 25, "type": "VEC4"}, {"bufferView": 269, "componentType": 5126, "count": 2, "type": "SCALAR", "min": [0], "max": [0.8]}, {"bufferView": 270, "componentType": 5126, "count": 2, "type": "VEC3"}, {"bufferView": 271, "componentType": 5126, "count": 2, "type": "SCALAR", "min": [0], "max": [0.8]}, {"bufferView": 272, "componentType": 5126, "count": 2, "type": "VEC4"}, {"bufferView": 273, "componentType": 5126, "count": 2, "type": "SCALAR", "min": [0], "max": [0.8]}, {"bufferView": 274, "componentType": 5126, "count": 2, "type": "VEC3"}, {"bufferView": 275, "componentType": 5126, "count": 25, "type": "SCALAR", "min": [0], "max": [0.8]}, {"bufferView": 276, "componentType": 5126, "count": 25, "type": "VEC4"}, {"bufferView": 277, "componentType": 5126, "count": 25, "type": "SCALAR", "min": [0], "max": [0.8]}, {"bufferView": 278, "componentType": 5126, "count": 25, "type": "VEC3"}, {"bufferView": 279, "componentType": 5126, "count": 25, "type": "SCALAR", "min": [0], "max": [0.8]}, {"bufferView": 280, "componentType": 5126, "count": 25, "type": "VEC4"}, {"bufferView": 281, "componentType": 5126, "count": 2, "type": "SCALAR", "min": [0], "max": [0.8]}, {"bufferView": 282, "componentType": 5126, "count": 2, "type": "VEC3"}, {"bufferView": 283, "componentType": 5126, "count": 25, "type": "SCALAR", "min": [0], "max": [0.8]}, {"bufferView": 284, "componentType": 5126, "count": 25, "type": "VEC4"}, {"bufferView": 285, "componentType": 5126, "count": 2, "type": "SCALAR", "min": [0], "max": [0.8]}, {"bufferView": 286, "componentType": 5126, "count": 2, "type": "VEC3"}, {"bufferView": 287, "componentType": 5126, "count": 25, "type": "SCALAR", "min": [0], "max": [0.8]}, {"bufferView": 288, "componentType": 5126, "count": 25, "type": "VEC4"}, {"bufferView": 289, "componentType": 5126, "count": 2, "type": "SCALAR", "min": [0], "max": [0.8]}, {"bufferView": 290, "componentType": 5126, "count": 2, "type": "VEC3"}, {"bufferView": 291, "componentType": 5126, "count": 25, "type": "SCALAR", "min": [0], "max": [0.8]}, {"bufferView": 292, "componentType": 5126, "count": 25, "type": "VEC4"}, {"bufferView": 293, "componentType": 5126, "count": 2, "type": "SCALAR", "min": [0], "max": [0.8]}, {"bufferView": 294, "componentType": 5126, "count": 2, "type": "VEC3"}, {"bufferView": 295, "componentType": 5126, "count": 25, "type": "SCALAR", "min": [0], "max": [0.8]}, {"bufferView": 296, "componentType": 5126, "count": 25, "type": "VEC4"}, {"bufferView": 297, "componentType": 5126, "count": 2, "type": "SCALAR", "min": [0], "max": [0.8]}, {"bufferView": 298, "componentType": 5126, "count": 2, "type": "VEC3"}, {"bufferView": 299, "componentType": 5126, "count": 25, "type": "SCALAR", "min": [0], "max": [0.8]}, {"bufferView": 300, "componentType": 5126, "count": 25, "type": "VEC4"}, {"bufferView": 301, "componentType": 5126, "count": 2, "type": "SCALAR", "min": [0], "max": [0.8]}, {"bufferView": 302, "componentType": 5126, "count": 2, "type": "VEC3"}, {"bufferView": 303, "componentType": 5126, "count": 25, "type": "SCALAR", "min": [0], "max": [0.8]}, {"bufferView": 304, "componentType": 5126, "count": 25, "type": "VEC4"}, {"bufferView": 305, "componentType": 5126, "count": 25, "type": "SCALAR", "min": [0], "max": [0.8]}, {"bufferView": 306, "componentType": 5126, "count": 25, "type": "VEC3"}, {"bufferView": 307, "componentType": 5126, "count": 25, "type": "SCALAR", "min": [0], "max": [0.8]}, {"bufferView": 308, "componentType": 5126, "count": 25, "type": "VEC4"}, {"bufferView": 309, "componentType": 5126, "count": 2, "type": "SCALAR", "min": [0], "max": [0.8]}, {"bufferView": 310, "componentType": 5126, "count": 2, "type": "VEC3"}, {"bufferView": 311, "componentType": 5126, "count": 2, "type": "SCALAR", "min": [0], "max": [0.8]}, {"bufferView": 312, "componentType": 5126, "count": 2, "type": "VEC4"}, {"bufferView": 313, "componentType": 5126, "count": 25, "type": "SCALAR", "min": [0], "max": [0.8]}, {"bufferView": 314, "componentType": 5126, "count": 25, "type": "VEC3"}, {"bufferView": 315, "componentType": 5126, "count": 25, "type": "SCALAR", "min": [0], "max": [0.8]}, {"bufferView": 316, "componentType": 5126, "count": 25, "type": "VEC4"}, {"bufferView": 317, "componentType": 5126, "count": 2, "type": "SCALAR", "min": [0], "max": [0.8]}, {"bufferView": 318, "componentType": 5126, "count": 2, "type": "VEC3"}, {"bufferView": 319, "componentType": 5126, "count": 2, "type": "SCALAR", "min": [0], "max": [0.8]}, {"bufferView": 320, "componentType": 5126, "count": 2, "type": "VEC4"}, {"bufferView": 321, "componentType": 5126, "count": 2, "type": "SCALAR", "min": [0], "max": [0.8]}, {"bufferView": 322, "componentType": 5126, "count": 2, "type": "VEC3"}, {"bufferView": 323, "componentType": 5126, "count": 2, "type": "SCALAR", "min": [0], "max": [0.8]}, {"bufferView": 324, "componentType": 5126, "count": 2, "type": "VEC4"}, {"bufferView": 325, "componentType": 5126, "count": 2, "type": "SCALAR", "min": [0], "max": [1.0666666666666667]}, {"bufferView": 326, "componentType": 5126, "count": 2, "type": "VEC3"}, {"bufferView": 327, "componentType": 5126, "count": 33, "type": "SCALAR", "min": [0], "max": [1.0666666666666667]}, {"bufferView": 328, "componentType": 5126, "count": 33, "type": "VEC4"}, {"bufferView": 329, "componentType": 5126, "count": 2, "type": "SCALAR", "min": [0], "max": [1.0666666666666667]}, {"bufferView": 330, "componentType": 5126, "count": 2, "type": "VEC3"}, {"bufferView": 331, "componentType": 5126, "count": 33, "type": "SCALAR", "min": [0], "max": [1.0666666666666667]}, {"bufferView": 332, "componentType": 5126, "count": 33, "type": "VEC4"}, {"bufferView": 333, "componentType": 5126, "count": 2, "type": "SCALAR", "min": [0], "max": [1.0666666666666667]}, {"bufferView": 334, "componentType": 5126, "count": 2, "type": "VEC3"}, {"bufferView": 335, "componentType": 5126, "count": 2, "type": "SCALAR", "min": [0], "max": [1.0666666666666667]}, {"bufferView": 336, "componentType": 5126, "count": 2, "type": "VEC4"}, {"bufferView": 337, "componentType": 5126, "count": 2, "type": "SCALAR", "min": [0], "max": [1.0666666666666667]}, {"bufferView": 338, "componentType": 5126, "count": 2, "type": "VEC3"}, {"bufferView": 339, "componentType": 5126, "count": 33, "type": "SCALAR", "min": [0], "max": [1.0666666666666667]}, {"bufferView": 340, "componentType": 5126, "count": 33, "type": "VEC4"}, {"bufferView": 341, "componentType": 5126, "count": 2, "type": "SCALAR", "min": [0], "max": [1.0666666666666667]}, {"bufferView": 342, "componentType": 5126, "count": 2, "type": "VEC3"}, {"bufferView": 343, "componentType": 5126, "count": 33, "type": "SCALAR", "min": [0], "max": [1.0666666666666667]}, {"bufferView": 344, "componentType": 5126, "count": 33, "type": "VEC4"}, {"bufferView": 345, "componentType": 5126, "count": 2, "type": "SCALAR", "min": [0], "max": [1.0666666666666667]}, {"bufferView": 346, "componentType": 5126, "count": 2, "type": "VEC3"}, {"bufferView": 347, "componentType": 5126, "count": 33, "type": "SCALAR", "min": [0], "max": [1.0666666666666667]}, {"bufferView": 348, "componentType": 5126, "count": 33, "type": "VEC4"}, {"bufferView": 349, "componentType": 5126, "count": 2, "type": "SCALAR", "min": [0], "max": [1.0666666666666667]}, {"bufferView": 350, "componentType": 5126, "count": 2, "type": "VEC3"}, {"bufferView": 351, "componentType": 5126, "count": 33, "type": "SCALAR", "min": [0], "max": [1.0666666666666667]}, {"bufferView": 352, "componentType": 5126, "count": 33, "type": "VEC4"}, {"bufferView": 353, "componentType": 5126, "count": 2, "type": "SCALAR", "min": [0], "max": [1.0666666666666667]}, {"bufferView": 354, "componentType": 5126, "count": 2, "type": "VEC3"}, {"bufferView": 355, "componentType": 5126, "count": 33, "type": "SCALAR", "min": [0], "max": [1.0666666666666667]}, {"bufferView": 356, "componentType": 5126, "count": 33, "type": "VEC4"}, {"bufferView": 357, "componentType": 5126, "count": 2, "type": "SCALAR", "min": [0], "max": [1.0666666666666667]}, {"bufferView": 358, "componentType": 5126, "count": 2, "type": "VEC3"}, {"bufferView": 359, "componentType": 5126, "count": 33, "type": "SCALAR", "min": [0], "max": [1.0666666666666667]}, {"bufferView": 360, "componentType": 5126, "count": 33, "type": "VEC4"}, {"bufferView": 361, "componentType": 5126, "count": 2, "type": "SCALAR", "min": [0], "max": [1.0666666666666667]}, {"bufferView": 362, "componentType": 5126, "count": 2, "type": "VEC3"}, {"bufferView": 363, "componentType": 5126, "count": 2, "type": "SCALAR", "min": [0], "max": [1.0666666666666667]}, {"bufferView": 364, "componentType": 5126, "count": 2, "type": "VEC4"}, {"bufferView": 365, "componentType": 5126, "count": 2, "type": "SCALAR", "min": [0], "max": [1.0666666666666667]}, {"bufferView": 366, "componentType": 5126, "count": 2, "type": "VEC3"}, {"bufferView": 367, "componentType": 5126, "count": 2, "type": "SCALAR", "min": [0], "max": [1.0666666666666667]}, {"bufferView": 368, "componentType": 5126, "count": 2, "type": "VEC4"}, {"bufferView": 369, "componentType": 5126, "count": 2, "type": "SCALAR", "min": [0], "max": [1.0666666666666667]}, {"bufferView": 370, "componentType": 5126, "count": 2, "type": "VEC3"}, {"bufferView": 371, "componentType": 5126, "count": 33, "type": "SCALAR", "min": [0], "max": [1.0666666666666667]}, {"bufferView": 372, "componentType": 5126, "count": 33, "type": "VEC4"}, {"bufferView": 373, "componentType": 5126, "count": 2, "type": "SCALAR", "min": [0], "max": [1.0666666666666667]}, {"bufferView": 374, "componentType": 5126, "count": 2, "type": "VEC3"}, {"bufferView": 375, "componentType": 5126, "count": 33, "type": "SCALAR", "min": [0], "max": [1.0666666666666667]}, {"bufferView": 376, "componentType": 5126, "count": 33, "type": "VEC4"}, {"bufferView": 377, "componentType": 5126, "count": 2, "type": "SCALAR", "min": [0], "max": [1.0666666666666667]}, {"bufferView": 378, "componentType": 5126, "count": 2, "type": "VEC3"}, {"bufferView": 379, "componentType": 5126, "count": 33, "type": "SCALAR", "min": [0], "max": [1.0666666666666667]}, {"bufferView": 380, "componentType": 5126, "count": 33, "type": "VEC4"}, {"bufferView": 381, "componentType": 5126, "count": 2, "type": "SCALAR", "min": [0], "max": [1.0666666666666667]}, {"bufferView": 382, "componentType": 5126, "count": 2, "type": "VEC3"}, {"bufferView": 383, "componentType": 5126, "count": 33, "type": "SCALAR", "min": [0], "max": [1.0666666666666667]}, {"bufferView": 384, "componentType": 5126, "count": 33, "type": "VEC4"}, {"bufferView": 385, "componentType": 5126, "count": 2, "type": "SCALAR", "min": [0], "max": [1.0666666666666667]}, {"bufferView": 386, "componentType": 5126, "count": 2, "type": "VEC3"}, {"bufferView": 387, "componentType": 5126, "count": 33, "type": "SCALAR", "min": [0], "max": [1.0666666666666667]}, {"bufferView": 388, "componentType": 5126, "count": 33, "type": "VEC4"}, {"bufferView": 389, "componentType": 5126, "count": 2, "type": "SCALAR", "min": [0], "max": [1.0666666666666667]}, {"bufferView": 390, "componentType": 5126, "count": 2, "type": "VEC3"}, {"bufferView": 391, "componentType": 5126, "count": 33, "type": "SCALAR", "min": [0], "max": [1.0666666666666667]}, {"bufferView": 392, "componentType": 5126, "count": 33, "type": "VEC4"}, {"bufferView": 393, "componentType": 5126, "count": 2, "type": "SCALAR", "min": [0], "max": [1.0666666666666667]}, {"bufferView": 394, "componentType": 5126, "count": 2, "type": "VEC3"}, {"bufferView": 395, "componentType": 5126, "count": 33, "type": "SCALAR", "min": [0], "max": [1.0666666666666667]}, {"bufferView": 396, "componentType": 5126, "count": 33, "type": "VEC4"}, {"bufferView": 397, "componentType": 5126, "count": 33, "type": "SCALAR", "min": [0], "max": [1.0666666666666667]}, {"bufferView": 398, "componentType": 5126, "count": 33, "type": "VEC3"}, {"bufferView": 399, "componentType": 5126, "count": 33, "type": "SCALAR", "min": [0], "max": [1.0666666666666667]}, {"bufferView": 400, "componentType": 5126, "count": 33, "type": "VEC4"}, {"bufferView": 401, "componentType": 5126, "count": 2, "type": "SCALAR", "min": [0], "max": [1.0666666666666667]}, {"bufferView": 402, "componentType": 5126, "count": 2, "type": "VEC3"}, {"bufferView": 403, "componentType": 5126, "count": 2, "type": "SCALAR", "min": [0], "max": [1.0666666666666667]}, {"bufferView": 404, "componentType": 5126, "count": 2, "type": "VEC4"}, {"bufferView": 405, "componentType": 5126, "count": 2, "type": "SCALAR", "min": [0], "max": [1.0666666666666667]}, {"bufferView": 406, "componentType": 5126, "count": 2, "type": "VEC3"}, {"bufferView": 407, "componentType": 5126, "count": 33, "type": "SCALAR", "min": [0], "max": [1.0666666666666667]}, {"bufferView": 408, "componentType": 5126, "count": 33, "type": "VEC4"}, {"bufferView": 409, "componentType": 5126, "count": 2, "type": "SCALAR", "min": [0], "max": [1.0666666666666667]}, {"bufferView": 410, "componentType": 5126, "count": 2, "type": "VEC3"}, {"bufferView": 411, "componentType": 5126, "count": 2, "type": "SCALAR", "min": [0], "max": [1.0666666666666667]}, {"bufferView": 412, "componentType": 5126, "count": 2, "type": "VEC4"}, {"bufferView": 413, "componentType": 5126, "count": 2, "type": "SCALAR", "min": [0], "max": [1.0666666666666667]}, {"bufferView": 414, "componentType": 5126, "count": 2, "type": "VEC3"}, {"bufferView": 415, "componentType": 5126, "count": 2, "type": "SCALAR", "min": [0], "max": [1.0666666666666667]}, {"bufferView": 416, "componentType": 5126, "count": 2, "type": "VEC4"}], "bufferViews": [{"buffer": 0, "byteLength": 8016, "byteOffset": 0}, {"buffer": 0, "byteLength": 8016, "byteOffset": 8016}, {"buffer": 0, "byteLength": 5344, "byteOffset": 16032}, {"buffer": 0, "byteLength": 2672, "byteOffset": 21376}, {"buffer": 0, "byteLength": 10688, "byteOffset": 24048}, {"buffer": 0, "byteLength": 4920, "byteOffset": 34736}, {"buffer": 0, "byteLength": 1472, "byteOffset": 39656}, {"buffer": 0, "byteLength": 8016, "byteOffset": 41128}, {"buffer": 0, "byteLength": 8016, "byteOffset": 49144}, {"buffer": 0, "byteLength": 5344, "byteOffset": 57160}, {"buffer": 0, "byteLength": 2672, "byteOffset": 62504}, {"buffer": 0, "byteLength": 10688, "byteOffset": 65176}, {"buffer": 0, "byteLength": 4920, "byteOffset": 75864}, {"buffer": 0, "byteLength": 38688, "byteOffset": 80784}, {"buffer": 0, "byteLength": 38688, "byteOffset": 119472}, {"buffer": 0, "byteLength": 25792, "byteOffset": 158160}, {"buffer": 0, "byteLength": 12896, "byteOffset": 183952}, {"buffer": 0, "byteLength": 51584, "byteOffset": 196848}, {"buffer": 0, "byteLength": 20766, "byteOffset": 248432}, {"buffer": 0, "byteLength": 672, "byteOffset": 269200}, {"buffer": 0, "byteLength": 672, "byteOffset": 269872}, {"buffer": 0, "byteLength": 448, "byteOffset": 270544}, {"buffer": 0, "byteLength": 224, "byteOffset": 270992}, {"buffer": 0, "byteLength": 896, "byteOffset": 271216}, {"buffer": 0, "byteLength": 504, "byteOffset": 272112}, {"buffer": 0, "byteLength": 14064, "byteOffset": 272616}, {"buffer": 0, "byteLength": 14064, "byteOffset": 286680}, {"buffer": 0, "byteLength": 9376, "byteOffset": 300744}, {"buffer": 0, "byteLength": 4688, "byteOffset": 310120}, {"buffer": 0, "byteLength": 18752, "byteOffset": 314808}, {"buffer": 0, "byteLength": 9600, "byteOffset": 333560}, {"buffer": 0, "byteLength": 9360, "byteOffset": 343160}, {"buffer": 0, "byteLength": 9360, "byteOffset": 352520}, {"buffer": 0, "byteLength": 6240, "byteOffset": 361880}, {"buffer": 0, "byteLength": 3120, "byteOffset": 368120}, {"buffer": 0, "byteLength": 12480, "byteOffset": 371240}, {"buffer": 0, "byteLength": 5580, "byteOffset": 383720}, {"buffer": 0, "byteLength": 9360, "byteOffset": 389300}, {"buffer": 0, "byteLength": 9360, "byteOffset": 398660}, {"buffer": 0, "byteLength": 6240, "byteOffset": 408020}, {"buffer": 0, "byteLength": 3120, "byteOffset": 414260}, {"buffer": 0, "byteLength": 12480, "byteOffset": 417380}, {"buffer": 0, "byteLength": 5580, "byteOffset": 429860}, {"buffer": 0, "byteLength": 4632, "byteOffset": 435440}, {"buffer": 0, "byteLength": 4632, "byteOffset": 440072}, {"buffer": 0, "byteLength": 3088, "byteOffset": 444704}, {"buffer": 0, "byteLength": 1544, "byteOffset": 447792}, {"buffer": 0, "byteLength": 6176, "byteOffset": 449336}, {"buffer": 0, "byteLength": 1530, "byteOffset": 455512}, {"buffer": 0, "byteOffset": 457044, "byteLength": 132}, {"buffer": 0, "byteOffset": 457176, "byteLength": 396}, {"buffer": 0, "byteOffset": 457572, "byteLength": 132}, {"buffer": 0, "byteOffset": 457704, "byteLength": 528}, {"buffer": 0, "byteOffset": 458232, "byteLength": 8}, {"buffer": 0, "byteOffset": 458240, "byteLength": 24}, {"buffer": 0, "byteOffset": 458264, "byteLength": 132}, {"buffer": 0, "byteOffset": 458396, "byteLength": 528}, {"buffer": 0, "byteOffset": 458924, "byteLength": 8}, {"buffer": 0, "byteOffset": 458932, "byteLength": 24}, {"buffer": 0, "byteOffset": 458956, "byteLength": 132}, {"buffer": 0, "byteOffset": 459088, "byteLength": 528}, {"buffer": 0, "byteOffset": 459616, "byteLength": 8}, {"buffer": 0, "byteOffset": 459624, "byteLength": 24}, {"buffer": 0, "byteOffset": 459648, "byteLength": 132}, {"buffer": 0, "byteOffset": 459780, "byteLength": 528}, {"buffer": 0, "byteOffset": 460308, "byteLength": 8}, {"buffer": 0, "byteOffset": 460316, "byteLength": 24}, {"buffer": 0, "byteOffset": 460340, "byteLength": 132}, {"buffer": 0, "byteOffset": 460472, "byteLength": 528}, {"buffer": 0, "byteOffset": 461000, "byteLength": 8}, {"buffer": 0, "byteOffset": 461008, "byteLength": 24}, {"buffer": 0, "byteOffset": 461032, "byteLength": 132}, {"buffer": 0, "byteOffset": 461164, "byteLength": 528}, {"buffer": 0, "byteOffset": 461692, "byteLength": 8}, {"buffer": 0, "byteOffset": 461700, "byteLength": 24}, {"buffer": 0, "byteOffset": 461724, "byteLength": 8}, {"buffer": 0, "byteOffset": 461732, "byteLength": 32}, {"buffer": 0, "byteOffset": 461764, "byteLength": 8}, {"buffer": 0, "byteOffset": 461772, "byteLength": 24}, {"buffer": 0, "byteOffset": 461796, "byteLength": 132}, {"buffer": 0, "byteOffset": 461928, "byteLength": 528}, {"buffer": 0, "byteOffset": 462456, "byteLength": 8}, {"buffer": 0, "byteOffset": 462464, "byteLength": 24}, {"buffer": 0, "byteOffset": 462488, "byteLength": 132}, {"buffer": 0, "byteOffset": 462620, "byteLength": 528}, {"buffer": 0, "byteOffset": 463148, "byteLength": 8}, {"buffer": 0, "byteOffset": 463156, "byteLength": 24}, {"buffer": 0, "byteOffset": 463180, "byteLength": 132}, {"buffer": 0, "byteOffset": 463312, "byteLength": 528}, {"buffer": 0, "byteOffset": 463840, "byteLength": 8}, {"buffer": 0, "byteOffset": 463848, "byteLength": 24}, {"buffer": 0, "byteOffset": 463872, "byteLength": 8}, {"buffer": 0, "byteOffset": 463880, "byteLength": 32}, {"buffer": 0, "byteOffset": 463912, "byteLength": 8}, {"buffer": 0, "byteOffset": 463920, "byteLength": 24}, {"buffer": 0, "byteOffset": 463944, "byteLength": 132}, {"buffer": 0, "byteOffset": 464076, "byteLength": 528}, {"buffer": 0, "byteOffset": 464604, "byteLength": 8}, {"buffer": 0, "byteOffset": 464612, "byteLength": 24}, {"buffer": 0, "byteOffset": 464636, "byteLength": 132}, {"buffer": 0, "byteOffset": 464768, "byteLength": 528}, {"buffer": 0, "byteOffset": 465296, "byteLength": 8}, {"buffer": 0, "byteOffset": 465304, "byteLength": 24}, {"buffer": 0, "byteOffset": 465328, "byteLength": 132}, {"buffer": 0, "byteOffset": 465460, "byteLength": 528}, {"buffer": 0, "byteOffset": 465988, "byteLength": 8}, {"buffer": 0, "byteOffset": 465996, "byteLength": 24}, {"buffer": 0, "byteOffset": 466020, "byteLength": 132}, {"buffer": 0, "byteOffset": 466152, "byteLength": 528}, {"buffer": 0, "byteOffset": 466680, "byteLength": 8}, {"buffer": 0, "byteOffset": 466688, "byteLength": 24}, {"buffer": 0, "byteOffset": 466712, "byteLength": 8}, {"buffer": 0, "byteOffset": 466720, "byteLength": 32}, {"buffer": 0, "byteOffset": 466752, "byteLength": 8}, {"buffer": 0, "byteOffset": 466760, "byteLength": 24}, {"buffer": 0, "byteOffset": 466784, "byteLength": 132}, {"buffer": 0, "byteOffset": 466916, "byteLength": 528}, {"buffer": 0, "byteOffset": 467444, "byteLength": 8}, {"buffer": 0, "byteOffset": 467452, "byteLength": 24}, {"buffer": 0, "byteOffset": 467476, "byteLength": 132}, {"buffer": 0, "byteOffset": 467608, "byteLength": 528}, {"buffer": 0, "byteOffset": 468136, "byteLength": 8}, {"buffer": 0, "byteOffset": 468144, "byteLength": 24}, {"buffer": 0, "byteOffset": 468168, "byteLength": 132}, {"buffer": 0, "byteOffset": 468300, "byteLength": 528}, {"buffer": 0, "byteOffset": 468828, "byteLength": 8}, {"buffer": 0, "byteOffset": 468836, "byteLength": 24}, {"buffer": 0, "byteOffset": 468860, "byteLength": 132}, {"buffer": 0, "byteOffset": 468992, "byteLength": 528}, {"buffer": 0, "byteOffset": 469520, "byteLength": 8}, {"buffer": 0, "byteOffset": 469528, "byteLength": 24}, {"buffer": 0, "byteOffset": 469552, "byteLength": 132}, {"buffer": 0, "byteOffset": 469684, "byteLength": 528}, {"buffer": 0, "byteOffset": 470212, "byteLength": 8}, {"buffer": 0, "byteOffset": 470220, "byteLength": 24}, {"buffer": 0, "byteOffset": 470244, "byteLength": 132}, {"buffer": 0, "byteOffset": 470376, "byteLength": 528}, {"buffer": 0, "byteOffset": 470904, "byteLength": 8}, {"buffer": 0, "byteOffset": 470912, "byteLength": 24}, {"buffer": 0, "byteOffset": 470936, "byteLength": 132}, {"buffer": 0, "byteOffset": 471068, "byteLength": 528}, {"buffer": 0, "byteOffset": 471596, "byteLength": 8}, {"buffer": 0, "byteOffset": 471604, "byteLength": 24}, {"buffer": 0, "byteOffset": 471628, "byteLength": 132}, {"buffer": 0, "byteOffset": 471760, "byteLength": 528}, {"buffer": 0, "byteOffset": 472288, "byteLength": 8}, {"buffer": 0, "byteOffset": 472296, "byteLength": 24}, {"buffer": 0, "byteOffset": 472320, "byteLength": 132}, {"buffer": 0, "byteOffset": 472452, "byteLength": 528}, {"buffer": 0, "byteOffset": 472980, "byteLength": 8}, {"buffer": 0, "byteOffset": 472988, "byteLength": 24}, {"buffer": 0, "byteOffset": 473012, "byteLength": 8}, {"buffer": 0, "byteOffset": 473020, "byteLength": 32}, {"buffer": 0, "byteOffset": 473052, "byteLength": 8}, {"buffer": 0, "byteOffset": 473060, "byteLength": 24}, {"buffer": 0, "byteOffset": 473084, "byteLength": 132}, {"buffer": 0, "byteOffset": 473216, "byteLength": 528}, {"buffer": 0, "byteOffset": 473744, "byteLength": 8}, {"buffer": 0, "byteOffset": 473752, "byteLength": 24}, {"buffer": 0, "byteOffset": 473776, "byteLength": 132}, {"buffer": 0, "byteOffset": 473908, "byteLength": 528}, {"buffer": 0, "byteOffset": 474436, "byteLength": 8}, {"buffer": 0, "byteOffset": 474444, "byteLength": 24}, {"buffer": 0, "byteOffset": 474468, "byteLength": 132}, {"buffer": 0, "byteOffset": 474600, "byteLength": 528}, {"buffer": 0, "byteOffset": 475128, "byteLength": 8}, {"buffer": 0, "byteOffset": 475136, "byteLength": 24}, {"buffer": 0, "byteOffset": 475160, "byteLength": 132}, {"buffer": 0, "byteOffset": 475292, "byteLength": 528}, {"buffer": 0, "byteOffset": 475820, "byteLength": 8}, {"buffer": 0, "byteOffset": 475828, "byteLength": 24}, {"buffer": 0, "byteOffset": 475852, "byteLength": 132}, {"buffer": 0, "byteOffset": 475984, "byteLength": 528}, {"buffer": 0, "byteOffset": 476512, "byteLength": 132}, {"buffer": 0, "byteOffset": 476644, "byteLength": 396}, {"buffer": 0, "byteOffset": 477040, "byteLength": 132}, {"buffer": 0, "byteOffset": 477172, "byteLength": 528}, {"buffer": 0, "byteOffset": 477700, "byteLength": 8}, {"buffer": 0, "byteOffset": 477708, "byteLength": 24}, {"buffer": 0, "byteOffset": 477732, "byteLength": 8}, {"buffer": 0, "byteOffset": 477740, "byteLength": 32}, {"buffer": 0, "byteOffset": 477772, "byteLength": 8}, {"buffer": 0, "byteOffset": 477780, "byteLength": 24}, {"buffer": 0, "byteOffset": 477804, "byteLength": 8}, {"buffer": 0, "byteOffset": 477812, "byteLength": 32}, {"buffer": 0, "byteOffset": 477844, "byteLength": 8}, {"buffer": 0, "byteOffset": 477852, "byteLength": 24}, {"buffer": 0, "byteOffset": 477876, "byteLength": 132}, {"buffer": 0, "byteOffset": 478008, "byteLength": 528}, {"buffer": 0, "byteOffset": 478536, "byteLength": 8}, {"buffer": 0, "byteOffset": 478544, "byteLength": 24}, {"buffer": 0, "byteOffset": 478568, "byteLength": 132}, {"buffer": 0, "byteOffset": 478700, "byteLength": 528}, {"buffer": 0, "byteOffset": 479228, "byteLength": 8}, {"buffer": 0, "byteOffset": 479236, "byteLength": 24}, {"buffer": 0, "byteOffset": 479260, "byteLength": 132}, {"buffer": 0, "byteOffset": 479392, "byteLength": 528}, {"buffer": 0, "byteOffset": 479920, "byteLength": 8}, {"buffer": 0, "byteOffset": 479928, "byteLength": 24}, {"buffer": 0, "byteOffset": 479952, "byteLength": 132}, {"buffer": 0, "byteOffset": 480084, "byteLength": 528}, {"buffer": 0, "byteOffset": 480612, "byteLength": 8}, {"buffer": 0, "byteOffset": 480620, "byteLength": 24}, {"buffer": 0, "byteOffset": 480644, "byteLength": 132}, {"buffer": 0, "byteOffset": 480776, "byteLength": 528}, {"buffer": 0, "byteOffset": 481304, "byteLength": 8}, {"buffer": 0, "byteOffset": 481312, "byteLength": 24}, {"buffer": 0, "byteOffset": 481336, "byteLength": 132}, {"buffer": 0, "byteOffset": 481468, "byteLength": 528}, {"buffer": 0, "byteOffset": 481996, "byteLength": 8}, {"buffer": 0, "byteOffset": 482004, "byteLength": 24}, {"buffer": 0, "byteOffset": 482028, "byteLength": 132}, {"buffer": 0, "byteOffset": 482160, "byteLength": 528}, {"buffer": 0, "byteOffset": 482688, "byteLength": 132}, {"buffer": 0, "byteOffset": 482820, "byteLength": 396}, {"buffer": 0, "byteOffset": 483216, "byteLength": 8}, {"buffer": 0, "byteOffset": 483224, "byteLength": 32}, {"buffer": 0, "byteOffset": 483256, "byteLength": 8}, {"buffer": 0, "byteOffset": 483264, "byteLength": 24}, {"buffer": 0, "byteOffset": 483288, "byteLength": 8}, {"buffer": 0, "byteOffset": 483296, "byteLength": 32}, {"buffer": 0, "byteOffset": 483328, "byteLength": 132}, {"buffer": 0, "byteOffset": 483460, "byteLength": 396}, {"buffer": 0, "byteOffset": 483856, "byteLength": 132}, {"buffer": 0, "byteOffset": 483988, "byteLength": 528}, {"buffer": 0, "byteOffset": 484516, "byteLength": 8}, {"buffer": 0, "byteOffset": 484524, "byteLength": 24}, {"buffer": 0, "byteOffset": 484548, "byteLength": 8}, {"buffer": 0, "byteOffset": 484556, "byteLength": 32}, {"buffer": 0, "byteOffset": 484588, "byteLength": 8}, {"buffer": 0, "byteOffset": 484596, "byteLength": 24}, {"buffer": 0, "byteOffset": 484620, "byteLength": 8}, {"buffer": 0, "byteOffset": 484628, "byteLength": 32}, {"buffer": 0, "byteOffset": 484660, "byteLength": 8}, {"buffer": 0, "byteOffset": 484668, "byteLength": 24}, {"buffer": 0, "byteOffset": 484692, "byteLength": 100}, {"buffer": 0, "byteOffset": 484792, "byteLength": 400}, {"buffer": 0, "byteOffset": 485192, "byteLength": 8}, {"buffer": 0, "byteOffset": 485200, "byteLength": 24}, {"buffer": 0, "byteOffset": 485224, "byteLength": 100}, {"buffer": 0, "byteOffset": 485324, "byteLength": 400}, {"buffer": 0, "byteOffset": 485724, "byteLength": 8}, {"buffer": 0, "byteOffset": 485732, "byteLength": 24}, {"buffer": 0, "byteOffset": 485756, "byteLength": 8}, {"buffer": 0, "byteOffset": 485764, "byteLength": 32}, {"buffer": 0, "byteOffset": 485796, "byteLength": 8}, {"buffer": 0, "byteOffset": 485804, "byteLength": 24}, {"buffer": 0, "byteOffset": 485828, "byteLength": 100}, {"buffer": 0, "byteOffset": 485928, "byteLength": 400}, {"buffer": 0, "byteOffset": 486328, "byteLength": 8}, {"buffer": 0, "byteOffset": 486336, "byteLength": 24}, {"buffer": 0, "byteOffset": 486360, "byteLength": 100}, {"buffer": 0, "byteOffset": 486460, "byteLength": 400}, {"buffer": 0, "byteOffset": 486860, "byteLength": 8}, {"buffer": 0, "byteOffset": 486868, "byteLength": 24}, {"buffer": 0, "byteOffset": 486892, "byteLength": 100}, {"buffer": 0, "byteOffset": 486992, "byteLength": 400}, {"buffer": 0, "byteOffset": 487392, "byteLength": 8}, {"buffer": 0, "byteOffset": 487400, "byteLength": 24}, {"buffer": 0, "byteOffset": 487424, "byteLength": 100}, {"buffer": 0, "byteOffset": 487524, "byteLength": 400}, {"buffer": 0, "byteOffset": 487924, "byteLength": 100}, {"buffer": 0, "byteOffset": 488024, "byteLength": 300}, {"buffer": 0, "byteOffset": 488324, "byteLength": 100}, {"buffer": 0, "byteOffset": 488424, "byteLength": 400}, {"buffer": 0, "byteOffset": 488824, "byteLength": 100}, {"buffer": 0, "byteOffset": 488924, "byteLength": 300}, {"buffer": 0, "byteOffset": 489224, "byteLength": 100}, {"buffer": 0, "byteOffset": 489324, "byteLength": 400}, {"buffer": 0, "byteOffset": 489724, "byteLength": 8}, {"buffer": 0, "byteOffset": 489732, "byteLength": 24}, {"buffer": 0, "byteOffset": 489756, "byteLength": 8}, {"buffer": 0, "byteOffset": 489764, "byteLength": 32}, {"buffer": 0, "byteOffset": 489796, "byteLength": 8}, {"buffer": 0, "byteOffset": 489804, "byteLength": 24}, {"buffer": 0, "byteOffset": 489828, "byteLength": 100}, {"buffer": 0, "byteOffset": 489928, "byteLength": 400}, {"buffer": 0, "byteOffset": 490328, "byteLength": 100}, {"buffer": 0, "byteOffset": 490428, "byteLength": 300}, {"buffer": 0, "byteOffset": 490728, "byteLength": 100}, {"buffer": 0, "byteOffset": 490828, "byteLength": 400}, {"buffer": 0, "byteOffset": 491228, "byteLength": 8}, {"buffer": 0, "byteOffset": 491236, "byteLength": 24}, {"buffer": 0, "byteOffset": 491260, "byteLength": 100}, {"buffer": 0, "byteOffset": 491360, "byteLength": 400}, {"buffer": 0, "byteOffset": 491760, "byteLength": 8}, {"buffer": 0, "byteOffset": 491768, "byteLength": 24}, {"buffer": 0, "byteOffset": 491792, "byteLength": 100}, {"buffer": 0, "byteOffset": 491892, "byteLength": 400}, {"buffer": 0, "byteOffset": 492292, "byteLength": 8}, {"buffer": 0, "byteOffset": 492300, "byteLength": 24}, {"buffer": 0, "byteOffset": 492324, "byteLength": 100}, {"buffer": 0, "byteOffset": 492424, "byteLength": 400}, {"buffer": 0, "byteOffset": 492824, "byteLength": 8}, {"buffer": 0, "byteOffset": 492832, "byteLength": 24}, {"buffer": 0, "byteOffset": 492856, "byteLength": 100}, {"buffer": 0, "byteOffset": 492956, "byteLength": 400}, {"buffer": 0, "byteOffset": 493356, "byteLength": 8}, {"buffer": 0, "byteOffset": 493364, "byteLength": 24}, {"buffer": 0, "byteOffset": 493388, "byteLength": 100}, {"buffer": 0, "byteOffset": 493488, "byteLength": 400}, {"buffer": 0, "byteOffset": 493888, "byteLength": 8}, {"buffer": 0, "byteOffset": 493896, "byteLength": 24}, {"buffer": 0, "byteOffset": 493920, "byteLength": 100}, {"buffer": 0, "byteOffset": 494020, "byteLength": 400}, {"buffer": 0, "byteOffset": 494420, "byteLength": 100}, {"buffer": 0, "byteOffset": 494520, "byteLength": 300}, {"buffer": 0, "byteOffset": 494820, "byteLength": 100}, {"buffer": 0, "byteOffset": 494920, "byteLength": 400}, {"buffer": 0, "byteOffset": 495320, "byteLength": 8}, {"buffer": 0, "byteOffset": 495328, "byteLength": 24}, {"buffer": 0, "byteOffset": 495352, "byteLength": 8}, {"buffer": 0, "byteOffset": 495360, "byteLength": 32}, {"buffer": 0, "byteOffset": 495392, "byteLength": 100}, {"buffer": 0, "byteOffset": 495492, "byteLength": 300}, {"buffer": 0, "byteOffset": 495792, "byteLength": 100}, {"buffer": 0, "byteOffset": 495892, "byteLength": 400}, {"buffer": 0, "byteOffset": 496292, "byteLength": 8}, {"buffer": 0, "byteOffset": 496300, "byteLength": 24}, {"buffer": 0, "byteOffset": 496324, "byteLength": 8}, {"buffer": 0, "byteOffset": 496332, "byteLength": 32}, {"buffer": 0, "byteOffset": 496364, "byteLength": 8}, {"buffer": 0, "byteOffset": 496372, "byteLength": 24}, {"buffer": 0, "byteOffset": 496396, "byteLength": 8}, {"buffer": 0, "byteOffset": 496404, "byteLength": 32}, {"buffer": 0, "byteOffset": 496436, "byteLength": 8}, {"buffer": 0, "byteOffset": 496444, "byteLength": 24}, {"buffer": 0, "byteOffset": 496468, "byteLength": 132}, {"buffer": 0, "byteOffset": 496600, "byteLength": 528}, {"buffer": 0, "byteOffset": 497128, "byteLength": 8}, {"buffer": 0, "byteOffset": 497136, "byteLength": 24}, {"buffer": 0, "byteOffset": 497160, "byteLength": 132}, {"buffer": 0, "byteOffset": 497292, "byteLength": 528}, {"buffer": 0, "byteOffset": 497820, "byteLength": 8}, {"buffer": 0, "byteOffset": 497828, "byteLength": 24}, {"buffer": 0, "byteOffset": 497852, "byteLength": 8}, {"buffer": 0, "byteOffset": 497860, "byteLength": 32}, {"buffer": 0, "byteOffset": 497892, "byteLength": 8}, {"buffer": 0, "byteOffset": 497900, "byteLength": 24}, {"buffer": 0, "byteOffset": 497924, "byteLength": 132}, {"buffer": 0, "byteOffset": 498056, "byteLength": 528}, {"buffer": 0, "byteOffset": 498584, "byteLength": 8}, {"buffer": 0, "byteOffset": 498592, "byteLength": 24}, {"buffer": 0, "byteOffset": 498616, "byteLength": 132}, {"buffer": 0, "byteOffset": 498748, "byteLength": 528}, {"buffer": 0, "byteOffset": 499276, "byteLength": 8}, {"buffer": 0, "byteOffset": 499284, "byteLength": 24}, {"buffer": 0, "byteOffset": 499308, "byteLength": 132}, {"buffer": 0, "byteOffset": 499440, "byteLength": 528}, {"buffer": 0, "byteOffset": 499968, "byteLength": 8}, {"buffer": 0, "byteOffset": 499976, "byteLength": 24}, {"buffer": 0, "byteOffset": 500000, "byteLength": 132}, {"buffer": 0, "byteOffset": 500132, "byteLength": 528}, {"buffer": 0, "byteOffset": 500660, "byteLength": 8}, {"buffer": 0, "byteOffset": 500668, "byteLength": 24}, {"buffer": 0, "byteOffset": 500692, "byteLength": 132}, {"buffer": 0, "byteOffset": 500824, "byteLength": 528}, {"buffer": 0, "byteOffset": 501352, "byteLength": 8}, {"buffer": 0, "byteOffset": 501360, "byteLength": 24}, {"buffer": 0, "byteOffset": 501384, "byteLength": 132}, {"buffer": 0, "byteOffset": 501516, "byteLength": 528}, {"buffer": 0, "byteOffset": 502044, "byteLength": 8}, {"buffer": 0, "byteOffset": 502052, "byteLength": 24}, {"buffer": 0, "byteOffset": 502076, "byteLength": 8}, {"buffer": 0, "byteOffset": 502084, "byteLength": 32}, {"buffer": 0, "byteOffset": 502116, "byteLength": 8}, {"buffer": 0, "byteOffset": 502124, "byteLength": 24}, {"buffer": 0, "byteOffset": 502148, "byteLength": 8}, {"buffer": 0, "byteOffset": 502156, "byteLength": 32}, {"buffer": 0, "byteOffset": 502188, "byteLength": 8}, {"buffer": 0, "byteOffset": 502196, "byteLength": 24}, {"buffer": 0, "byteOffset": 502220, "byteLength": 132}, {"buffer": 0, "byteOffset": 502352, "byteLength": 528}, {"buffer": 0, "byteOffset": 502880, "byteLength": 8}, {"buffer": 0, "byteOffset": 502888, "byteLength": 24}, {"buffer": 0, "byteOffset": 502912, "byteLength": 132}, {"buffer": 0, "byteOffset": 503044, "byteLength": 528}, {"buffer": 0, "byteOffset": 503572, "byteLength": 8}, {"buffer": 0, "byteOffset": 503580, "byteLength": 24}, {"buffer": 0, "byteOffset": 503604, "byteLength": 132}, {"buffer": 0, "byteOffset": 503736, "byteLength": 528}, {"buffer": 0, "byteOffset": 504264, "byteLength": 8}, {"buffer": 0, "byteOffset": 504272, "byteLength": 24}, {"buffer": 0, "byteOffset": 504296, "byteLength": 132}, {"buffer": 0, "byteOffset": 504428, "byteLength": 528}, {"buffer": 0, "byteOffset": 504956, "byteLength": 8}, {"buffer": 0, "byteOffset": 504964, "byteLength": 24}, {"buffer": 0, "byteOffset": 504988, "byteLength": 132}, {"buffer": 0, "byteOffset": 505120, "byteLength": 528}, {"buffer": 0, "byteOffset": 505648, "byteLength": 8}, {"buffer": 0, "byteOffset": 505656, "byteLength": 24}, {"buffer": 0, "byteOffset": 505680, "byteLength": 132}, {"buffer": 0, "byteOffset": 505812, "byteLength": 528}, {"buffer": 0, "byteOffset": 506340, "byteLength": 8}, {"buffer": 0, "byteOffset": 506348, "byteLength": 24}, {"buffer": 0, "byteOffset": 506372, "byteLength": 132}, {"buffer": 0, "byteOffset": 506504, "byteLength": 528}, {"buffer": 0, "byteOffset": 507032, "byteLength": 132}, {"buffer": 0, "byteOffset": 507164, "byteLength": 396}, {"buffer": 0, "byteOffset": 507560, "byteLength": 132}, {"buffer": 0, "byteOffset": 507692, "byteLength": 528}, {"buffer": 0, "byteOffset": 508220, "byteLength": 8}, {"buffer": 0, "byteOffset": 508228, "byteLength": 24}, {"buffer": 0, "byteOffset": 508252, "byteLength": 8}, {"buffer": 0, "byteOffset": 508260, "byteLength": 32}, {"buffer": 0, "byteOffset": 508292, "byteLength": 8}, {"buffer": 0, "byteOffset": 508300, "byteLength": 24}, {"buffer": 0, "byteOffset": 508324, "byteLength": 132}, {"buffer": 0, "byteOffset": 508456, "byteLength": 528}, {"buffer": 0, "byteOffset": 508984, "byteLength": 8}, {"buffer": 0, "byteOffset": 508992, "byteLength": 24}, {"buffer": 0, "byteOffset": 509016, "byteLength": 8}, {"buffer": 0, "byteOffset": 509024, "byteLength": 32}, {"buffer": 0, "byteOffset": 509056, "byteLength": 8}, {"buffer": 0, "byteOffset": 509064, "byteLength": 24}, {"buffer": 0, "byteOffset": 509088, "byteLength": 8}, {"buffer": 0, "byteOffset": 509096, "byteLength": 32}], "samplers": [{"magFilter": 9729, "minFilter": 9987}, {"magFilter": 9728, "minFilter": 9728}], "buffers": [{"byteLength": 509128, "uri": "ranger.bin"}], "animations": [{"name": "Idle", "samplers": [{"input": 49, "output": 50, "interpolation": "LINEAR"}, {"input": 51, "output": 52, "interpolation": "LINEAR"}, {"input": 53, "output": 54, "interpolation": "LINEAR"}, {"input": 55, "output": 56, "interpolation": "LINEAR"}, {"input": 57, "output": 58, "interpolation": "LINEAR"}, {"input": 59, "output": 60, "interpolation": "LINEAR"}, {"input": 61, "output": 62, "interpolation": "LINEAR"}, {"input": 63, "output": 64, "interpolation": "LINEAR"}, {"input": 65, "output": 66, "interpolation": "LINEAR"}, {"input": 67, "output": 68, "interpolation": "LINEAR"}, {"input": 69, "output": 70, "interpolation": "LINEAR"}, {"input": 71, "output": 72, "interpolation": "LINEAR"}, {"input": 73, "output": 74, "interpolation": "LINEAR"}, {"input": 75, "output": 76, "interpolation": "LINEAR"}, {"input": 77, "output": 78, "interpolation": "LINEAR"}, {"input": 79, "output": 80, "interpolation": "LINEAR"}, {"input": 81, "output": 82, "interpolation": "LINEAR"}, {"input": 83, "output": 84, "interpolation": "LINEAR"}, {"input": 85, "output": 86, "interpolation": "LINEAR"}, {"input": 87, "output": 88, "interpolation": "LINEAR"}, {"input": 89, "output": 90, "interpolation": "LINEAR"}, {"input": 91, "output": 92, "interpolation": "LINEAR"}, {"input": 93, "output": 94, "interpolation": "LINEAR"}, {"input": 95, "output": 96, "interpolation": "LINEAR"}, {"input": 97, "output": 98, "interpolation": "LINEAR"}, {"input": 99, "output": 100, "interpolation": "LINEAR"}, {"input": 101, "output": 102, "interpolation": "LINEAR"}, {"input": 103, "output": 104, "interpolation": "LINEAR"}, {"input": 105, "output": 106, "interpolation": "LINEAR"}, {"input": 107, "output": 108, "interpolation": "LINEAR"}, {"input": 109, "output": 110, "interpolation": "LINEAR"}, {"input": 111, "output": 112, "interpolation": "LINEAR"}, {"input": 113, "output": 114, "interpolation": "LINEAR"}, {"input": 115, "output": 116, "interpolation": "LINEAR"}, {"input": 117, "output": 118, "interpolation": "LINEAR"}, {"input": 119, "output": 120, "interpolation": "LINEAR"}, {"input": 121, "output": 122, "interpolation": "LINEAR"}, {"input": 123, "output": 124, "interpolation": "LINEAR"}, {"input": 125, "output": 126, "interpolation": "LINEAR"}, {"input": 127, "output": 128, "interpolation": "LINEAR"}, {"input": 129, "output": 130, "interpolation": "LINEAR"}, {"input": 131, "output": 132, "interpolation": "LINEAR"}, {"input": 133, "output": 134, "interpolation": "LINEAR"}, {"input": 135, "output": 136, "interpolation": "LINEAR"}, {"input": 137, "output": 138, "interpolation": "LINEAR"}, {"input": 139, "output": 140, "interpolation": "LINEAR"}], "channels": [{"sampler": 0, "target": {"node": 21, "path": "translation"}}, {"sampler": 1, "target": {"node": 21, "path": "rotation"}}, {"sampler": 2, "target": {"node": 9, "path": "translation"}}, {"sampler": 3, "target": {"node": 9, "path": "rotation"}}, {"sampler": 4, "target": {"node": 6, "path": "translation"}}, {"sampler": 5, "target": {"node": 6, "path": "rotation"}}, {"sampler": 6, "target": {"node": 10, "path": "translation"}}, {"sampler": 7, "target": {"node": 10, "path": "rotation"}}, {"sampler": 8, "target": {"node": 18, "path": "translation"}}, {"sampler": 9, "target": {"node": 18, "path": "rotation"}}, {"sampler": 10, "target": {"node": 17, "path": "translation"}}, {"sampler": 11, "target": {"node": 17, "path": "rotation"}}, {"sampler": 12, "target": {"node": 16, "path": "translation"}}, {"sampler": 13, "target": {"node": 16, "path": "rotation"}}, {"sampler": 14, "target": {"node": 20, "path": "translation"}}, {"sampler": 15, "target": {"node": 20, "path": "rotation"}}, {"sampler": 16, "target": {"node": 15, "path": "translation"}}, {"sampler": 17, "target": {"node": 15, "path": "rotation"}}, {"sampler": 18, "target": {"node": 0, "path": "translation"}}, {"sampler": 19, "target": {"node": 0, "path": "rotation"}}, {"sampler": 20, "target": {"node": 22, "path": "translation"}}, {"sampler": 21, "target": {"node": 22, "path": "rotation"}}, {"sampler": 22, "target": {"node": 12, "path": "translation"}}, {"sampler": 23, "target": {"node": 12, "path": "rotation"}}, {"sampler": 24, "target": {"node": 3, "path": "translation"}}, {"sampler": 25, "target": {"node": 3, "path": "rotation"}}, {"sampler": 26, "target": {"node": 1, "path": "translation"}}, {"sampler": 27, "target": {"node": 1, "path": "rotation"}}, {"sampler": 28, "target": {"node": 19, "path": "translation"}}, {"sampler": 29, "target": {"node": 19, "path": "rotation"}}, {"sampler": 30, "target": {"node": 11, "path": "translation"}}, {"sampler": 31, "target": {"node": 11, "path": "rotation"}}, {"sampler": 32, "target": {"node": 7, "path": "translation"}}, {"sampler": 33, "target": {"node": 7, "path": "rotation"}}, {"sampler": 34, "target": {"node": 4, "path": "translation"}}, {"sampler": 35, "target": {"node": 4, "path": "rotation"}}, {"sampler": 36, "target": {"node": 2, "path": "translation"}}, {"sampler": 37, "target": {"node": 2, "path": "rotation"}}, {"sampler": 38, "target": {"node": 8, "path": "translation"}}, {"sampler": 39, "target": {"node": 8, "path": "rotation"}}, {"sampler": 40, "target": {"node": 13, "path": "translation"}}, {"sampler": 41, "target": {"node": 13, "path": "rotation"}}, {"sampler": 42, "target": {"node": 5, "path": "translation"}}, {"sampler": 43, "target": {"node": 5, "path": "rotation"}}, {"sampler": 44, "target": {"node": 14, "path": "translation"}}, {"sampler": 45, "target": {"node": 14, "path": "rotation"}}]}, {"name": "Walk", "samplers": [{"input": 141, "output": 142, "interpolation": "LINEAR"}, {"input": 143, "output": 144, "interpolation": "LINEAR"}, {"input": 145, "output": 146, "interpolation": "LINEAR"}, {"input": 147, "output": 148, "interpolation": "LINEAR"}, {"input": 149, "output": 150, "interpolation": "LINEAR"}, {"input": 151, "output": 152, "interpolation": "LINEAR"}, {"input": 153, "output": 154, "interpolation": "LINEAR"}, {"input": 155, "output": 156, "interpolation": "LINEAR"}, {"input": 157, "output": 158, "interpolation": "LINEAR"}, {"input": 159, "output": 160, "interpolation": "LINEAR"}, {"input": 161, "output": 162, "interpolation": "LINEAR"}, {"input": 163, "output": 164, "interpolation": "LINEAR"}, {"input": 165, "output": 166, "interpolation": "LINEAR"}, {"input": 167, "output": 168, "interpolation": "LINEAR"}, {"input": 169, "output": 170, "interpolation": "LINEAR"}, {"input": 171, "output": 172, "interpolation": "LINEAR"}, {"input": 173, "output": 174, "interpolation": "LINEAR"}, {"input": 175, "output": 176, "interpolation": "LINEAR"}, {"input": 177, "output": 178, "interpolation": "LINEAR"}, {"input": 179, "output": 180, "interpolation": "LINEAR"}, {"input": 181, "output": 182, "interpolation": "LINEAR"}, {"input": 183, "output": 184, "interpolation": "LINEAR"}, {"input": 185, "output": 186, "interpolation": "LINEAR"}, {"input": 187, "output": 188, "interpolation": "LINEAR"}, {"input": 189, "output": 190, "interpolation": "LINEAR"}, {"input": 191, "output": 192, "interpolation": "LINEAR"}, {"input": 193, "output": 194, "interpolation": "LINEAR"}, {"input": 195, "output": 196, "interpolation": "LINEAR"}, {"input": 197, "output": 198, "interpolation": "LINEAR"}, {"input": 199, "output": 200, "interpolation": "LINEAR"}, {"input": 201, "output": 202, "interpolation": "LINEAR"}, {"input": 203, "output": 204, "interpolation": "LINEAR"}, {"input": 205, "output": 206, "interpolation": "LINEAR"}, {"input": 207, "output": 208, "interpolation": "LINEAR"}, {"input": 209, "output": 210, "interpolation": "LINEAR"}, {"input": 211, "output": 212, "interpolation": "LINEAR"}, {"input": 213, "output": 214, "interpolation": "LINEAR"}, {"input": 215, "output": 216, "interpolation": "LINEAR"}, {"input": 217, "output": 218, "interpolation": "LINEAR"}, {"input": 219, "output": 220, "interpolation": "LINEAR"}, {"input": 221, "output": 222, "interpolation": "LINEAR"}, {"input": 223, "output": 224, "interpolation": "LINEAR"}, {"input": 225, "output": 226, "interpolation": "LINEAR"}, {"input": 227, "output": 228, "interpolation": "LINEAR"}, {"input": 229, "output": 230, "interpolation": "LINEAR"}, {"input": 231, "output": 232, "interpolation": "LINEAR"}], "channels": [{"sampler": 0, "target": {"node": 17, "path": "translation"}}, {"sampler": 1, "target": {"node": 17, "path": "rotation"}}, {"sampler": 2, "target": {"node": 0, "path": "translation"}}, {"sampler": 3, "target": {"node": 0, "path": "rotation"}}, {"sampler": 4, "target": {"node": 11, "path": "translation"}}, {"sampler": 5, "target": {"node": 11, "path": "rotation"}}, {"sampler": 6, "target": {"node": 1, "path": "translation"}}, {"sampler": 7, "target": {"node": 1, "path": "rotation"}}, {"sampler": 8, "target": {"node": 6, "path": "translation"}}, {"sampler": 9, "target": {"node": 6, "path": "rotation"}}, {"sampler": 10, "target": {"node": 4, "path": "translation"}}, {"sampler": 11, "target": {"node": 4, "path": "rotation"}}, {"sampler": 12, "target": {"node": 10, "path": "translation"}}, {"sampler": 13, "target": {"node": 10, "path": "rotation"}}, {"sampler": 14, "target": {"node": 13, "path": "translation"}}, {"sampler": 15, "target": {"node": 13, "path": "rotation"}}, {"sampler": 16, "target": {"node": 7, "path": "translation"}}, {"sampler": 17, "target": {"node": 7, "path": "rotation"}}, {"sampler": 18, "target": {"node": 9, "path": "translation"}}, {"sampler": 19, "target": {"node": 9, "path": "rotation"}}, {"sampler": 20, "target": {"node": 8, "path": "translation"}}, {"sampler": 21, "target": {"node": 8, "path": "rotation"}}, {"sampler": 22, "target": {"node": 18, "path": "translation"}}, {"sampler": 23, "target": {"node": 18, "path": "rotation"}}, {"sampler": 24, "target": {"node": 12, "path": "translation"}}, {"sampler": 25, "target": {"node": 12, "path": "rotation"}}, {"sampler": 26, "target": {"node": 15, "path": "translation"}}, {"sampler": 27, "target": {"node": 15, "path": "rotation"}}, {"sampler": 28, "target": {"node": 19, "path": "translation"}}, {"sampler": 29, "target": {"node": 19, "path": "rotation"}}, {"sampler": 30, "target": {"node": 20, "path": "translation"}}, {"sampler": 31, "target": {"node": 20, "path": "rotation"}}, {"sampler": 32, "target": {"node": 2, "path": "translation"}}, {"sampler": 33, "target": {"node": 2, "path": "rotation"}}, {"sampler": 34, "target": {"node": 5, "path": "translation"}}, {"sampler": 35, "target": {"node": 5, "path": "rotation"}}, {"sampler": 36, "target": {"node": 21, "path": "translation"}}, {"sampler": 37, "target": {"node": 21, "path": "rotation"}}, {"sampler": 38, "target": {"node": 14, "path": "translation"}}, {"sampler": 39, "target": {"node": 14, "path": "rotation"}}, {"sampler": 40, "target": {"node": 3, "path": "translation"}}, {"sampler": 41, "target": {"node": 3, "path": "rotation"}}, {"sampler": 42, "target": {"node": 16, "path": "translation"}}, {"sampler": 43, "target": {"node": 16, "path": "rotation"}}, {"sampler": 44, "target": {"node": 22, "path": "translation"}}, {"sampler": 45, "target": {"node": 22, "path": "rotation"}}]}, {"name": "Sprint", "samplers": [{"input": 233, "output": 234, "interpolation": "LINEAR"}, {"input": 235, "output": 236, "interpolation": "LINEAR"}, {"input": 237, "output": 238, "interpolation": "LINEAR"}, {"input": 239, "output": 240, "interpolation": "LINEAR"}, {"input": 241, "output": 242, "interpolation": "LINEAR"}, {"input": 243, "output": 244, "interpolation": "LINEAR"}, {"input": 245, "output": 246, "interpolation": "LINEAR"}, {"input": 247, "output": 248, "interpolation": "LINEAR"}, {"input": 249, "output": 250, "interpolation": "LINEAR"}, {"input": 251, "output": 252, "interpolation": "LINEAR"}, {"input": 253, "output": 254, "interpolation": "LINEAR"}, {"input": 255, "output": 256, "interpolation": "LINEAR"}, {"input": 257, "output": 258, "interpolation": "LINEAR"}, {"input": 259, "output": 260, "interpolation": "LINEAR"}, {"input": 261, "output": 262, "interpolation": "LINEAR"}, {"input": 263, "output": 264, "interpolation": "LINEAR"}, {"input": 265, "output": 266, "interpolation": "LINEAR"}, {"input": 267, "output": 268, "interpolation": "LINEAR"}, {"input": 269, "output": 270, "interpolation": "LINEAR"}, {"input": 271, "output": 272, "interpolation": "LINEAR"}, {"input": 273, "output": 274, "interpolation": "LINEAR"}, {"input": 275, "output": 276, "interpolation": "LINEAR"}, {"input": 277, "output": 278, "interpolation": "LINEAR"}, {"input": 279, "output": 280, "interpolation": "LINEAR"}, {"input": 281, "output": 282, "interpolation": "LINEAR"}, {"input": 283, "output": 284, "interpolation": "LINEAR"}, {"input": 285, "output": 286, "interpolation": "LINEAR"}, {"input": 287, "output": 288, "interpolation": "LINEAR"}, {"input": 289, "output": 290, "interpolation": "LINEAR"}, {"input": 291, "output": 292, "interpolation": "LINEAR"}, {"input": 293, "output": 294, "interpolation": "LINEAR"}, {"input": 295, "output": 296, "interpolation": "LINEAR"}, {"input": 297, "output": 298, "interpolation": "LINEAR"}, {"input": 299, "output": 300, "interpolation": "LINEAR"}, {"input": 301, "output": 302, "interpolation": "LINEAR"}, {"input": 303, "output": 304, "interpolation": "LINEAR"}, {"input": 305, "output": 306, "interpolation": "LINEAR"}, {"input": 307, "output": 308, "interpolation": "LINEAR"}, {"input": 309, "output": 310, "interpolation": "LINEAR"}, {"input": 311, "output": 312, "interpolation": "LINEAR"}, {"input": 313, "output": 314, "interpolation": "LINEAR"}, {"input": 315, "output": 316, "interpolation": "LINEAR"}, {"input": 317, "output": 318, "interpolation": "LINEAR"}, {"input": 319, "output": 320, "interpolation": "LINEAR"}, {"input": 321, "output": 322, "interpolation": "LINEAR"}, {"input": 323, "output": 324, "interpolation": "LINEAR"}], "channels": [{"sampler": 0, "target": {"node": 17, "path": "translation"}}, {"sampler": 1, "target": {"node": 17, "path": "rotation"}}, {"sampler": 2, "target": {"node": 0, "path": "translation"}}, {"sampler": 3, "target": {"node": 0, "path": "rotation"}}, {"sampler": 4, "target": {"node": 11, "path": "translation"}}, {"sampler": 5, "target": {"node": 11, "path": "rotation"}}, {"sampler": 6, "target": {"node": 1, "path": "translation"}}, {"sampler": 7, "target": {"node": 1, "path": "rotation"}}, {"sampler": 8, "target": {"node": 6, "path": "translation"}}, {"sampler": 9, "target": {"node": 6, "path": "rotation"}}, {"sampler": 10, "target": {"node": 4, "path": "translation"}}, {"sampler": 11, "target": {"node": 4, "path": "rotation"}}, {"sampler": 12, "target": {"node": 10, "path": "translation"}}, {"sampler": 13, "target": {"node": 10, "path": "rotation"}}, {"sampler": 14, "target": {"node": 13, "path": "translation"}}, {"sampler": 15, "target": {"node": 13, "path": "rotation"}}, {"sampler": 16, "target": {"node": 7, "path": "translation"}}, {"sampler": 17, "target": {"node": 7, "path": "rotation"}}, {"sampler": 18, "target": {"node": 9, "path": "translation"}}, {"sampler": 19, "target": {"node": 9, "path": "rotation"}}, {"sampler": 20, "target": {"node": 8, "path": "translation"}}, {"sampler": 21, "target": {"node": 8, "path": "rotation"}}, {"sampler": 22, "target": {"node": 18, "path": "translation"}}, {"sampler": 23, "target": {"node": 18, "path": "rotation"}}, {"sampler": 24, "target": {"node": 12, "path": "translation"}}, {"sampler": 25, "target": {"node": 12, "path": "rotation"}}, {"sampler": 26, "target": {"node": 15, "path": "translation"}}, {"sampler": 27, "target": {"node": 15, "path": "rotation"}}, {"sampler": 28, "target": {"node": 19, "path": "translation"}}, {"sampler": 29, "target": {"node": 19, "path": "rotation"}}, {"sampler": 30, "target": {"node": 20, "path": "translation"}}, {"sampler": 31, "target": {"node": 20, "path": "rotation"}}, {"sampler": 32, "target": {"node": 2, "path": "translation"}}, {"sampler": 33, "target": {"node": 2, "path": "rotation"}}, {"sampler": 34, "target": {"node": 5, "path": "translation"}}, {"sampler": 35, "target": {"node": 5, "path": "rotation"}}, {"sampler": 36, "target": {"node": 21, "path": "translation"}}, {"sampler": 37, "target": {"node": 21, "path": "rotation"}}, {"sampler": 38, "target": {"node": 14, "path": "translation"}}, {"sampler": 39, "target": {"node": 14, "path": "rotation"}}, {"sampler": 40, "target": {"node": 3, "path": "translation"}}, {"sampler": 41, "target": {"node": 3, "path": "rotation"}}, {"sampler": 42, "target": {"node": 16, "path": "translation"}}, {"sampler": 43, "target": {"node": 16, "path": "rotation"}}, {"sampler": 44, "target": {"node": 22, "path": "translation"}}, {"sampler": 45, "target": {"node": 22, "path": "rotation"}}]}, {"name": "Jump", "samplers": [{"input": 325, "output": 326, "interpolation": "LINEAR"}, {"input": 327, "output": 328, "interpolation": "LINEAR"}, {"input": 329, "output": 330, "interpolation": "LINEAR"}, {"input": 331, "output": 332, "interpolation": "LINEAR"}, {"input": 333, "output": 334, "interpolation": "LINEAR"}, {"input": 335, "output": 336, "interpolation": "LINEAR"}, {"input": 337, "output": 338, "interpolation": "LINEAR"}, {"input": 339, "output": 340, "interpolation": "LINEAR"}, {"input": 341, "output": 342, "interpolation": "LINEAR"}, {"input": 343, "output": 344, "interpolation": "LINEAR"}, {"input": 345, "output": 346, "interpolation": "LINEAR"}, {"input": 347, "output": 348, "interpolation": "LINEAR"}, {"input": 349, "output": 350, "interpolation": "LINEAR"}, {"input": 351, "output": 352, "interpolation": "LINEAR"}, {"input": 353, "output": 354, "interpolation": "LINEAR"}, {"input": 355, "output": 356, "interpolation": "LINEAR"}, {"input": 357, "output": 358, "interpolation": "LINEAR"}, {"input": 359, "output": 360, "interpolation": "LINEAR"}, {"input": 361, "output": 362, "interpolation": "LINEAR"}, {"input": 363, "output": 364, "interpolation": "LINEAR"}, {"input": 365, "output": 366, "interpolation": "LINEAR"}, {"input": 367, "output": 368, "interpolation": "LINEAR"}, {"input": 369, "output": 370, "interpolation": "LINEAR"}, {"input": 371, "output": 372, "interpolation": "LINEAR"}, {"input": 373, "output": 374, "interpolation": "LINEAR"}, {"input": 375, "output": 376, "interpolation": "LINEAR"}, {"input": 377, "output": 378, "interpolation": "LINEAR"}, {"input": 379, "output": 380, "interpolation": "LINEAR"}, {"input": 381, "output": 382, "interpolation": "LINEAR"}, {"input": 383, "output": 384, "interpolation": "LINEAR"}, {"input": 385, "output": 386, "interpolation": "LINEAR"}, {"input": 387, "output": 388, "interpolation": "LINEAR"}, {"input": 389, "output": 390, "interpolation": "LINEAR"}, {"input": 391, "output": 392, "interpolation": "LINEAR"}, {"input": 393, "output": 394, "interpolation": "LINEAR"}, {"input": 395, "output": 396, "interpolation": "LINEAR"}, {"input": 397, "output": 398, "interpolation": "LINEAR"}, {"input": 399, "output": 400, "interpolation": "LINEAR"}, {"input": 401, "output": 402, "interpolation": "LINEAR"}, {"input": 403, "output": 404, "interpolation": "LINEAR"}, {"input": 405, "output": 406, "interpolation": "LINEAR"}, {"input": 407, "output": 408, "interpolation": "LINEAR"}, {"input": 409, "output": 410, "interpolation": "LINEAR"}, {"input": 411, "output": 412, "interpolation": "LINEAR"}, {"input": 413, "output": 414, "interpolation": "LINEAR"}, {"input": 415, "output": 416, "interpolation": "LINEAR"}], "channels": [{"sampler": 0, "target": {"node": 17, "path": "translation"}}, {"sampler": 1, "target": {"node": 17, "path": "rotation"}}, {"sampler": 2, "target": {"node": 0, "path": "translation"}}, {"sampler": 3, "target": {"node": 0, "path": "rotation"}}, {"sampler": 4, "target": {"node": 11, "path": "translation"}}, {"sampler": 5, "target": {"node": 11, "path": "rotation"}}, {"sampler": 6, "target": {"node": 1, "path": "translation"}}, {"sampler": 7, "target": {"node": 1, "path": "rotation"}}, {"sampler": 8, "target": {"node": 6, "path": "translation"}}, {"sampler": 9, "target": {"node": 6, "path": "rotation"}}, {"sampler": 10, "target": {"node": 4, "path": "translation"}}, {"sampler": 11, "target": {"node": 4, "path": "rotation"}}, {"sampler": 12, "target": {"node": 10, "path": "translation"}}, {"sampler": 13, "target": {"node": 10, "path": "rotation"}}, {"sampler": 14, "target": {"node": 13, "path": "translation"}}, {"sampler": 15, "target": {"node": 13, "path": "rotation"}}, {"sampler": 16, "target": {"node": 7, "path": "translation"}}, {"sampler": 17, "target": {"node": 7, "path": "rotation"}}, {"sampler": 18, "target": {"node": 9, "path": "translation"}}, {"sampler": 19, "target": {"node": 9, "path": "rotation"}}, {"sampler": 20, "target": {"node": 8, "path": "translation"}}, {"sampler": 21, "target": {"node": 8, "path": "rotation"}}, {"sampler": 22, "target": {"node": 18, "path": "translation"}}, {"sampler": 23, "target": {"node": 18, "path": "rotation"}}, {"sampler": 24, "target": {"node": 12, "path": "translation"}}, {"sampler": 25, "target": {"node": 12, "path": "rotation"}}, {"sampler": 26, "target": {"node": 15, "path": "translation"}}, {"sampler": 27, "target": {"node": 15, "path": "rotation"}}, {"sampler": 28, "target": {"node": 19, "path": "translation"}}, {"sampler": 29, "target": {"node": 19, "path": "rotation"}}, {"sampler": 30, "target": {"node": 20, "path": "translation"}}, {"sampler": 31, "target": {"node": 20, "path": "rotation"}}, {"sampler": 32, "target": {"node": 2, "path": "translation"}}, {"sampler": 33, "target": {"node": 2, "path": "rotation"}}, {"sampler": 34, "target": {"node": 5, "path": "translation"}}, {"sampler": 35, "target": {"node": 5, "path": "rotation"}}, {"sampler": 36, "target": {"node": 21, "path": "translation"}}, {"sampler": 37, "target": {"node": 21, "path": "rotation"}}, {"sampler": 38, "target": {"node": 14, "path": "translation"}}, {"sampler": 39, "target": {"node": 14, "path": "rotation"}}, {"sampler": 40, "target": {"node": 3, "path": "translation"}}, {"sampler": 41, "target": {"node": 3, "path": "rotation"}}, {"sampler": 42, "target": {"node": 16, "path": "translation"}}, {"sampler": 43, "target": {"node": 16, "path": "rotation"}}, {"sampler": 44, "target": {"node": 22, "path": "translation"}}, {"sampler": 45, "target": {"node": 22, "path": "rotation"}}]}]}