{"asset": {"generator": "Khronos glTF Blender I/O v1.7.33", "version": "2.0"}, "scene": 0, "scenes": [{"name": "Scene", "nodes": [30]}], "nodes": [{"name": "toes.l", "rotation": [4.775987960670136e-08, 0.920354962348938, -0.39108410477638245, 5.801560831741881e-08], "scale": [1, 0.9999966025352478, 1.000003695487976], "translation": [-1.5114396845206102e-08, 0.16565002501010895, 5.171392203351388e-09]}, {"children": [0], "name": "foot.l", "rotation": [-0.45523902773857117, 1.6197549967955638e-08, -3.4356396838575165e-08, 0.8903692960739136], "scale": [1, 1.0000008344650269, 0.9999987483024597], "translation": [1.833934670791848e-10, 0.14943702518939972, 9.65873825364838e-10]}, {"children": [1], "name": "lowerleg.l", "rotation": [0.1062251403927803, 6.865227675234564e-08, -7.377025923460678e-08, 0.9943422079086304], "scale": [1, 1.0000004768371582, 1.0000001192092896], "translation": [3.57975737941274e-09, 0.22707749903202057, -6.140325137238278e-09]}, {"children": [2], "name": "upperleg.l", "rotation": [0.9998490810394287, -7.132765489359372e-08, -1.2042731256656225e-08, 0.017373191192746162], "scale": [1, 0.9999998211860657, 1.0000011920928955], "translation": [0.17094506323337555, 0.11358726024627686, 1.392327231286572e-08]}, {"name": "toes.r", "rotation": [2.1219815238282536e-08, 0.920354962348938, -0.39108410477638245, 6.450591172324494e-08], "scale": [1, 0.9999966025352478, 1.000003695487976], "translation": [2.1323326437894252e-10, 0.16565002501010895, 5.1714001969571655e-09]}, {"children": [4], "name": "foot.r", "rotation": [-0.45523902773857117, 1.659820298982595e-07, 2.250484687493781e-09, 0.8903692960739136], "scale": [1, 1.0000008344650269, 0.9999987483024597], "translation": [-1.833922180782821e-10, 0.14943702518939972, 9.65878599323844e-10]}, {"children": [5], "name": "lowerleg.r", "rotation": [0.1062251403927803, -6.865229096320036e-08, 7.377025923460678e-08, 0.9943422079086304], "scale": [1, 1.0000004768371582, 1.0000001192092896], "translation": [-3.57975737941274e-09, 0.22707749903202057, -6.140325137238278e-09]}, {"children": [6], "name": "upperleg.r", "rotation": [0.9998490810394287, 7.426572778967966e-08, -3.172628026959501e-08, 0.017373191192746162], "scale": [1, 0.9999998211860657, 1.0000011920928955], "translation": [-0.17094506323337555, 0.11358726024627686, 1.392327231286572e-08]}, {"name": "handslot.r", "rotation": [1.6805922209428559e-09, -1.6805921099205534e-09, 0.7071068286895752, 0.7071067094802856], "scale": [0.9999999403953552, 1, 0.9999999403953552], "translation": [-5.138920400327152e-10, 0.09612506628036499, -0.05750012397766113]}, {"children": [8], "name": "hand.r", "rotation": [1.199916277450086e-09, -9.210968698880606e-08, 5.455195605463814e-06, 1], "scale": [1, 0.9999999403953552, 0.9999999403953552], "translation": [3.9968028886505635e-15, 0.07382583618164062, -2.220446049250313e-16]}, {"children": [9], "name": "wrist.r", "rotation": [5.11842720984923e-11, 3.0773722459187525e-10, -0.02665809914469719, 0.9996446967124939], "scale": [0.9999999403953552, 0.9999999403953552, 0.9999999403953552], "translation": [-7.426281811717672e-09, 0.26004382967948914, 6.127964108371131e-11]}, {"children": [10], "name": "lowerarm.r", "rotation": [1.4942596049394297e-09, 6.228115267958856e-08, 0.05528552085161209, 0.9984706044197083], "scale": [1.000000238418579, 0.9999998807907104, 0.9999999403953552], "translation": [-7.12192249618937e-11, 0.2418973296880722, -1.1940561250867177e-07]}, {"children": [11], "name": "upperarm.r", "rotation": [-0.514121413230896, 0.48546773195266724, 0.4854677617549896, 0.514121949672699], "scale": [0.9999993443489075, 0.9999993443489075, 0.9999997615814209], "translation": [-0.21200737357139587, 0.13413214683532715, 8.40246201505579e-08]}, {"name": "head", "rotation": [0, 4.235164736271502e-22, 0, 1], "translation": [0, 0.26879656314849854, 0]}, {"name": "handslot.l", "rotation": [1.6806123159796016e-09, 1.6806122049572991e-09, -0.7071068286895752, 0.7071067094802856], "scale": [0.9999999403953552, 1, 0.9999999403953552], "translation": [5.138920400327152e-10, 0.09612506628036499, -0.05750012397766113]}, {"children": [14], "name": "hand.l", "rotation": [1.2001638571845774e-09, 1.358929182515567e-07, -5.455195605463814e-06, 1], "scale": [1, 0.9999999403953552, 0.9999999403953552], "translation": [9.054978988842777e-13, 0.07382583618164062, -2.220446049250313e-16]}, {"children": [15], "name": "wrist.l", "rotation": [5.118455659314236e-11, -3.0774255366239345e-10, 0.02665809914469719, 0.9996446967124939], "scale": [0.9999999403953552, 0.9999999403953552, 0.9999999403953552], "translation": [7.426281811717672e-09, 0.26004382967948914, 6.127964108371131e-11]}, {"children": [16], "name": "lowerarm.l", "rotation": [1.4942596049394297e-09, -6.228115267958856e-08, -0.05528552085161209, 0.9984706044197083], "scale": [1.000000238418579, 0.9999998807907104, 0.9999999403953552], "translation": [-3.219664312936743e-09, 0.24189729988574982, -1.1940561250867177e-07]}, {"children": [17], "name": "upperarm.l", "rotation": [-0.5141214728355408, -0.485467791557312, -0.4854677617549896, 0.5141218900680542], "scale": [0.9999993443489075, 0.9999993443489075, 0.9999997615814209], "translation": [0.21200737357139587, 0.13413214683532715, 8.40246201505579e-08]}, {"children": [12, 13, 18], "name": "chest", "rotation": [0, -8.470329472543003e-22, 0, 1], "scale": [1, 0.9999999403953552, 1], "translation": [0, 0.37498795986175537, 0]}, {"children": [19], "name": "spine", "rotation": [0, 7.105427357601002e-15, 0, 1], "translation": [0, 0.19197750091552734, 0]}, {"children": [3, 7, 20], "name": "hips", "rotation": [0, -1.1920927533992653e-07, 0, 1], "translation": [0, 0.4056634306907654, 0]}, {"children": [21], "name": "root", "rotation": [0, 1.1920927533992653e-07, 0, 1]}, {"mesh": 0, "name": "Rogue_ArmLeft", "skin": 0}, {"mesh": 1, "name": "Rogue_ArmRight", "skin": 0}, {"mesh": 2, "name": "Rogue_Body", "skin": 0}, {"mesh": 3, "name": "Rogue_Cape", "skin": 0}, {"mesh": 4, "name": "Rogue_Head", "skin": 0}, {"mesh": 5, "name": "Rogue_LegLeft", "skin": 0}, {"mesh": 6, "name": "Rogue_LegRight", "skin": 0}, {"children": [23, 24, 25, 26, 27, 28, 29, 22], "name": "Rig_Medium", "scale": [0.7796901372515257, 0.7796901372515257, 0.7796901372515257]}], "materials": [{"doubleSided": true, "name": "rogue", "pbrMetallicRoughness": {"baseColorTexture": {"index": 0}, "metallicFactor": 0, "roughnessFactor": 0.5}}], "meshes": [{"name": "Rogue_ArmLeft", "primitives": [{"attributes": {"POSITION": 0, "NORMAL": 1, "TEXCOORD_0": 2, "JOINTS_0": 3, "WEIGHTS_0": 4}, "indices": 5, "material": 0}]}, {"name": "Rogue_ArmRight", "primitives": [{"attributes": {"POSITION": 7, "NORMAL": 8, "TEXCOORD_0": 9, "JOINTS_0": 10, "WEIGHTS_0": 11}, "indices": 12, "material": 0}]}, {"name": "Rogue_Body", "primitives": [{"attributes": {"POSITION": 13, "NORMAL": 14, "TEXCOORD_0": 15, "JOINTS_0": 16, "WEIGHTS_0": 17}, "indices": 18, "material": 0}]}, {"name": "Rogue_Cape", "primitives": [{"attributes": {"POSITION": 19, "NORMAL": 20, "TEXCOORD_0": 21, "JOINTS_0": 22, "WEIGHTS_0": 23}, "indices": 24, "material": 0}]}, {"name": "Rogue_Head", "primitives": [{"attributes": {"POSITION": 25, "NORMAL": 26, "TEXCOORD_0": 27, "JOINTS_0": 28, "WEIGHTS_0": 29}, "indices": 30, "material": 0}]}, {"name": "Rogue_LegLeft", "primitives": [{"attributes": {"POSITION": 31, "NORMAL": 32, "TEXCOORD_0": 33, "JOINTS_0": 34, "WEIGHTS_0": 35}, "indices": 36, "material": 0}]}, {"name": "Rogue_LegRight", "primitives": [{"attributes": {"POSITION": 37, "NORMAL": 38, "TEXCOORD_0": 39, "JOINTS_0": 40, "WEIGHTS_0": 41}, "indices": 42, "material": 0}]}], "textures": [{"sampler": 1, "source": 0}], "images": [{"uri": "rogue.png"}], "skins": [{"inverseBindMatrices": 6, "joints": [22, 21, 3, 2, 1, 0, 7, 6, 5, 4, 20, 19, 12, 11, 10, 9, 8, 13, 18, 17, 16, 15, 14], "name": "Rig_Medium"}], "accessors": [{"bufferView": 0, "componentType": 5126, "count": 653, "max": [0.9723502397537231, 1.2524663209915161, 0.14893627166748047], "min": [0.08884763717651367, 0.9570232629776001, -0.14893615245819092], "type": "VEC3"}, {"bufferView": 1, "componentType": 5126, "count": 653, "type": "VEC3"}, {"bufferView": 2, "componentType": 5126, "count": 653, "type": "VEC2"}, {"bufferView": 3, "componentType": 5121, "count": 653, "type": "VEC4"}, {"bufferView": 4, "componentType": 5126, "count": 653, "type": "VEC4"}, {"bufferView": 5, "componentType": 5123, "count": 2364, "type": "SCALAR"}, {"bufferView": 6, "componentType": 5126, "count": 23, "type": "MAT4"}, {"bufferView": 7, "componentType": 5126, "count": 653, "max": [-0.08884429931640625, 1.2524663209915161, 0.14893627166748047], "min": [-0.9723469018936157, 0.9570232629776001, -0.14893615245819092], "type": "VEC3"}, {"bufferView": 8, "componentType": 5126, "count": 653, "type": "VEC3"}, {"bufferView": 9, "componentType": 5126, "count": 653, "type": "VEC2"}, {"bufferView": 10, "componentType": 5121, "count": 653, "type": "VEC4"}, {"bufferView": 11, "componentType": 5126, "count": 653, "type": "VEC4"}, {"bufferView": 12, "componentType": 5123, "count": 2364, "type": "SCALAR"}, {"bufferView": 13, "componentType": 5126, "count": 1369, "max": [0.48825299739837646, 1.2481188774108887, 0.3723374903202057], "min": [-0.3960537016391754, 0.37520065903663635, -0.3356860280036926], "type": "VEC3"}, {"bufferView": 14, "componentType": 5126, "count": 1369, "type": "VEC3"}, {"bufferView": 15, "componentType": 5126, "count": 1369, "type": "VEC2"}, {"bufferView": 16, "componentType": 5121, "count": 1369, "type": "VEC4"}, {"bufferView": 17, "componentType": 5126, "count": 1369, "type": "VEC4"}, {"bufferView": 18, "componentType": 5123, "count": 4308, "type": "SCALAR"}, {"bufferView": 19, "componentType": 5126, "count": 56, "max": [0.4853864312171936, 1.235973596572876, -0.043504904955625534], "min": [-0.485370397567749, 0.09402883052825928, -0.38609376549720764], "type": "VEC3"}, {"bufferView": 20, "componentType": 5126, "count": 56, "type": "VEC3"}, {"bufferView": 21, "componentType": 5126, "count": 56, "type": "VEC2"}, {"bufferView": 22, "componentType": 5121, "count": 56, "type": "VEC4"}, {"bufferView": 23, "componentType": 5126, "count": 56, "type": "VEC4"}, {"bufferView": 24, "componentType": 5123, "count": 252, "type": "SCALAR"}, {"bufferView": 25, "componentType": 5126, "count": 2131, "max": [0.5591443777084351, 2.178328037261963, 0.5631945729255676], "min": [-0.5822474956512451, 1.052064299583435, -0.5806655883789062], "type": "VEC3"}, {"bufferView": 26, "componentType": 5126, "count": 2131, "type": "VEC3"}, {"bufferView": 27, "componentType": 5126, "count": 2131, "type": "VEC2"}, {"bufferView": 28, "componentType": 5121, "count": 2131, "type": "VEC4"}, {"bufferView": 29, "componentType": 5126, "count": 2131, "type": "VEC4"}, {"bufferView": 30, "componentType": 5123, "count": 7818, "type": "SCALAR"}, {"bufferView": 31, "componentType": 5126, "count": 780, "max": [0.29099592566490173, 0.5291943550109863, 0.28061366081237793], "min": [0.045867450535297394, -0.0020253092516213655, -0.1277633011341095], "type": "VEC3"}, {"bufferView": 32, "componentType": 5126, "count": 780, "type": "VEC3"}, {"bufferView": 33, "componentType": 5126, "count": 780, "type": "VEC2"}, {"bufferView": 34, "componentType": 5121, "count": 780, "type": "VEC4"}, {"bufferView": 35, "componentType": 5126, "count": 780, "type": "VEC4"}, {"bufferView": 36, "componentType": 5123, "count": 2790, "type": "SCALAR"}, {"bufferView": 37, "componentType": 5126, "count": 780, "max": [-0.04587317258119583, 0.5291943550109863, 0.28061366081237793], "min": [-0.29100164771080017, -0.0020253092516213655, -0.1277633011341095], "type": "VEC3"}, {"bufferView": 38, "componentType": 5126, "count": 780, "type": "VEC3"}, {"bufferView": 39, "componentType": 5126, "count": 780, "type": "VEC2"}, {"bufferView": 40, "componentType": 5121, "count": 780, "type": "VEC4"}, {"bufferView": 41, "componentType": 5126, "count": 780, "type": "VEC4"}, {"bufferView": 42, "componentType": 5123, "count": 2790, "type": "SCALAR"}, {"bufferView": 43, "componentType": 5126, "count": 33, "type": "SCALAR", "min": [0], "max": [1.0666666666666667]}, {"bufferView": 44, "componentType": 5126, "count": 33, "type": "VEC3"}, {"bufferView": 45, "componentType": 5126, "count": 33, "type": "SCALAR", "min": [0], "max": [1.0666666666666667]}, {"bufferView": 46, "componentType": 5126, "count": 33, "type": "VEC4"}, {"bufferView": 47, "componentType": 5126, "count": 2, "type": "SCALAR", "min": [0], "max": [1.0666666666666667]}, {"bufferView": 48, "componentType": 5126, "count": 2, "type": "VEC3"}, {"bufferView": 49, "componentType": 5126, "count": 33, "type": "SCALAR", "min": [0], "max": [1.0666666666666667]}, {"bufferView": 50, "componentType": 5126, "count": 33, "type": "VEC4"}, {"bufferView": 51, "componentType": 5126, "count": 2, "type": "SCALAR", "min": [0], "max": [1.0666666666666667]}, {"bufferView": 52, "componentType": 5126, "count": 2, "type": "VEC3"}, {"bufferView": 53, "componentType": 5126, "count": 33, "type": "SCALAR", "min": [0], "max": [1.0666666666666667]}, {"bufferView": 54, "componentType": 5126, "count": 33, "type": "VEC4"}, {"bufferView": 55, "componentType": 5126, "count": 2, "type": "SCALAR", "min": [0], "max": [1.0666666666666667]}, {"bufferView": 56, "componentType": 5126, "count": 2, "type": "VEC3"}, {"bufferView": 57, "componentType": 5126, "count": 33, "type": "SCALAR", "min": [0], "max": [1.0666666666666667]}, {"bufferView": 58, "componentType": 5126, "count": 33, "type": "VEC4"}, {"bufferView": 59, "componentType": 5126, "count": 2, "type": "SCALAR", "min": [0], "max": [1.0666666666666667]}, {"bufferView": 60, "componentType": 5126, "count": 2, "type": "VEC3"}, {"bufferView": 61, "componentType": 5126, "count": 33, "type": "SCALAR", "min": [0], "max": [1.0666666666666667]}, {"bufferView": 62, "componentType": 5126, "count": 33, "type": "VEC4"}, {"bufferView": 63, "componentType": 5126, "count": 2, "type": "SCALAR", "min": [0], "max": [1.0666666666666667]}, {"bufferView": 64, "componentType": 5126, "count": 2, "type": "VEC3"}, {"bufferView": 65, "componentType": 5126, "count": 33, "type": "SCALAR", "min": [0], "max": [1.0666666666666667]}, {"bufferView": 66, "componentType": 5126, "count": 33, "type": "VEC4"}, {"bufferView": 67, "componentType": 5126, "count": 2, "type": "SCALAR", "min": [0], "max": [1.0666666666666667]}, {"bufferView": 68, "componentType": 5126, "count": 2, "type": "VEC3"}, {"bufferView": 69, "componentType": 5126, "count": 2, "type": "SCALAR", "min": [0], "max": [1.0666666666666667]}, {"bufferView": 70, "componentType": 5126, "count": 2, "type": "VEC4"}, {"bufferView": 71, "componentType": 5126, "count": 2, "type": "SCALAR", "min": [0], "max": [1.0666666666666667]}, {"bufferView": 72, "componentType": 5126, "count": 2, "type": "VEC3"}, {"bufferView": 73, "componentType": 5126, "count": 33, "type": "SCALAR", "min": [0], "max": [1.0666666666666667]}, {"bufferView": 74, "componentType": 5126, "count": 33, "type": "VEC4"}, {"bufferView": 75, "componentType": 5126, "count": 2, "type": "SCALAR", "min": [0], "max": [1.0666666666666667]}, {"bufferView": 76, "componentType": 5126, "count": 2, "type": "VEC3"}, {"bufferView": 77, "componentType": 5126, "count": 33, "type": "SCALAR", "min": [0], "max": [1.0666666666666667]}, {"bufferView": 78, "componentType": 5126, "count": 33, "type": "VEC4"}, {"bufferView": 79, "componentType": 5126, "count": 2, "type": "SCALAR", "min": [0], "max": [1.0666666666666667]}, {"bufferView": 80, "componentType": 5126, "count": 2, "type": "VEC3"}, {"bufferView": 81, "componentType": 5126, "count": 33, "type": "SCALAR", "min": [0], "max": [1.0666666666666667]}, {"bufferView": 82, "componentType": 5126, "count": 33, "type": "VEC4"}, {"bufferView": 83, "componentType": 5126, "count": 2, "type": "SCALAR", "min": [0], "max": [1.0666666666666667]}, {"bufferView": 84, "componentType": 5126, "count": 2, "type": "VEC3"}, {"bufferView": 85, "componentType": 5126, "count": 2, "type": "SCALAR", "min": [0], "max": [1.0666666666666667]}, {"bufferView": 86, "componentType": 5126, "count": 2, "type": "VEC4"}, {"bufferView": 87, "componentType": 5126, "count": 2, "type": "SCALAR", "min": [0], "max": [1.0666666666666667]}, {"bufferView": 88, "componentType": 5126, "count": 2, "type": "VEC3"}, {"bufferView": 89, "componentType": 5126, "count": 33, "type": "SCALAR", "min": [0], "max": [1.0666666666666667]}, {"bufferView": 90, "componentType": 5126, "count": 33, "type": "VEC4"}, {"bufferView": 91, "componentType": 5126, "count": 2, "type": "SCALAR", "min": [0], "max": [1.0666666666666667]}, {"bufferView": 92, "componentType": 5126, "count": 2, "type": "VEC3"}, {"bufferView": 93, "componentType": 5126, "count": 33, "type": "SCALAR", "min": [0], "max": [1.0666666666666667]}, {"bufferView": 94, "componentType": 5126, "count": 33, "type": "VEC4"}, {"bufferView": 95, "componentType": 5126, "count": 2, "type": "SCALAR", "min": [0], "max": [1.0666666666666667]}, {"bufferView": 96, "componentType": 5126, "count": 2, "type": "VEC3"}, {"bufferView": 97, "componentType": 5126, "count": 33, "type": "SCALAR", "min": [0], "max": [1.0666666666666667]}, {"bufferView": 98, "componentType": 5126, "count": 33, "type": "VEC4"}, {"bufferView": 99, "componentType": 5126, "count": 2, "type": "SCALAR", "min": [0], "max": [1.0666666666666667]}, {"bufferView": 100, "componentType": 5126, "count": 2, "type": "VEC3"}, {"bufferView": 101, "componentType": 5126, "count": 33, "type": "SCALAR", "min": [0], "max": [1.0666666666666667]}, {"bufferView": 102, "componentType": 5126, "count": 33, "type": "VEC4"}, {"bufferView": 103, "componentType": 5126, "count": 2, "type": "SCALAR", "min": [0], "max": [1.0666666666666667]}, {"bufferView": 104, "componentType": 5126, "count": 2, "type": "VEC3"}, {"bufferView": 105, "componentType": 5126, "count": 2, "type": "SCALAR", "min": [0], "max": [1.0666666666666667]}, {"bufferView": 106, "componentType": 5126, "count": 2, "type": "VEC4"}, {"bufferView": 107, "componentType": 5126, "count": 2, "type": "SCALAR", "min": [0], "max": [1.0666666666666667]}, {"bufferView": 108, "componentType": 5126, "count": 2, "type": "VEC3"}, {"bufferView": 109, "componentType": 5126, "count": 33, "type": "SCALAR", "min": [0], "max": [1.0666666666666667]}, {"bufferView": 110, "componentType": 5126, "count": 33, "type": "VEC4"}, {"bufferView": 111, "componentType": 5126, "count": 2, "type": "SCALAR", "min": [0], "max": [1.0666666666666667]}, {"bufferView": 112, "componentType": 5126, "count": 2, "type": "VEC3"}, {"bufferView": 113, "componentType": 5126, "count": 33, "type": "SCALAR", "min": [0], "max": [1.0666666666666667]}, {"bufferView": 114, "componentType": 5126, "count": 33, "type": "VEC4"}, {"bufferView": 115, "componentType": 5126, "count": 2, "type": "SCALAR", "min": [0], "max": [1.0666666666666667]}, {"bufferView": 116, "componentType": 5126, "count": 2, "type": "VEC3"}, {"bufferView": 117, "componentType": 5126, "count": 33, "type": "SCALAR", "min": [0], "max": [1.0666666666666667]}, {"bufferView": 118, "componentType": 5126, "count": 33, "type": "VEC4"}, {"bufferView": 119, "componentType": 5126, "count": 2, "type": "SCALAR", "min": [0], "max": [1.0666666666666667]}, {"bufferView": 120, "componentType": 5126, "count": 2, "type": "VEC3"}, {"bufferView": 121, "componentType": 5126, "count": 33, "type": "SCALAR", "min": [0], "max": [1.0666666666666667]}, {"bufferView": 122, "componentType": 5126, "count": 33, "type": "VEC4"}, {"bufferView": 123, "componentType": 5126, "count": 2, "type": "SCALAR", "min": [0], "max": [1.0666666666666667]}, {"bufferView": 124, "componentType": 5126, "count": 2, "type": "VEC3"}, {"bufferView": 125, "componentType": 5126, "count": 33, "type": "SCALAR", "min": [0], "max": [1.0666666666666667]}, {"bufferView": 126, "componentType": 5126, "count": 33, "type": "VEC4"}, {"bufferView": 127, "componentType": 5126, "count": 2, "type": "SCALAR", "min": [0], "max": [1.0666666666666667]}, {"bufferView": 128, "componentType": 5126, "count": 2, "type": "VEC3"}, {"bufferView": 129, "componentType": 5126, "count": 33, "type": "SCALAR", "min": [0], "max": [1.0666666666666667]}, {"bufferView": 130, "componentType": 5126, "count": 33, "type": "VEC4"}, {"bufferView": 131, "componentType": 5126, "count": 2, "type": "SCALAR", "min": [0], "max": [1.0666666666666667]}, {"bufferView": 132, "componentType": 5126, "count": 2, "type": "VEC3"}, {"bufferView": 133, "componentType": 5126, "count": 33, "type": "SCALAR", "min": [0], "max": [1.0666666666666667]}, {"bufferView": 134, "componentType": 5126, "count": 33, "type": "VEC4"}, {"bufferView": 135, "componentType": 5126, "count": 2, "type": "SCALAR", "min": [0], "max": [1.0666666666666667]}, {"bufferView": 136, "componentType": 5126, "count": 2, "type": "VEC3"}, {"bufferView": 137, "componentType": 5126, "count": 33, "type": "SCALAR", "min": [0], "max": [1.0666666666666667]}, {"bufferView": 138, "componentType": 5126, "count": 33, "type": "VEC4"}, {"bufferView": 139, "componentType": 5126, "count": 2, "type": "SCALAR", "min": [0], "max": [1.0666666666666667]}, {"bufferView": 140, "componentType": 5126, "count": 2, "type": "VEC3"}, {"bufferView": 141, "componentType": 5126, "count": 33, "type": "SCALAR", "min": [0], "max": [1.0666666666666667]}, {"bufferView": 142, "componentType": 5126, "count": 33, "type": "VEC4"}, {"bufferView": 143, "componentType": 5126, "count": 2, "type": "SCALAR", "min": [0], "max": [1.0666666666666667]}, {"bufferView": 144, "componentType": 5126, "count": 2, "type": "VEC3"}, {"bufferView": 145, "componentType": 5126, "count": 2, "type": "SCALAR", "min": [0], "max": [1.0666666666666667]}, {"bufferView": 146, "componentType": 5126, "count": 2, "type": "VEC4"}, {"bufferView": 147, "componentType": 5126, "count": 2, "type": "SCALAR", "min": [0], "max": [1.0666666666666667]}, {"bufferView": 148, "componentType": 5126, "count": 2, "type": "VEC3"}, {"bufferView": 149, "componentType": 5126, "count": 33, "type": "SCALAR", "min": [0], "max": [1.0666666666666667]}, {"bufferView": 150, "componentType": 5126, "count": 33, "type": "VEC4"}, {"bufferView": 151, "componentType": 5126, "count": 2, "type": "SCALAR", "min": [0], "max": [1.0666666666666667]}, {"bufferView": 152, "componentType": 5126, "count": 2, "type": "VEC3"}, {"bufferView": 153, "componentType": 5126, "count": 33, "type": "SCALAR", "min": [0], "max": [1.0666666666666667]}, {"bufferView": 154, "componentType": 5126, "count": 33, "type": "VEC4"}, {"bufferView": 155, "componentType": 5126, "count": 2, "type": "SCALAR", "min": [0], "max": [1.0666666666666667]}, {"bufferView": 156, "componentType": 5126, "count": 2, "type": "VEC3"}, {"bufferView": 157, "componentType": 5126, "count": 33, "type": "SCALAR", "min": [0], "max": [1.0666666666666667]}, {"bufferView": 158, "componentType": 5126, "count": 33, "type": "VEC4"}, {"bufferView": 159, "componentType": 5126, "count": 2, "type": "SCALAR", "min": [0], "max": [1.0666666666666667]}, {"bufferView": 160, "componentType": 5126, "count": 2, "type": "VEC3"}, {"bufferView": 161, "componentType": 5126, "count": 33, "type": "SCALAR", "min": [0], "max": [1.0666666666666667]}, {"bufferView": 162, "componentType": 5126, "count": 33, "type": "VEC4"}, {"bufferView": 163, "componentType": 5126, "count": 2, "type": "SCALAR", "min": [0], "max": [1.0666666666666667]}, {"bufferView": 164, "componentType": 5126, "count": 2, "type": "VEC3"}, {"bufferView": 165, "componentType": 5126, "count": 33, "type": "SCALAR", "min": [0], "max": [1.0666666666666667]}, {"bufferView": 166, "componentType": 5126, "count": 33, "type": "VEC4"}, {"bufferView": 167, "componentType": 5126, "count": 33, "type": "SCALAR", "min": [0], "max": [1.0666666666666667]}, {"bufferView": 168, "componentType": 5126, "count": 33, "type": "VEC3"}, {"bufferView": 169, "componentType": 5126, "count": 33, "type": "SCALAR", "min": [0], "max": [1.0666666666666667]}, {"bufferView": 170, "componentType": 5126, "count": 33, "type": "VEC4"}, {"bufferView": 171, "componentType": 5126, "count": 2, "type": "SCALAR", "min": [0], "max": [1.0666666666666667]}, {"bufferView": 172, "componentType": 5126, "count": 2, "type": "VEC3"}, {"bufferView": 173, "componentType": 5126, "count": 2, "type": "SCALAR", "min": [0], "max": [1.0666666666666667]}, {"bufferView": 174, "componentType": 5126, "count": 2, "type": "VEC4"}, {"bufferView": 175, "componentType": 5126, "count": 2, "type": "SCALAR", "min": [0], "max": [1.0666666666666667]}, {"bufferView": 176, "componentType": 5126, "count": 2, "type": "VEC3"}, {"bufferView": 177, "componentType": 5126, "count": 2, "type": "SCALAR", "min": [0], "max": [1.0666666666666667]}, {"bufferView": 178, "componentType": 5126, "count": 2, "type": "VEC4"}, {"bufferView": 179, "componentType": 5126, "count": 2, "type": "SCALAR", "min": [0], "max": [1.0666666666666667]}, {"bufferView": 180, "componentType": 5126, "count": 2, "type": "VEC3"}, {"bufferView": 181, "componentType": 5126, "count": 33, "type": "SCALAR", "min": [0], "max": [1.0666666666666667]}, {"bufferView": 182, "componentType": 5126, "count": 33, "type": "VEC4"}, {"bufferView": 183, "componentType": 5126, "count": 2, "type": "SCALAR", "min": [0], "max": [1.0666666666666667]}, {"bufferView": 184, "componentType": 5126, "count": 2, "type": "VEC3"}, {"bufferView": 185, "componentType": 5126, "count": 33, "type": "SCALAR", "min": [0], "max": [1.0666666666666667]}, {"bufferView": 186, "componentType": 5126, "count": 33, "type": "VEC4"}, {"bufferView": 187, "componentType": 5126, "count": 2, "type": "SCALAR", "min": [0], "max": [1.0666666666666667]}, {"bufferView": 188, "componentType": 5126, "count": 2, "type": "VEC3"}, {"bufferView": 189, "componentType": 5126, "count": 33, "type": "SCALAR", "min": [0], "max": [1.0666666666666667]}, {"bufferView": 190, "componentType": 5126, "count": 33, "type": "VEC4"}, {"bufferView": 191, "componentType": 5126, "count": 2, "type": "SCALAR", "min": [0], "max": [1.0666666666666667]}, {"bufferView": 192, "componentType": 5126, "count": 2, "type": "VEC3"}, {"bufferView": 193, "componentType": 5126, "count": 33, "type": "SCALAR", "min": [0], "max": [1.0666666666666667]}, {"bufferView": 194, "componentType": 5126, "count": 33, "type": "VEC4"}, {"bufferView": 195, "componentType": 5126, "count": 2, "type": "SCALAR", "min": [0], "max": [1.0666666666666667]}, {"bufferView": 196, "componentType": 5126, "count": 2, "type": "VEC3"}, {"bufferView": 197, "componentType": 5126, "count": 33, "type": "SCALAR", "min": [0], "max": [1.0666666666666667]}, {"bufferView": 198, "componentType": 5126, "count": 33, "type": "VEC4"}, {"bufferView": 199, "componentType": 5126, "count": 2, "type": "SCALAR", "min": [0], "max": [1.0666666666666667]}, {"bufferView": 200, "componentType": 5126, "count": 2, "type": "VEC3"}, {"bufferView": 201, "componentType": 5126, "count": 33, "type": "SCALAR", "min": [0], "max": [1.0666666666666667]}, {"bufferView": 202, "componentType": 5126, "count": 33, "type": "VEC4"}, {"bufferView": 203, "componentType": 5126, "count": 2, "type": "SCALAR", "min": [0], "max": [1.0666666666666667]}, {"bufferView": 204, "componentType": 5126, "count": 2, "type": "VEC3"}, {"bufferView": 205, "componentType": 5126, "count": 33, "type": "SCALAR", "min": [0], "max": [1.0666666666666667]}, {"bufferView": 206, "componentType": 5126, "count": 33, "type": "VEC4"}, {"bufferView": 207, "componentType": 5126, "count": 33, "type": "SCALAR", "min": [0], "max": [1.0666666666666667]}, {"bufferView": 208, "componentType": 5126, "count": 33, "type": "VEC3"}, {"bufferView": 209, "componentType": 5126, "count": 2, "type": "SCALAR", "min": [0], "max": [1.0666666666666667]}, {"bufferView": 210, "componentType": 5126, "count": 2, "type": "VEC4"}, {"bufferView": 211, "componentType": 5126, "count": 2, "type": "SCALAR", "min": [0], "max": [1.0666666666666667]}, {"bufferView": 212, "componentType": 5126, "count": 2, "type": "VEC3"}, {"bufferView": 213, "componentType": 5126, "count": 2, "type": "SCALAR", "min": [0], "max": [1.0666666666666667]}, {"bufferView": 214, "componentType": 5126, "count": 2, "type": "VEC4"}, {"bufferView": 215, "componentType": 5126, "count": 33, "type": "SCALAR", "min": [0], "max": [1.0666666666666667]}, {"bufferView": 216, "componentType": 5126, "count": 33, "type": "VEC3"}, {"bufferView": 217, "componentType": 5126, "count": 33, "type": "SCALAR", "min": [0], "max": [1.0666666666666667]}, {"bufferView": 218, "componentType": 5126, "count": 33, "type": "VEC4"}, {"bufferView": 219, "componentType": 5126, "count": 2, "type": "SCALAR", "min": [0], "max": [1.0666666666666667]}, {"bufferView": 220, "componentType": 5126, "count": 2, "type": "VEC3"}, {"bufferView": 221, "componentType": 5126, "count": 2, "type": "SCALAR", "min": [0], "max": [1.0666666666666667]}, {"bufferView": 222, "componentType": 5126, "count": 2, "type": "VEC4"}, {"bufferView": 223, "componentType": 5126, "count": 2, "type": "SCALAR", "min": [0], "max": [1.0666666666666667]}, {"bufferView": 224, "componentType": 5126, "count": 2, "type": "VEC3"}, {"bufferView": 225, "componentType": 5126, "count": 2, "type": "SCALAR", "min": [0], "max": [1.0666666666666667]}, {"bufferView": 226, "componentType": 5126, "count": 2, "type": "VEC4"}, {"bufferView": 227, "componentType": 5126, "count": 2, "type": "SCALAR", "min": [0], "max": [0.8]}, {"bufferView": 228, "componentType": 5126, "count": 2, "type": "VEC3"}, {"bufferView": 229, "componentType": 5126, "count": 25, "type": "SCALAR", "min": [0], "max": [0.8]}, {"bufferView": 230, "componentType": 5126, "count": 25, "type": "VEC4"}, {"bufferView": 231, "componentType": 5126, "count": 2, "type": "SCALAR", "min": [0], "max": [0.8]}, {"bufferView": 232, "componentType": 5126, "count": 2, "type": "VEC3"}, {"bufferView": 233, "componentType": 5126, "count": 25, "type": "SCALAR", "min": [0], "max": [0.8]}, {"bufferView": 234, "componentType": 5126, "count": 25, "type": "VEC4"}, {"bufferView": 235, "componentType": 5126, "count": 2, "type": "SCALAR", "min": [0], "max": [0.8]}, {"bufferView": 236, "componentType": 5126, "count": 2, "type": "VEC3"}, {"bufferView": 237, "componentType": 5126, "count": 2, "type": "SCALAR", "min": [0], "max": [0.8]}, {"bufferView": 238, "componentType": 5126, "count": 2, "type": "VEC4"}, {"bufferView": 239, "componentType": 5126, "count": 2, "type": "SCALAR", "min": [0], "max": [0.8]}, {"bufferView": 240, "componentType": 5126, "count": 2, "type": "VEC3"}, {"bufferView": 241, "componentType": 5126, "count": 25, "type": "SCALAR", "min": [0], "max": [0.8]}, {"bufferView": 242, "componentType": 5126, "count": 25, "type": "VEC4"}, {"bufferView": 243, "componentType": 5126, "count": 2, "type": "SCALAR", "min": [0], "max": [0.8]}, {"bufferView": 244, "componentType": 5126, "count": 2, "type": "VEC3"}, {"bufferView": 245, "componentType": 5126, "count": 25, "type": "SCALAR", "min": [0], "max": [0.8]}, {"bufferView": 246, "componentType": 5126, "count": 25, "type": "VEC4"}, {"bufferView": 247, "componentType": 5126, "count": 2, "type": "SCALAR", "min": [0], "max": [0.8]}, {"bufferView": 248, "componentType": 5126, "count": 2, "type": "VEC3"}, {"bufferView": 249, "componentType": 5126, "count": 25, "type": "SCALAR", "min": [0], "max": [0.8]}, {"bufferView": 250, "componentType": 5126, "count": 25, "type": "VEC4"}, {"bufferView": 251, "componentType": 5126, "count": 2, "type": "SCALAR", "min": [0], "max": [0.8]}, {"bufferView": 252, "componentType": 5126, "count": 2, "type": "VEC3"}, {"bufferView": 253, "componentType": 5126, "count": 25, "type": "SCALAR", "min": [0], "max": [0.8]}, {"bufferView": 254, "componentType": 5126, "count": 25, "type": "VEC4"}, {"bufferView": 255, "componentType": 5126, "count": 25, "type": "SCALAR", "min": [0], "max": [0.8]}, {"bufferView": 256, "componentType": 5126, "count": 25, "type": "VEC3"}, {"bufferView": 257, "componentType": 5126, "count": 25, "type": "SCALAR", "min": [0], "max": [0.8]}, {"bufferView": 258, "componentType": 5126, "count": 25, "type": "VEC4"}, {"bufferView": 259, "componentType": 5126, "count": 25, "type": "SCALAR", "min": [0], "max": [0.8]}, {"bufferView": 260, "componentType": 5126, "count": 25, "type": "VEC3"}, {"bufferView": 261, "componentType": 5126, "count": 25, "type": "SCALAR", "min": [0], "max": [0.8]}, {"bufferView": 262, "componentType": 5126, "count": 25, "type": "VEC4"}, {"bufferView": 263, "componentType": 5126, "count": 2, "type": "SCALAR", "min": [0], "max": [0.8]}, {"bufferView": 264, "componentType": 5126, "count": 2, "type": "VEC3"}, {"bufferView": 265, "componentType": 5126, "count": 2, "type": "SCALAR", "min": [0], "max": [0.8]}, {"bufferView": 266, "componentType": 5126, "count": 2, "type": "VEC4"}, {"bufferView": 267, "componentType": 5126, "count": 2, "type": "SCALAR", "min": [0], "max": [0.8]}, {"bufferView": 268, "componentType": 5126, "count": 2, "type": "VEC3"}, {"bufferView": 269, "componentType": 5126, "count": 25, "type": "SCALAR", "min": [0], "max": [0.8]}, {"bufferView": 270, "componentType": 5126, "count": 25, "type": "VEC4"}, {"bufferView": 271, "componentType": 5126, "count": 25, "type": "SCALAR", "min": [0], "max": [0.8]}, {"bufferView": 272, "componentType": 5126, "count": 25, "type": "VEC3"}, {"bufferView": 273, "componentType": 5126, "count": 25, "type": "SCALAR", "min": [0], "max": [0.8]}, {"bufferView": 274, "componentType": 5126, "count": 25, "type": "VEC4"}, {"bufferView": 275, "componentType": 5126, "count": 2, "type": "SCALAR", "min": [0], "max": [0.8]}, {"bufferView": 276, "componentType": 5126, "count": 2, "type": "VEC3"}, {"bufferView": 277, "componentType": 5126, "count": 25, "type": "SCALAR", "min": [0], "max": [0.8]}, {"bufferView": 278, "componentType": 5126, "count": 25, "type": "VEC4"}, {"bufferView": 279, "componentType": 5126, "count": 2, "type": "SCALAR", "min": [0], "max": [0.8]}, {"bufferView": 280, "componentType": 5126, "count": 2, "type": "VEC3"}, {"bufferView": 281, "componentType": 5126, "count": 25, "type": "SCALAR", "min": [0], "max": [0.8]}, {"bufferView": 282, "componentType": 5126, "count": 25, "type": "VEC4"}, {"bufferView": 283, "componentType": 5126, "count": 2, "type": "SCALAR", "min": [0], "max": [0.8]}, {"bufferView": 284, "componentType": 5126, "count": 2, "type": "VEC3"}, {"bufferView": 285, "componentType": 5126, "count": 25, "type": "SCALAR", "min": [0], "max": [0.8]}, {"bufferView": 286, "componentType": 5126, "count": 25, "type": "VEC4"}, {"bufferView": 287, "componentType": 5126, "count": 2, "type": "SCALAR", "min": [0], "max": [0.8]}, {"bufferView": 288, "componentType": 5126, "count": 2, "type": "VEC3"}, {"bufferView": 289, "componentType": 5126, "count": 25, "type": "SCALAR", "min": [0], "max": [0.8]}, {"bufferView": 290, "componentType": 5126, "count": 25, "type": "VEC4"}, {"bufferView": 291, "componentType": 5126, "count": 2, "type": "SCALAR", "min": [0], "max": [0.8]}, {"bufferView": 292, "componentType": 5126, "count": 2, "type": "VEC3"}, {"bufferView": 293, "componentType": 5126, "count": 25, "type": "SCALAR", "min": [0], "max": [0.8]}, {"bufferView": 294, "componentType": 5126, "count": 25, "type": "VEC4"}, {"bufferView": 295, "componentType": 5126, "count": 2, "type": "SCALAR", "min": [0], "max": [0.8]}, {"bufferView": 296, "componentType": 5126, "count": 2, "type": "VEC3"}, {"bufferView": 297, "componentType": 5126, "count": 25, "type": "SCALAR", "min": [0], "max": [0.8]}, {"bufferView": 298, "componentType": 5126, "count": 25, "type": "VEC4"}, {"bufferView": 299, "componentType": 5126, "count": 25, "type": "SCALAR", "min": [0], "max": [0.8]}, {"bufferView": 300, "componentType": 5126, "count": 25, "type": "VEC3"}, {"bufferView": 301, "componentType": 5126, "count": 25, "type": "SCALAR", "min": [0], "max": [0.8]}, {"bufferView": 302, "componentType": 5126, "count": 25, "type": "VEC4"}, {"bufferView": 303, "componentType": 5126, "count": 2, "type": "SCALAR", "min": [0], "max": [0.8]}, {"bufferView": 304, "componentType": 5126, "count": 2, "type": "VEC3"}, {"bufferView": 305, "componentType": 5126, "count": 2, "type": "SCALAR", "min": [0], "max": [0.8]}, {"bufferView": 306, "componentType": 5126, "count": 2, "type": "VEC4"}, {"bufferView": 307, "componentType": 5126, "count": 25, "type": "SCALAR", "min": [0], "max": [0.8]}, {"bufferView": 308, "componentType": 5126, "count": 25, "type": "VEC3"}, {"bufferView": 309, "componentType": 5126, "count": 25, "type": "SCALAR", "min": [0], "max": [0.8]}, {"bufferView": 310, "componentType": 5126, "count": 25, "type": "VEC4"}, {"bufferView": 311, "componentType": 5126, "count": 2, "type": "SCALAR", "min": [0], "max": [0.8]}, {"bufferView": 312, "componentType": 5126, "count": 2, "type": "VEC3"}, {"bufferView": 313, "componentType": 5126, "count": 2, "type": "SCALAR", "min": [0], "max": [0.8]}, {"bufferView": 314, "componentType": 5126, "count": 2, "type": "VEC4"}, {"bufferView": 315, "componentType": 5126, "count": 2, "type": "SCALAR", "min": [0], "max": [0.8]}, {"bufferView": 316, "componentType": 5126, "count": 2, "type": "VEC3"}, {"bufferView": 317, "componentType": 5126, "count": 2, "type": "SCALAR", "min": [0], "max": [0.8]}, {"bufferView": 318, "componentType": 5126, "count": 2, "type": "VEC4"}], "bufferViews": [{"buffer": 0, "byteLength": 7836, "byteOffset": 0}, {"buffer": 0, "byteLength": 7836, "byteOffset": 7836}, {"buffer": 0, "byteLength": 5224, "byteOffset": 15672}, {"buffer": 0, "byteLength": 2612, "byteOffset": 20896}, {"buffer": 0, "byteLength": 10448, "byteOffset": 23508}, {"buffer": 0, "byteLength": 4728, "byteOffset": 33956}, {"buffer": 0, "byteLength": 1472, "byteOffset": 38684}, {"buffer": 0, "byteLength": 7836, "byteOffset": 40156}, {"buffer": 0, "byteLength": 7836, "byteOffset": 47992}, {"buffer": 0, "byteLength": 5224, "byteOffset": 55828}, {"buffer": 0, "byteLength": 2612, "byteOffset": 61052}, {"buffer": 0, "byteLength": 10448, "byteOffset": 63664}, {"buffer": 0, "byteLength": 4728, "byteOffset": 74112}, {"buffer": 0, "byteLength": 16428, "byteOffset": 78840}, {"buffer": 0, "byteLength": 16428, "byteOffset": 95268}, {"buffer": 0, "byteLength": 10952, "byteOffset": 111696}, {"buffer": 0, "byteLength": 5476, "byteOffset": 122648}, {"buffer": 0, "byteLength": 21904, "byteOffset": 128124}, {"buffer": 0, "byteLength": 8616, "byteOffset": 150028}, {"buffer": 0, "byteLength": 672, "byteOffset": 158644}, {"buffer": 0, "byteLength": 672, "byteOffset": 159316}, {"buffer": 0, "byteLength": 448, "byteOffset": 159988}, {"buffer": 0, "byteLength": 224, "byteOffset": 160436}, {"buffer": 0, "byteLength": 896, "byteOffset": 160660}, {"buffer": 0, "byteLength": 504, "byteOffset": 161556}, {"buffer": 0, "byteLength": 25572, "byteOffset": 162060}, {"buffer": 0, "byteLength": 25572, "byteOffset": 187632}, {"buffer": 0, "byteLength": 17048, "byteOffset": 213204}, {"buffer": 0, "byteLength": 8524, "byteOffset": 230252}, {"buffer": 0, "byteLength": 34096, "byteOffset": 238776}, {"buffer": 0, "byteLength": 15636, "byteOffset": 272872}, {"buffer": 0, "byteLength": 9360, "byteOffset": 288508}, {"buffer": 0, "byteLength": 9360, "byteOffset": 297868}, {"buffer": 0, "byteLength": 6240, "byteOffset": 307228}, {"buffer": 0, "byteLength": 3120, "byteOffset": 313468}, {"buffer": 0, "byteLength": 12480, "byteOffset": 316588}, {"buffer": 0, "byteLength": 5580, "byteOffset": 329068}, {"buffer": 0, "byteLength": 9360, "byteOffset": 334648}, {"buffer": 0, "byteLength": 9360, "byteOffset": 344008}, {"buffer": 0, "byteLength": 6240, "byteOffset": 353368}, {"buffer": 0, "byteLength": 3120, "byteOffset": 359608}, {"buffer": 0, "byteLength": 12480, "byteOffset": 362728}, {"buffer": 0, "byteLength": 5580, "byteOffset": 375208}, {"buffer": 0, "byteOffset": 380788, "byteLength": 132}, {"buffer": 0, "byteOffset": 380920, "byteLength": 396}, {"buffer": 0, "byteOffset": 381316, "byteLength": 132}, {"buffer": 0, "byteOffset": 381448, "byteLength": 528}, {"buffer": 0, "byteOffset": 381976, "byteLength": 8}, {"buffer": 0, "byteOffset": 381984, "byteLength": 24}, {"buffer": 0, "byteOffset": 382008, "byteLength": 132}, {"buffer": 0, "byteOffset": 382140, "byteLength": 528}, {"buffer": 0, "byteOffset": 382668, "byteLength": 8}, {"buffer": 0, "byteOffset": 382676, "byteLength": 24}, {"buffer": 0, "byteOffset": 382700, "byteLength": 132}, {"buffer": 0, "byteOffset": 382832, "byteLength": 528}, {"buffer": 0, "byteOffset": 383360, "byteLength": 8}, {"buffer": 0, "byteOffset": 383368, "byteLength": 24}, {"buffer": 0, "byteOffset": 383392, "byteLength": 132}, {"buffer": 0, "byteOffset": 383524, "byteLength": 528}, {"buffer": 0, "byteOffset": 384052, "byteLength": 8}, {"buffer": 0, "byteOffset": 384060, "byteLength": 24}, {"buffer": 0, "byteOffset": 384084, "byteLength": 132}, {"buffer": 0, "byteOffset": 384216, "byteLength": 528}, {"buffer": 0, "byteOffset": 384744, "byteLength": 8}, {"buffer": 0, "byteOffset": 384752, "byteLength": 24}, {"buffer": 0, "byteOffset": 384776, "byteLength": 132}, {"buffer": 0, "byteOffset": 384908, "byteLength": 528}, {"buffer": 0, "byteOffset": 385436, "byteLength": 8}, {"buffer": 0, "byteOffset": 385444, "byteLength": 24}, {"buffer": 0, "byteOffset": 385468, "byteLength": 8}, {"buffer": 0, "byteOffset": 385476, "byteLength": 32}, {"buffer": 0, "byteOffset": 385508, "byteLength": 8}, {"buffer": 0, "byteOffset": 385516, "byteLength": 24}, {"buffer": 0, "byteOffset": 385540, "byteLength": 132}, {"buffer": 0, "byteOffset": 385672, "byteLength": 528}, {"buffer": 0, "byteOffset": 386200, "byteLength": 8}, {"buffer": 0, "byteOffset": 386208, "byteLength": 24}, {"buffer": 0, "byteOffset": 386232, "byteLength": 132}, {"buffer": 0, "byteOffset": 386364, "byteLength": 528}, {"buffer": 0, "byteOffset": 386892, "byteLength": 8}, {"buffer": 0, "byteOffset": 386900, "byteLength": 24}, {"buffer": 0, "byteOffset": 386924, "byteLength": 132}, {"buffer": 0, "byteOffset": 387056, "byteLength": 528}, {"buffer": 0, "byteOffset": 387584, "byteLength": 8}, {"buffer": 0, "byteOffset": 387592, "byteLength": 24}, {"buffer": 0, "byteOffset": 387616, "byteLength": 8}, {"buffer": 0, "byteOffset": 387624, "byteLength": 32}, {"buffer": 0, "byteOffset": 387656, "byteLength": 8}, {"buffer": 0, "byteOffset": 387664, "byteLength": 24}, {"buffer": 0, "byteOffset": 387688, "byteLength": 132}, {"buffer": 0, "byteOffset": 387820, "byteLength": 528}, {"buffer": 0, "byteOffset": 388348, "byteLength": 8}, {"buffer": 0, "byteOffset": 388356, "byteLength": 24}, {"buffer": 0, "byteOffset": 388380, "byteLength": 132}, {"buffer": 0, "byteOffset": 388512, "byteLength": 528}, {"buffer": 0, "byteOffset": 389040, "byteLength": 8}, {"buffer": 0, "byteOffset": 389048, "byteLength": 24}, {"buffer": 0, "byteOffset": 389072, "byteLength": 132}, {"buffer": 0, "byteOffset": 389204, "byteLength": 528}, {"buffer": 0, "byteOffset": 389732, "byteLength": 8}, {"buffer": 0, "byteOffset": 389740, "byteLength": 24}, {"buffer": 0, "byteOffset": 389764, "byteLength": 132}, {"buffer": 0, "byteOffset": 389896, "byteLength": 528}, {"buffer": 0, "byteOffset": 390424, "byteLength": 8}, {"buffer": 0, "byteOffset": 390432, "byteLength": 24}, {"buffer": 0, "byteOffset": 390456, "byteLength": 8}, {"buffer": 0, "byteOffset": 390464, "byteLength": 32}, {"buffer": 0, "byteOffset": 390496, "byteLength": 8}, {"buffer": 0, "byteOffset": 390504, "byteLength": 24}, {"buffer": 0, "byteOffset": 390528, "byteLength": 132}, {"buffer": 0, "byteOffset": 390660, "byteLength": 528}, {"buffer": 0, "byteOffset": 391188, "byteLength": 8}, {"buffer": 0, "byteOffset": 391196, "byteLength": 24}, {"buffer": 0, "byteOffset": 391220, "byteLength": 132}, {"buffer": 0, "byteOffset": 391352, "byteLength": 528}, {"buffer": 0, "byteOffset": 391880, "byteLength": 8}, {"buffer": 0, "byteOffset": 391888, "byteLength": 24}, {"buffer": 0, "byteOffset": 391912, "byteLength": 132}, {"buffer": 0, "byteOffset": 392044, "byteLength": 528}, {"buffer": 0, "byteOffset": 392572, "byteLength": 8}, {"buffer": 0, "byteOffset": 392580, "byteLength": 24}, {"buffer": 0, "byteOffset": 392604, "byteLength": 132}, {"buffer": 0, "byteOffset": 392736, "byteLength": 528}, {"buffer": 0, "byteOffset": 393264, "byteLength": 8}, {"buffer": 0, "byteOffset": 393272, "byteLength": 24}, {"buffer": 0, "byteOffset": 393296, "byteLength": 132}, {"buffer": 0, "byteOffset": 393428, "byteLength": 528}, {"buffer": 0, "byteOffset": 393956, "byteLength": 8}, {"buffer": 0, "byteOffset": 393964, "byteLength": 24}, {"buffer": 0, "byteOffset": 393988, "byteLength": 132}, {"buffer": 0, "byteOffset": 394120, "byteLength": 528}, {"buffer": 0, "byteOffset": 394648, "byteLength": 8}, {"buffer": 0, "byteOffset": 394656, "byteLength": 24}, {"buffer": 0, "byteOffset": 394680, "byteLength": 132}, {"buffer": 0, "byteOffset": 394812, "byteLength": 528}, {"buffer": 0, "byteOffset": 395340, "byteLength": 8}, {"buffer": 0, "byteOffset": 395348, "byteLength": 24}, {"buffer": 0, "byteOffset": 395372, "byteLength": 132}, {"buffer": 0, "byteOffset": 395504, "byteLength": 528}, {"buffer": 0, "byteOffset": 396032, "byteLength": 8}, {"buffer": 0, "byteOffset": 396040, "byteLength": 24}, {"buffer": 0, "byteOffset": 396064, "byteLength": 132}, {"buffer": 0, "byteOffset": 396196, "byteLength": 528}, {"buffer": 0, "byteOffset": 396724, "byteLength": 8}, {"buffer": 0, "byteOffset": 396732, "byteLength": 24}, {"buffer": 0, "byteOffset": 396756, "byteLength": 8}, {"buffer": 0, "byteOffset": 396764, "byteLength": 32}, {"buffer": 0, "byteOffset": 396796, "byteLength": 8}, {"buffer": 0, "byteOffset": 396804, "byteLength": 24}, {"buffer": 0, "byteOffset": 396828, "byteLength": 132}, {"buffer": 0, "byteOffset": 396960, "byteLength": 528}, {"buffer": 0, "byteOffset": 397488, "byteLength": 8}, {"buffer": 0, "byteOffset": 397496, "byteLength": 24}, {"buffer": 0, "byteOffset": 397520, "byteLength": 132}, {"buffer": 0, "byteOffset": 397652, "byteLength": 528}, {"buffer": 0, "byteOffset": 398180, "byteLength": 8}, {"buffer": 0, "byteOffset": 398188, "byteLength": 24}, {"buffer": 0, "byteOffset": 398212, "byteLength": 132}, {"buffer": 0, "byteOffset": 398344, "byteLength": 528}, {"buffer": 0, "byteOffset": 398872, "byteLength": 8}, {"buffer": 0, "byteOffset": 398880, "byteLength": 24}, {"buffer": 0, "byteOffset": 398904, "byteLength": 132}, {"buffer": 0, "byteOffset": 399036, "byteLength": 528}, {"buffer": 0, "byteOffset": 399564, "byteLength": 8}, {"buffer": 0, "byteOffset": 399572, "byteLength": 24}, {"buffer": 0, "byteOffset": 399596, "byteLength": 132}, {"buffer": 0, "byteOffset": 399728, "byteLength": 528}, {"buffer": 0, "byteOffset": 400256, "byteLength": 132}, {"buffer": 0, "byteOffset": 400388, "byteLength": 396}, {"buffer": 0, "byteOffset": 400784, "byteLength": 132}, {"buffer": 0, "byteOffset": 400916, "byteLength": 528}, {"buffer": 0, "byteOffset": 401444, "byteLength": 8}, {"buffer": 0, "byteOffset": 401452, "byteLength": 24}, {"buffer": 0, "byteOffset": 401476, "byteLength": 8}, {"buffer": 0, "byteOffset": 401484, "byteLength": 32}, {"buffer": 0, "byteOffset": 401516, "byteLength": 8}, {"buffer": 0, "byteOffset": 401524, "byteLength": 24}, {"buffer": 0, "byteOffset": 401548, "byteLength": 8}, {"buffer": 0, "byteOffset": 401556, "byteLength": 32}, {"buffer": 0, "byteOffset": 401588, "byteLength": 8}, {"buffer": 0, "byteOffset": 401596, "byteLength": 24}, {"buffer": 0, "byteOffset": 401620, "byteLength": 132}, {"buffer": 0, "byteOffset": 401752, "byteLength": 528}, {"buffer": 0, "byteOffset": 402280, "byteLength": 8}, {"buffer": 0, "byteOffset": 402288, "byteLength": 24}, {"buffer": 0, "byteOffset": 402312, "byteLength": 132}, {"buffer": 0, "byteOffset": 402444, "byteLength": 528}, {"buffer": 0, "byteOffset": 402972, "byteLength": 8}, {"buffer": 0, "byteOffset": 402980, "byteLength": 24}, {"buffer": 0, "byteOffset": 403004, "byteLength": 132}, {"buffer": 0, "byteOffset": 403136, "byteLength": 528}, {"buffer": 0, "byteOffset": 403664, "byteLength": 8}, {"buffer": 0, "byteOffset": 403672, "byteLength": 24}, {"buffer": 0, "byteOffset": 403696, "byteLength": 132}, {"buffer": 0, "byteOffset": 403828, "byteLength": 528}, {"buffer": 0, "byteOffset": 404356, "byteLength": 8}, {"buffer": 0, "byteOffset": 404364, "byteLength": 24}, {"buffer": 0, "byteOffset": 404388, "byteLength": 132}, {"buffer": 0, "byteOffset": 404520, "byteLength": 528}, {"buffer": 0, "byteOffset": 405048, "byteLength": 8}, {"buffer": 0, "byteOffset": 405056, "byteLength": 24}, {"buffer": 0, "byteOffset": 405080, "byteLength": 132}, {"buffer": 0, "byteOffset": 405212, "byteLength": 528}, {"buffer": 0, "byteOffset": 405740, "byteLength": 8}, {"buffer": 0, "byteOffset": 405748, "byteLength": 24}, {"buffer": 0, "byteOffset": 405772, "byteLength": 132}, {"buffer": 0, "byteOffset": 405904, "byteLength": 528}, {"buffer": 0, "byteOffset": 406432, "byteLength": 132}, {"buffer": 0, "byteOffset": 406564, "byteLength": 396}, {"buffer": 0, "byteOffset": 406960, "byteLength": 8}, {"buffer": 0, "byteOffset": 406968, "byteLength": 32}, {"buffer": 0, "byteOffset": 407000, "byteLength": 8}, {"buffer": 0, "byteOffset": 407008, "byteLength": 24}, {"buffer": 0, "byteOffset": 407032, "byteLength": 8}, {"buffer": 0, "byteOffset": 407040, "byteLength": 32}, {"buffer": 0, "byteOffset": 407072, "byteLength": 132}, {"buffer": 0, "byteOffset": 407204, "byteLength": 396}, {"buffer": 0, "byteOffset": 407600, "byteLength": 132}, {"buffer": 0, "byteOffset": 407732, "byteLength": 528}, {"buffer": 0, "byteOffset": 408260, "byteLength": 8}, {"buffer": 0, "byteOffset": 408268, "byteLength": 24}, {"buffer": 0, "byteOffset": 408292, "byteLength": 8}, {"buffer": 0, "byteOffset": 408300, "byteLength": 32}, {"buffer": 0, "byteOffset": 408332, "byteLength": 8}, {"buffer": 0, "byteOffset": 408340, "byteLength": 24}, {"buffer": 0, "byteOffset": 408364, "byteLength": 8}, {"buffer": 0, "byteOffset": 408372, "byteLength": 32}, {"buffer": 0, "byteOffset": 408404, "byteLength": 8}, {"buffer": 0, "byteOffset": 408412, "byteLength": 24}, {"buffer": 0, "byteOffset": 408436, "byteLength": 100}, {"buffer": 0, "byteOffset": 408536, "byteLength": 400}, {"buffer": 0, "byteOffset": 408936, "byteLength": 8}, {"buffer": 0, "byteOffset": 408944, "byteLength": 24}, {"buffer": 0, "byteOffset": 408968, "byteLength": 100}, {"buffer": 0, "byteOffset": 409068, "byteLength": 400}, {"buffer": 0, "byteOffset": 409468, "byteLength": 8}, {"buffer": 0, "byteOffset": 409476, "byteLength": 24}, {"buffer": 0, "byteOffset": 409500, "byteLength": 8}, {"buffer": 0, "byteOffset": 409508, "byteLength": 32}, {"buffer": 0, "byteOffset": 409540, "byteLength": 8}, {"buffer": 0, "byteOffset": 409548, "byteLength": 24}, {"buffer": 0, "byteOffset": 409572, "byteLength": 100}, {"buffer": 0, "byteOffset": 409672, "byteLength": 400}, {"buffer": 0, "byteOffset": 410072, "byteLength": 8}, {"buffer": 0, "byteOffset": 410080, "byteLength": 24}, {"buffer": 0, "byteOffset": 410104, "byteLength": 100}, {"buffer": 0, "byteOffset": 410204, "byteLength": 400}, {"buffer": 0, "byteOffset": 410604, "byteLength": 8}, {"buffer": 0, "byteOffset": 410612, "byteLength": 24}, {"buffer": 0, "byteOffset": 410636, "byteLength": 100}, {"buffer": 0, "byteOffset": 410736, "byteLength": 400}, {"buffer": 0, "byteOffset": 411136, "byteLength": 8}, {"buffer": 0, "byteOffset": 411144, "byteLength": 24}, {"buffer": 0, "byteOffset": 411168, "byteLength": 100}, {"buffer": 0, "byteOffset": 411268, "byteLength": 400}, {"buffer": 0, "byteOffset": 411668, "byteLength": 100}, {"buffer": 0, "byteOffset": 411768, "byteLength": 300}, {"buffer": 0, "byteOffset": 412068, "byteLength": 100}, {"buffer": 0, "byteOffset": 412168, "byteLength": 400}, {"buffer": 0, "byteOffset": 412568, "byteLength": 100}, {"buffer": 0, "byteOffset": 412668, "byteLength": 300}, {"buffer": 0, "byteOffset": 412968, "byteLength": 100}, {"buffer": 0, "byteOffset": 413068, "byteLength": 400}, {"buffer": 0, "byteOffset": 413468, "byteLength": 8}, {"buffer": 0, "byteOffset": 413476, "byteLength": 24}, {"buffer": 0, "byteOffset": 413500, "byteLength": 8}, {"buffer": 0, "byteOffset": 413508, "byteLength": 32}, {"buffer": 0, "byteOffset": 413540, "byteLength": 8}, {"buffer": 0, "byteOffset": 413548, "byteLength": 24}, {"buffer": 0, "byteOffset": 413572, "byteLength": 100}, {"buffer": 0, "byteOffset": 413672, "byteLength": 400}, {"buffer": 0, "byteOffset": 414072, "byteLength": 100}, {"buffer": 0, "byteOffset": 414172, "byteLength": 300}, {"buffer": 0, "byteOffset": 414472, "byteLength": 100}, {"buffer": 0, "byteOffset": 414572, "byteLength": 400}, {"buffer": 0, "byteOffset": 414972, "byteLength": 8}, {"buffer": 0, "byteOffset": 414980, "byteLength": 24}, {"buffer": 0, "byteOffset": 415004, "byteLength": 100}, {"buffer": 0, "byteOffset": 415104, "byteLength": 400}, {"buffer": 0, "byteOffset": 415504, "byteLength": 8}, {"buffer": 0, "byteOffset": 415512, "byteLength": 24}, {"buffer": 0, "byteOffset": 415536, "byteLength": 100}, {"buffer": 0, "byteOffset": 415636, "byteLength": 400}, {"buffer": 0, "byteOffset": 416036, "byteLength": 8}, {"buffer": 0, "byteOffset": 416044, "byteLength": 24}, {"buffer": 0, "byteOffset": 416068, "byteLength": 100}, {"buffer": 0, "byteOffset": 416168, "byteLength": 400}, {"buffer": 0, "byteOffset": 416568, "byteLength": 8}, {"buffer": 0, "byteOffset": 416576, "byteLength": 24}, {"buffer": 0, "byteOffset": 416600, "byteLength": 100}, {"buffer": 0, "byteOffset": 416700, "byteLength": 400}, {"buffer": 0, "byteOffset": 417100, "byteLength": 8}, {"buffer": 0, "byteOffset": 417108, "byteLength": 24}, {"buffer": 0, "byteOffset": 417132, "byteLength": 100}, {"buffer": 0, "byteOffset": 417232, "byteLength": 400}, {"buffer": 0, "byteOffset": 417632, "byteLength": 8}, {"buffer": 0, "byteOffset": 417640, "byteLength": 24}, {"buffer": 0, "byteOffset": 417664, "byteLength": 100}, {"buffer": 0, "byteOffset": 417764, "byteLength": 400}, {"buffer": 0, "byteOffset": 418164, "byteLength": 100}, {"buffer": 0, "byteOffset": 418264, "byteLength": 300}, {"buffer": 0, "byteOffset": 418564, "byteLength": 100}, {"buffer": 0, "byteOffset": 418664, "byteLength": 400}, {"buffer": 0, "byteOffset": 419064, "byteLength": 8}, {"buffer": 0, "byteOffset": 419072, "byteLength": 24}, {"buffer": 0, "byteOffset": 419096, "byteLength": 8}, {"buffer": 0, "byteOffset": 419104, "byteLength": 32}, {"buffer": 0, "byteOffset": 419136, "byteLength": 100}, {"buffer": 0, "byteOffset": 419236, "byteLength": 300}, {"buffer": 0, "byteOffset": 419536, "byteLength": 100}, {"buffer": 0, "byteOffset": 419636, "byteLength": 400}, {"buffer": 0, "byteOffset": 420036, "byteLength": 8}, {"buffer": 0, "byteOffset": 420044, "byteLength": 24}, {"buffer": 0, "byteOffset": 420068, "byteLength": 8}, {"buffer": 0, "byteOffset": 420076, "byteLength": 32}, {"buffer": 0, "byteOffset": 420108, "byteLength": 8}, {"buffer": 0, "byteOffset": 420116, "byteLength": 24}, {"buffer": 0, "byteOffset": 420140, "byteLength": 8}, {"buffer": 0, "byteOffset": 420148, "byteLength": 32}], "samplers": [{"magFilter": 9729, "minFilter": 9987}, {"magFilter": 9728, "minFilter": 9728}], "buffers": [{"byteLength": 420180, "uri": "rogue.bin"}], "animations": [{"name": "Idle", "samplers": [{"input": 43, "output": 44, "interpolation": "LINEAR"}, {"input": 45, "output": 46, "interpolation": "LINEAR"}, {"input": 47, "output": 48, "interpolation": "LINEAR"}, {"input": 49, "output": 50, "interpolation": "LINEAR"}, {"input": 51, "output": 52, "interpolation": "LINEAR"}, {"input": 53, "output": 54, "interpolation": "LINEAR"}, {"input": 55, "output": 56, "interpolation": "LINEAR"}, {"input": 57, "output": 58, "interpolation": "LINEAR"}, {"input": 59, "output": 60, "interpolation": "LINEAR"}, {"input": 61, "output": 62, "interpolation": "LINEAR"}, {"input": 63, "output": 64, "interpolation": "LINEAR"}, {"input": 65, "output": 66, "interpolation": "LINEAR"}, {"input": 67, "output": 68, "interpolation": "LINEAR"}, {"input": 69, "output": 70, "interpolation": "LINEAR"}, {"input": 71, "output": 72, "interpolation": "LINEAR"}, {"input": 73, "output": 74, "interpolation": "LINEAR"}, {"input": 75, "output": 76, "interpolation": "LINEAR"}, {"input": 77, "output": 78, "interpolation": "LINEAR"}, {"input": 79, "output": 80, "interpolation": "LINEAR"}, {"input": 81, "output": 82, "interpolation": "LINEAR"}, {"input": 83, "output": 84, "interpolation": "LINEAR"}, {"input": 85, "output": 86, "interpolation": "LINEAR"}, {"input": 87, "output": 88, "interpolation": "LINEAR"}, {"input": 89, "output": 90, "interpolation": "LINEAR"}, {"input": 91, "output": 92, "interpolation": "LINEAR"}, {"input": 93, "output": 94, "interpolation": "LINEAR"}, {"input": 95, "output": 96, "interpolation": "LINEAR"}, {"input": 97, "output": 98, "interpolation": "LINEAR"}, {"input": 99, "output": 100, "interpolation": "LINEAR"}, {"input": 101, "output": 102, "interpolation": "LINEAR"}, {"input": 103, "output": 104, "interpolation": "LINEAR"}, {"input": 105, "output": 106, "interpolation": "LINEAR"}, {"input": 107, "output": 108, "interpolation": "LINEAR"}, {"input": 109, "output": 110, "interpolation": "LINEAR"}, {"input": 111, "output": 112, "interpolation": "LINEAR"}, {"input": 113, "output": 114, "interpolation": "LINEAR"}, {"input": 115, "output": 116, "interpolation": "LINEAR"}, {"input": 117, "output": 118, "interpolation": "LINEAR"}, {"input": 119, "output": 120, "interpolation": "LINEAR"}, {"input": 121, "output": 122, "interpolation": "LINEAR"}, {"input": 123, "output": 124, "interpolation": "LINEAR"}, {"input": 125, "output": 126, "interpolation": "LINEAR"}, {"input": 127, "output": 128, "interpolation": "LINEAR"}, {"input": 129, "output": 130, "interpolation": "LINEAR"}, {"input": 131, "output": 132, "interpolation": "LINEAR"}, {"input": 133, "output": 134, "interpolation": "LINEAR"}], "channels": [{"sampler": 0, "target": {"node": 21, "path": "translation"}}, {"sampler": 1, "target": {"node": 21, "path": "rotation"}}, {"sampler": 2, "target": {"node": 8, "path": "translation"}}, {"sampler": 3, "target": {"node": 8, "path": "rotation"}}, {"sampler": 4, "target": {"node": 6, "path": "translation"}}, {"sampler": 5, "target": {"node": 6, "path": "rotation"}}, {"sampler": 6, "target": {"node": 9, "path": "translation"}}, {"sampler": 7, "target": {"node": 9, "path": "rotation"}}, {"sampler": 8, "target": {"node": 18, "path": "translation"}}, {"sampler": 9, "target": {"node": 18, "path": "rotation"}}, {"sampler": 10, "target": {"node": 17, "path": "translation"}}, {"sampler": 11, "target": {"node": 17, "path": "rotation"}}, {"sampler": 12, "target": {"node": 16, "path": "translation"}}, {"sampler": 13, "target": {"node": 16, "path": "rotation"}}, {"sampler": 14, "target": {"node": 20, "path": "translation"}}, {"sampler": 15, "target": {"node": 20, "path": "rotation"}}, {"sampler": 16, "target": {"node": 15, "path": "translation"}}, {"sampler": 17, "target": {"node": 15, "path": "rotation"}}, {"sampler": 18, "target": {"node": 0, "path": "translation"}}, {"sampler": 19, "target": {"node": 0, "path": "rotation"}}, {"sampler": 20, "target": {"node": 22, "path": "translation"}}, {"sampler": 21, "target": {"node": 22, "path": "rotation"}}, {"sampler": 22, "target": {"node": 11, "path": "translation"}}, {"sampler": 23, "target": {"node": 11, "path": "rotation"}}, {"sampler": 24, "target": {"node": 3, "path": "translation"}}, {"sampler": 25, "target": {"node": 3, "path": "rotation"}}, {"sampler": 26, "target": {"node": 1, "path": "translation"}}, {"sampler": 27, "target": {"node": 1, "path": "rotation"}}, {"sampler": 28, "target": {"node": 19, "path": "translation"}}, {"sampler": 29, "target": {"node": 19, "path": "rotation"}}, {"sampler": 30, "target": {"node": 10, "path": "translation"}}, {"sampler": 31, "target": {"node": 10, "path": "rotation"}}, {"sampler": 32, "target": {"node": 7, "path": "translation"}}, {"sampler": 33, "target": {"node": 7, "path": "rotation"}}, {"sampler": 34, "target": {"node": 4, "path": "translation"}}, {"sampler": 35, "target": {"node": 4, "path": "rotation"}}, {"sampler": 36, "target": {"node": 2, "path": "translation"}}, {"sampler": 37, "target": {"node": 2, "path": "rotation"}}, {"sampler": 38, "target": {"node": 13, "path": "translation"}}, {"sampler": 39, "target": {"node": 13, "path": "rotation"}}, {"sampler": 40, "target": {"node": 12, "path": "translation"}}, {"sampler": 41, "target": {"node": 12, "path": "rotation"}}, {"sampler": 42, "target": {"node": 5, "path": "translation"}}, {"sampler": 43, "target": {"node": 5, "path": "rotation"}}, {"sampler": 44, "target": {"node": 14, "path": "translation"}}, {"sampler": 45, "target": {"node": 14, "path": "rotation"}}]}, {"name": "Walk", "samplers": [{"input": 135, "output": 136, "interpolation": "LINEAR"}, {"input": 137, "output": 138, "interpolation": "LINEAR"}, {"input": 139, "output": 140, "interpolation": "LINEAR"}, {"input": 141, "output": 142, "interpolation": "LINEAR"}, {"input": 143, "output": 144, "interpolation": "LINEAR"}, {"input": 145, "output": 146, "interpolation": "LINEAR"}, {"input": 147, "output": 148, "interpolation": "LINEAR"}, {"input": 149, "output": 150, "interpolation": "LINEAR"}, {"input": 151, "output": 152, "interpolation": "LINEAR"}, {"input": 153, "output": 154, "interpolation": "LINEAR"}, {"input": 155, "output": 156, "interpolation": "LINEAR"}, {"input": 157, "output": 158, "interpolation": "LINEAR"}, {"input": 159, "output": 160, "interpolation": "LINEAR"}, {"input": 161, "output": 162, "interpolation": "LINEAR"}, {"input": 163, "output": 164, "interpolation": "LINEAR"}, {"input": 165, "output": 166, "interpolation": "LINEAR"}, {"input": 167, "output": 168, "interpolation": "LINEAR"}, {"input": 169, "output": 170, "interpolation": "LINEAR"}, {"input": 171, "output": 172, "interpolation": "LINEAR"}, {"input": 173, "output": 174, "interpolation": "LINEAR"}, {"input": 175, "output": 176, "interpolation": "LINEAR"}, {"input": 177, "output": 178, "interpolation": "LINEAR"}, {"input": 179, "output": 180, "interpolation": "LINEAR"}, {"input": 181, "output": 182, "interpolation": "LINEAR"}, {"input": 183, "output": 184, "interpolation": "LINEAR"}, {"input": 185, "output": 186, "interpolation": "LINEAR"}, {"input": 187, "output": 188, "interpolation": "LINEAR"}, {"input": 189, "output": 190, "interpolation": "LINEAR"}, {"input": 191, "output": 192, "interpolation": "LINEAR"}, {"input": 193, "output": 194, "interpolation": "LINEAR"}, {"input": 195, "output": 196, "interpolation": "LINEAR"}, {"input": 197, "output": 198, "interpolation": "LINEAR"}, {"input": 199, "output": 200, "interpolation": "LINEAR"}, {"input": 201, "output": 202, "interpolation": "LINEAR"}, {"input": 203, "output": 204, "interpolation": "LINEAR"}, {"input": 205, "output": 206, "interpolation": "LINEAR"}, {"input": 207, "output": 208, "interpolation": "LINEAR"}, {"input": 209, "output": 210, "interpolation": "LINEAR"}, {"input": 211, "output": 212, "interpolation": "LINEAR"}, {"input": 213, "output": 214, "interpolation": "LINEAR"}, {"input": 215, "output": 216, "interpolation": "LINEAR"}, {"input": 217, "output": 218, "interpolation": "LINEAR"}, {"input": 219, "output": 220, "interpolation": "LINEAR"}, {"input": 221, "output": 222, "interpolation": "LINEAR"}, {"input": 223, "output": 224, "interpolation": "LINEAR"}, {"input": 225, "output": 226, "interpolation": "LINEAR"}], "channels": [{"sampler": 0, "target": {"node": 17, "path": "translation"}}, {"sampler": 1, "target": {"node": 17, "path": "rotation"}}, {"sampler": 2, "target": {"node": 0, "path": "translation"}}, {"sampler": 3, "target": {"node": 0, "path": "rotation"}}, {"sampler": 4, "target": {"node": 10, "path": "translation"}}, {"sampler": 5, "target": {"node": 10, "path": "rotation"}}, {"sampler": 6, "target": {"node": 1, "path": "translation"}}, {"sampler": 7, "target": {"node": 1, "path": "rotation"}}, {"sampler": 8, "target": {"node": 6, "path": "translation"}}, {"sampler": 9, "target": {"node": 6, "path": "rotation"}}, {"sampler": 10, "target": {"node": 4, "path": "translation"}}, {"sampler": 11, "target": {"node": 4, "path": "rotation"}}, {"sampler": 12, "target": {"node": 9, "path": "translation"}}, {"sampler": 13, "target": {"node": 9, "path": "rotation"}}, {"sampler": 14, "target": {"node": 12, "path": "translation"}}, {"sampler": 15, "target": {"node": 12, "path": "rotation"}}, {"sampler": 16, "target": {"node": 7, "path": "translation"}}, {"sampler": 17, "target": {"node": 7, "path": "rotation"}}, {"sampler": 18, "target": {"node": 8, "path": "translation"}}, {"sampler": 19, "target": {"node": 8, "path": "rotation"}}, {"sampler": 20, "target": {"node": 13, "path": "translation"}}, {"sampler": 21, "target": {"node": 13, "path": "rotation"}}, {"sampler": 22, "target": {"node": 18, "path": "translation"}}, {"sampler": 23, "target": {"node": 18, "path": "rotation"}}, {"sampler": 24, "target": {"node": 11, "path": "translation"}}, {"sampler": 25, "target": {"node": 11, "path": "rotation"}}, {"sampler": 26, "target": {"node": 15, "path": "translation"}}, {"sampler": 27, "target": {"node": 15, "path": "rotation"}}, {"sampler": 28, "target": {"node": 19, "path": "translation"}}, {"sampler": 29, "target": {"node": 19, "path": "rotation"}}, {"sampler": 30, "target": {"node": 20, "path": "translation"}}, {"sampler": 31, "target": {"node": 20, "path": "rotation"}}, {"sampler": 32, "target": {"node": 2, "path": "translation"}}, {"sampler": 33, "target": {"node": 2, "path": "rotation"}}, {"sampler": 34, "target": {"node": 5, "path": "translation"}}, {"sampler": 35, "target": {"node": 5, "path": "rotation"}}, {"sampler": 36, "target": {"node": 21, "path": "translation"}}, {"sampler": 37, "target": {"node": 21, "path": "rotation"}}, {"sampler": 38, "target": {"node": 14, "path": "translation"}}, {"sampler": 39, "target": {"node": 14, "path": "rotation"}}, {"sampler": 40, "target": {"node": 3, "path": "translation"}}, {"sampler": 41, "target": {"node": 3, "path": "rotation"}}, {"sampler": 42, "target": {"node": 16, "path": "translation"}}, {"sampler": 43, "target": {"node": 16, "path": "rotation"}}, {"sampler": 44, "target": {"node": 22, "path": "translation"}}, {"sampler": 45, "target": {"node": 22, "path": "rotation"}}]}, {"name": "Sprint", "samplers": [{"input": 227, "output": 228, "interpolation": "LINEAR"}, {"input": 229, "output": 230, "interpolation": "LINEAR"}, {"input": 231, "output": 232, "interpolation": "LINEAR"}, {"input": 233, "output": 234, "interpolation": "LINEAR"}, {"input": 235, "output": 236, "interpolation": "LINEAR"}, {"input": 237, "output": 238, "interpolation": "LINEAR"}, {"input": 239, "output": 240, "interpolation": "LINEAR"}, {"input": 241, "output": 242, "interpolation": "LINEAR"}, {"input": 243, "output": 244, "interpolation": "LINEAR"}, {"input": 245, "output": 246, "interpolation": "LINEAR"}, {"input": 247, "output": 248, "interpolation": "LINEAR"}, {"input": 249, "output": 250, "interpolation": "LINEAR"}, {"input": 251, "output": 252, "interpolation": "LINEAR"}, {"input": 253, "output": 254, "interpolation": "LINEAR"}, {"input": 255, "output": 256, "interpolation": "LINEAR"}, {"input": 257, "output": 258, "interpolation": "LINEAR"}, {"input": 259, "output": 260, "interpolation": "LINEAR"}, {"input": 261, "output": 262, "interpolation": "LINEAR"}, {"input": 263, "output": 264, "interpolation": "LINEAR"}, {"input": 265, "output": 266, "interpolation": "LINEAR"}, {"input": 267, "output": 268, "interpolation": "LINEAR"}, {"input": 269, "output": 270, "interpolation": "LINEAR"}, {"input": 271, "output": 272, "interpolation": "LINEAR"}, {"input": 273, "output": 274, "interpolation": "LINEAR"}, {"input": 275, "output": 276, "interpolation": "LINEAR"}, {"input": 277, "output": 278, "interpolation": "LINEAR"}, {"input": 279, "output": 280, "interpolation": "LINEAR"}, {"input": 281, "output": 282, "interpolation": "LINEAR"}, {"input": 283, "output": 284, "interpolation": "LINEAR"}, {"input": 285, "output": 286, "interpolation": "LINEAR"}, {"input": 287, "output": 288, "interpolation": "LINEAR"}, {"input": 289, "output": 290, "interpolation": "LINEAR"}, {"input": 291, "output": 292, "interpolation": "LINEAR"}, {"input": 293, "output": 294, "interpolation": "LINEAR"}, {"input": 295, "output": 296, "interpolation": "LINEAR"}, {"input": 297, "output": 298, "interpolation": "LINEAR"}, {"input": 299, "output": 300, "interpolation": "LINEAR"}, {"input": 301, "output": 302, "interpolation": "LINEAR"}, {"input": 303, "output": 304, "interpolation": "LINEAR"}, {"input": 305, "output": 306, "interpolation": "LINEAR"}, {"input": 307, "output": 308, "interpolation": "LINEAR"}, {"input": 309, "output": 310, "interpolation": "LINEAR"}, {"input": 311, "output": 312, "interpolation": "LINEAR"}, {"input": 313, "output": 314, "interpolation": "LINEAR"}, {"input": 315, "output": 316, "interpolation": "LINEAR"}, {"input": 317, "output": 318, "interpolation": "LINEAR"}], "channels": [{"sampler": 0, "target": {"node": 17, "path": "translation"}}, {"sampler": 1, "target": {"node": 17, "path": "rotation"}}, {"sampler": 2, "target": {"node": 0, "path": "translation"}}, {"sampler": 3, "target": {"node": 0, "path": "rotation"}}, {"sampler": 4, "target": {"node": 10, "path": "translation"}}, {"sampler": 5, "target": {"node": 10, "path": "rotation"}}, {"sampler": 6, "target": {"node": 1, "path": "translation"}}, {"sampler": 7, "target": {"node": 1, "path": "rotation"}}, {"sampler": 8, "target": {"node": 6, "path": "translation"}}, {"sampler": 9, "target": {"node": 6, "path": "rotation"}}, {"sampler": 10, "target": {"node": 4, "path": "translation"}}, {"sampler": 11, "target": {"node": 4, "path": "rotation"}}, {"sampler": 12, "target": {"node": 9, "path": "translation"}}, {"sampler": 13, "target": {"node": 9, "path": "rotation"}}, {"sampler": 14, "target": {"node": 12, "path": "translation"}}, {"sampler": 15, "target": {"node": 12, "path": "rotation"}}, {"sampler": 16, "target": {"node": 7, "path": "translation"}}, {"sampler": 17, "target": {"node": 7, "path": "rotation"}}, {"sampler": 18, "target": {"node": 8, "path": "translation"}}, {"sampler": 19, "target": {"node": 8, "path": "rotation"}}, {"sampler": 20, "target": {"node": 13, "path": "translation"}}, {"sampler": 21, "target": {"node": 13, "path": "rotation"}}, {"sampler": 22, "target": {"node": 18, "path": "translation"}}, {"sampler": 23, "target": {"node": 18, "path": "rotation"}}, {"sampler": 24, "target": {"node": 11, "path": "translation"}}, {"sampler": 25, "target": {"node": 11, "path": "rotation"}}, {"sampler": 26, "target": {"node": 15, "path": "translation"}}, {"sampler": 27, "target": {"node": 15, "path": "rotation"}}, {"sampler": 28, "target": {"node": 19, "path": "translation"}}, {"sampler": 29, "target": {"node": 19, "path": "rotation"}}, {"sampler": 30, "target": {"node": 20, "path": "translation"}}, {"sampler": 31, "target": {"node": 20, "path": "rotation"}}, {"sampler": 32, "target": {"node": 2, "path": "translation"}}, {"sampler": 33, "target": {"node": 2, "path": "rotation"}}, {"sampler": 34, "target": {"node": 5, "path": "translation"}}, {"sampler": 35, "target": {"node": 5, "path": "rotation"}}, {"sampler": 36, "target": {"node": 21, "path": "translation"}}, {"sampler": 37, "target": {"node": 21, "path": "rotation"}}, {"sampler": 38, "target": {"node": 14, "path": "translation"}}, {"sampler": 39, "target": {"node": 14, "path": "rotation"}}, {"sampler": 40, "target": {"node": 3, "path": "translation"}}, {"sampler": 41, "target": {"node": 3, "path": "rotation"}}, {"sampler": 42, "target": {"node": 16, "path": "translation"}}, {"sampler": 43, "target": {"node": 16, "path": "rotation"}}, {"sampler": 44, "target": {"node": 22, "path": "translation"}}, {"sampler": 45, "target": {"node": 22, "path": "rotation"}}]}]}